G04*
G04 #@! TF.GenerationSoftware,Altium Limited,Altium Designer,26.7.1 (11)*
G04*
G04 Layer_Physical_Order=1*
G04 Layer_Color=255*
G04 Board_Origin=0|0*
%FSLAX44Y44*%
%MOMM*%
G71*
G04*
G04 #@! TF.SameCoordinates,829F16A4-7465-4014-AE08-DF0F6C3C2EE9*
G04*
G04*
G04 #@! TF.FilePolarity,Positive*
G04*
G01*
G75*
%ADD10C,0.2000*%
%ADD14C,0.5000*%
%ADD19R,1.1430X0.5842*%
%ADD20R,1.1430X0.3048*%
%ADD21R,1.4549X0.5326*%
%ADD22R,0.5580X0.9977*%
%ADD23R,0.9977X0.5580*%
%ADD24R,0.9779X0.5588*%
G04:AMPARAMS|DCode=25|XSize=0.65mm|YSize=1mm|CornerRadius=0.0813mm|HoleSize=0mm|Usage=FLASHONLY|Rotation=90.000|XOffset=0mm|YOffset=0mm|HoleType=Round|Shape=RoundedRectangle|*
%AMROUNDEDRECTD25*
21,1,0.6500,0.8375,0,0,90.0*
21,1,0.4875,1.0000,0,0,90.0*
1,1,0.1625,0.4188,0.2438*
1,1,0.1625,0.4188,-0.2438*
1,1,0.1625,-0.4188,-0.2438*
1,1,0.1625,-0.4188,0.2438*
%
%ADD25ROUNDEDRECTD25*%
G04:AMPARAMS|DCode=26|XSize=1.524mm|YSize=1.524mm|CornerRadius=0.381mm|HoleSize=0mm|Usage=FLASHONLY|Rotation=90.000|XOffset=0mm|YOffset=0mm|HoleType=Round|Shape=RoundedRectangle|*
%AMROUNDEDRECTD26*
21,1,1.5240,0.7620,0,0,90.0*
21,1,0.7620,1.5240,0,0,90.0*
1,1,0.7620,0.3810,0.3810*
1,1,0.7620,0.3810,-0.3810*
1,1,0.7620,-0.3810,-0.3810*
1,1,0.7620,-0.3810,0.3810*
%
%ADD26ROUNDEDRECTD26*%
%ADD27R,1.5280X0.6500*%
%ADD28R,1.5500X0.6500*%
%ADD29R,1.2100X0.7300*%
%ADD30R,1.8486X0.5580*%
%ADD31R,1.6510X2.3000*%
%ADD32R,0.8080X1.0406*%
%ADD33R,1.8000X1.0000*%
%ADD34R,0.8000X0.8000*%
%ADD35R,2.2098X1.2390*%
%ADD36R,2.2500X1.8000*%
%ADD37R,1.5000X0.9000*%
%ADD38R,0.6221X2.2539*%
%ADD39R,0.5580X1.4549*%
%ADD40R,1.6000X0.9000*%
%ADD41R,0.9000X1.3000*%
%ADD42R,0.8000X0.7000*%
%ADD43R,1.3000X0.9000*%
%ADD44R,0.7000X0.8000*%
%ADD45R,0.8000X0.8000*%
%ADD46R,1.0406X0.8080*%
%ADD47R,5.0000X1.2000*%
%ADD48C,0.6604*%
%ADD49O,2.1000X1.0000*%
%ADD50O,1.8000X1.0000*%
%ADD53R,1.6002X1.6002*%
%ADD54C,1.6002*%
%ADD55C,1.3970*%
%ADD56R,1.5000X1.5000*%
%ADD57C,1.5000*%
%ADD58C,3.0000*%
%ADD59C,1.5300*%
%ADD60R,1.5300X1.5300*%
%ADD61R,1.6002X1.6002*%
%ADD62C,0.7000*%
%ADD63C,0.3000*%
%ADD64C,0.3500*%
%ADD65C,0.3810*%
%ADD66C,0.4000*%
%ADD67C,0.2500*%
%ADD68C,1.5080*%
%ADD69R,1.5080X1.5080*%
G36*
X685063Y743946D02*
Y743946D01*
X686986Y743760D01*
X687380Y743708D01*
X689538Y742814D01*
X691392Y741392D01*
X692814Y739538D01*
X693708Y737380D01*
X693760Y736986D01*
X693946Y735063D01*
X693946Y733064D01*
X693946Y515064D01*
X693978Y514905D01*
X694367Y510947D01*
X695568Y506988D01*
X697518Y503340D01*
X700142Y500142D01*
X703340Y497518D01*
X706988Y495568D01*
X710947Y494367D01*
X714905Y493978D01*
X715063Y493946D01*
X778064Y493946D01*
X780063Y493946D01*
X782003Y493801D01*
X783685Y493579D01*
X787060Y492182D01*
X789958Y489958D01*
X792181Y487060D01*
X793579Y483685D01*
X793801Y482003D01*
X793946Y480064D01*
X793946Y480064D01*
X793946Y478097D01*
Y17063D01*
X793946Y17034D01*
X793946Y15064D01*
X793760Y13140D01*
X793708Y12747D01*
X792814Y10589D01*
X791392Y8735D01*
X789538Y7313D01*
X787380Y6419D01*
X785266Y6141D01*
X785063Y6181D01*
X687405D01*
X686463Y7993D01*
X686519Y8181D01*
X688689Y9434D01*
X690566Y11311D01*
X691893Y13609D01*
X692580Y16173D01*
Y16230D01*
X672420D01*
Y16173D01*
X673107Y13609D01*
X674434Y11311D01*
X676311Y9434D01*
X678481Y8181D01*
X678537Y7993D01*
X677595Y6181D01*
X619844D01*
X619581Y8181D01*
X621182Y8610D01*
X623358Y9866D01*
X625134Y11642D01*
X626390Y13818D01*
X627040Y16244D01*
Y18756D01*
X626390Y21182D01*
X625134Y23358D01*
X623358Y25134D01*
X621182Y26390D01*
X618756Y27040D01*
X618545D01*
X617717Y29040D01*
X647354Y58677D01*
X673692D01*
X674866Y56642D01*
X676642Y54866D01*
X678818Y53610D01*
X681244Y52960D01*
X683756D01*
X686182Y53610D01*
X688358Y54866D01*
X690134Y56642D01*
X691390Y58818D01*
X692040Y61244D01*
Y63756D01*
X691390Y66182D01*
X690134Y68358D01*
X688358Y70134D01*
X686182Y71390D01*
X683756Y72040D01*
X681244D01*
X678818Y71390D01*
X676642Y70134D01*
X674866Y68358D01*
X673692Y66323D01*
X645770D01*
X644307Y66032D01*
X643066Y65204D01*
X603686Y25823D01*
X596000D01*
Y28000D01*
X585000D01*
Y16000D01*
X596000D01*
Y18177D01*
X605270D01*
X605960Y18314D01*
X607686Y17236D01*
X607960Y16882D01*
Y16244D01*
X608610Y13818D01*
X609866Y11642D01*
X611642Y9866D01*
X613818Y8610D01*
X615419Y8181D01*
X615156Y6181D01*
X228795D01*
Y17730D01*
X207205D01*
Y6181D01*
X184844D01*
X184581Y8181D01*
X186182Y8610D01*
X188358Y9866D01*
X190134Y11642D01*
X191390Y13818D01*
X192040Y16244D01*
Y18756D01*
X191390Y21182D01*
X190134Y23358D01*
X188358Y25134D01*
X186182Y26390D01*
X183756Y27040D01*
X181244D01*
X178818Y26390D01*
X176642Y25134D01*
X174866Y23358D01*
X173610Y21182D01*
X172960Y18756D01*
Y16244D01*
X173610Y13818D01*
X174866Y11642D01*
X176642Y9866D01*
X178818Y8610D01*
X180419Y8181D01*
X180156Y6181D01*
X119844D01*
X119581Y8181D01*
X121182Y8610D01*
X123358Y9866D01*
X125134Y11642D01*
X126390Y13818D01*
X127040Y16244D01*
Y18756D01*
X126390Y21182D01*
X125134Y23358D01*
X123358Y25134D01*
X121182Y26390D01*
X118756Y27040D01*
X116244D01*
X113818Y26390D01*
X111642Y25134D01*
X109866Y23358D01*
X108610Y21182D01*
X107960Y18756D01*
Y16244D01*
X108610Y13818D01*
X109866Y11642D01*
X111642Y9866D01*
X113818Y8610D01*
X115419Y8181D01*
X115156Y6181D01*
X15064D01*
X14861Y6141D01*
X12747Y6419D01*
X10589Y7313D01*
X8735Y8735D01*
X7313Y10589D01*
X6419Y12747D01*
X6141Y14861D01*
X6181Y15064D01*
Y485064D01*
X6141Y485266D01*
X6419Y487380D01*
X7313Y489538D01*
X8735Y491392D01*
X10589Y492814D01*
X12747Y493708D01*
X13140Y493760D01*
X15064Y493946D01*
Y493946D01*
X17034Y493946D01*
X285063D01*
X285222Y493978D01*
X289180Y494367D01*
X293139Y495568D01*
X296787Y497518D01*
X299888Y500063D01*
X300268Y500063D01*
Y500488D01*
X302609Y503340D01*
X304559Y506988D01*
X305760Y510947D01*
X306149Y514904D01*
X306181Y515064D01*
Y735063D01*
X306141Y735266D01*
X306419Y737380D01*
X307313Y739538D01*
X308735Y741392D01*
X310589Y742814D01*
X312747Y743708D01*
X313141Y743760D01*
X315063Y743946D01*
Y743946D01*
X317027Y743946D01*
X683100D01*
X685063Y743946D01*
D02*
G37*
%LPC*%
G36*
X645674Y687000D02*
X642326D01*
X639041Y686347D01*
X635947Y685065D01*
X633163Y683205D01*
X630795Y680837D01*
X628935Y678053D01*
X627653Y674959D01*
X627000Y671674D01*
Y668326D01*
X627653Y665041D01*
X628935Y661947D01*
X630795Y659163D01*
X633163Y656795D01*
X635947Y654935D01*
X639041Y653653D01*
X642326Y653000D01*
X645674D01*
X648959Y653653D01*
X652053Y654935D01*
X654837Y656795D01*
X657205Y659163D01*
X659065Y661947D01*
X660347Y665041D01*
X661000Y668326D01*
Y671674D01*
X660347Y674959D01*
X659065Y678053D01*
X657205Y680837D01*
X654837Y683205D01*
X652053Y685065D01*
X648959Y686347D01*
X645674Y687000D01*
D02*
G37*
G36*
X557674D02*
X554326D01*
X551041Y686347D01*
X547948Y685065D01*
X545163Y683205D01*
X542795Y680837D01*
X540935Y678053D01*
X539653Y674959D01*
X539000Y671674D01*
Y668326D01*
X539653Y665041D01*
X540935Y661947D01*
X542795Y659163D01*
X545163Y656795D01*
X547948Y654935D01*
X551041Y653653D01*
X554326Y653000D01*
X557674D01*
X560959Y653653D01*
X564053Y654935D01*
X566837Y656795D01*
X569205Y659163D01*
X571065Y661947D01*
X572347Y665041D01*
X573000Y668326D01*
Y671674D01*
X572347Y674959D01*
X571065Y678053D01*
X569205Y680837D01*
X566837Y683205D01*
X564053Y685065D01*
X560959Y686347D01*
X557674Y687000D01*
D02*
G37*
G36*
X445674D02*
X442326D01*
X439041Y686347D01*
X435947Y685065D01*
X433163Y683205D01*
X430795Y680837D01*
X428935Y678053D01*
X427653Y674959D01*
X427000Y671674D01*
Y668326D01*
X427653Y665041D01*
X428935Y661947D01*
X430795Y659163D01*
X433163Y656795D01*
X435947Y654935D01*
X439041Y653653D01*
X442326Y653000D01*
X445674D01*
X448959Y653653D01*
X452052Y654935D01*
X454837Y656795D01*
X457205Y659163D01*
X459065Y661947D01*
X460347Y665041D01*
X461000Y668326D01*
Y671674D01*
X460347Y674959D01*
X459065Y678053D01*
X457205Y680837D01*
X454837Y683205D01*
X452052Y685065D01*
X448959Y686347D01*
X445674Y687000D01*
D02*
G37*
G36*
X357674D02*
X354326D01*
X351041Y686347D01*
X347948Y685065D01*
X345163Y683205D01*
X342795Y680837D01*
X340935Y678053D01*
X339653Y674959D01*
X339000Y671674D01*
Y668326D01*
X339653Y665041D01*
X340935Y661947D01*
X342795Y659163D01*
X345163Y656795D01*
X347948Y654935D01*
X351041Y653653D01*
X354326Y653000D01*
X357674D01*
X360959Y653653D01*
X364053Y654935D01*
X366837Y656795D01*
X369205Y659163D01*
X371065Y661947D01*
X372347Y665041D01*
X373000Y668326D01*
Y671674D01*
X372347Y674959D01*
X371065Y678053D01*
X369205Y680837D01*
X366837Y683205D01*
X364053Y685065D01*
X360959Y686347D01*
X357674Y687000D01*
D02*
G37*
G36*
X570040Y620540D02*
X543770D01*
Y613270D01*
X570040D01*
Y620540D01*
D02*
G37*
G36*
X685040D02*
X658770D01*
Y613270D01*
X685040D01*
Y620540D01*
D02*
G37*
G36*
X485040D02*
X458770D01*
Y613270D01*
X485040D01*
Y620540D01*
D02*
G37*
G36*
X370040D02*
X343770D01*
Y613270D01*
X370040D01*
Y620540D01*
D02*
G37*
G36*
X341230D02*
X314960D01*
Y613270D01*
X341230D01*
Y620540D01*
D02*
G37*
G36*
X541230D02*
X514960D01*
Y613270D01*
X541230D01*
Y620540D01*
D02*
G37*
G36*
X656230D02*
X629960D01*
Y613270D01*
X656230D01*
Y620540D01*
D02*
G37*
G36*
X456230D02*
X429960D01*
Y613270D01*
X456230D01*
Y620540D01*
D02*
G37*
G36*
X685040Y610730D02*
X658770D01*
Y603460D01*
X685040D01*
Y610730D01*
D02*
G37*
G36*
X656230D02*
X629960D01*
Y603460D01*
X656230D01*
Y610730D01*
D02*
G37*
G36*
X570040D02*
X543770D01*
Y603460D01*
X570040D01*
Y610730D01*
D02*
G37*
G36*
X541230D02*
X514960D01*
Y603460D01*
X541230D01*
Y610730D01*
D02*
G37*
G36*
X485040D02*
X458770D01*
Y603460D01*
X485040D01*
Y610730D01*
D02*
G37*
G36*
X456230D02*
X429960D01*
Y603460D01*
X456230D01*
Y610730D01*
D02*
G37*
G36*
X370040D02*
X343770D01*
Y603460D01*
X370040D01*
Y610730D01*
D02*
G37*
G36*
X341230D02*
X314960D01*
Y603460D01*
X341230D01*
Y610730D01*
D02*
G37*
G36*
X569501Y594500D02*
X566999D01*
X564583Y593853D01*
X562417Y592602D01*
X560648Y590833D01*
X559397Y588667D01*
X558750Y586251D01*
Y583749D01*
X559397Y581333D01*
X560648Y579167D01*
X562417Y577398D01*
X564583Y576147D01*
X566999Y575500D01*
X569501D01*
X571917Y576147D01*
X574083Y577398D01*
X575852Y579167D01*
X577103Y581333D01*
X577750Y583749D01*
Y586251D01*
X577103Y588667D01*
X575852Y590833D01*
X574083Y592602D01*
X571917Y593853D01*
X569501Y594500D01*
D02*
G37*
G36*
X453950D02*
X434950D01*
Y575500D01*
X453950D01*
Y594500D01*
D02*
G37*
G36*
X420301D02*
X417799D01*
X415383Y593853D01*
X413217Y592602D01*
X411448Y590833D01*
X410197Y588667D01*
X409550Y586251D01*
Y583749D01*
X410197Y581333D01*
X411448Y579167D01*
X413217Y577398D01*
X415383Y576147D01*
X417799Y575500D01*
X420301D01*
X422717Y576147D01*
X424883Y577398D01*
X426652Y579167D01*
X427902Y581333D01*
X428550Y583749D01*
Y586251D01*
X427902Y588667D01*
X426652Y590833D01*
X424883Y592602D01*
X422717Y593853D01*
X420301Y594500D01*
D02*
G37*
G36*
X394901D02*
X392399D01*
X389983Y593853D01*
X387817Y592602D01*
X386048Y590833D01*
X384797Y588667D01*
X384150Y586251D01*
Y583749D01*
X384797Y581333D01*
X386048Y579167D01*
X387817Y577398D01*
X389983Y576147D01*
X392399Y575500D01*
X394901D01*
X397317Y576147D01*
X399483Y577398D01*
X401252Y579167D01*
X402503Y581333D01*
X403150Y583749D01*
Y586251D01*
X402503Y588667D01*
X401252Y590833D01*
X399483Y592602D01*
X397317Y593853D01*
X394901Y594500D01*
D02*
G37*
G36*
X369501D02*
X366999D01*
X364583Y593853D01*
X362417Y592602D01*
X360648Y590833D01*
X359397Y588667D01*
X358750Y586251D01*
Y583749D01*
X359397Y581333D01*
X360648Y579167D01*
X362417Y577398D01*
X364583Y576147D01*
X366999Y575500D01*
X369501D01*
X371917Y576147D01*
X374083Y577398D01*
X375852Y579167D01*
X377103Y581333D01*
X377750Y583749D01*
Y586251D01*
X377103Y588667D01*
X375852Y590833D01*
X374083Y592602D01*
X371917Y593853D01*
X369501Y594500D01*
D02*
G37*
G36*
X585094Y623500D02*
X582906D01*
X580885Y622663D01*
X579337Y621115D01*
X578500Y619094D01*
Y616906D01*
X579337Y614884D01*
X580885Y613337D01*
X582906Y612500D01*
X584093D01*
X589827Y606766D01*
Y593762D01*
X587817Y592602D01*
X586048Y590833D01*
X584797Y588667D01*
X584150Y586251D01*
Y583749D01*
X584797Y581333D01*
X586048Y579167D01*
X587817Y577398D01*
X589983Y576147D01*
X592399Y575500D01*
X594901D01*
X597317Y576147D01*
X599483Y577398D01*
X601252Y579167D01*
X602503Y581333D01*
X603150Y583749D01*
Y586251D01*
X602503Y588667D01*
X601252Y590833D01*
X599483Y592602D01*
X597473Y593762D01*
Y606553D01*
X599376Y606788D01*
X600214Y604767D01*
X601761Y603219D01*
X603782Y602382D01*
X604746D01*
X612583Y594545D01*
X613217Y592602D01*
X611448Y590833D01*
X610197Y588667D01*
X609550Y586251D01*
Y583749D01*
X610197Y581333D01*
X611448Y579167D01*
X613217Y577398D01*
X615069Y576329D01*
Y567145D01*
X613069Y566316D01*
X612183Y567202D01*
X610017Y568453D01*
X607601Y569100D01*
X605099D01*
X602683Y568453D01*
X600517Y567202D01*
X598748Y565433D01*
X597497Y563267D01*
X596850Y560851D01*
Y558349D01*
X597497Y555933D01*
X598748Y553767D01*
X600517Y551998D01*
X600824Y551821D01*
Y518053D01*
X550101Y467330D01*
X548101Y468159D01*
Y468617D01*
X547420Y471160D01*
X546103Y473441D01*
X544241Y475303D01*
X541960Y476619D01*
X539417Y477301D01*
X536783D01*
X534375Y476656D01*
X529636Y481395D01*
Y484193D01*
X531636Y485021D01*
X531959Y484697D01*
X534240Y483381D01*
X536783Y482699D01*
X539417D01*
X541960Y483381D01*
X544241Y484697D01*
X546103Y486559D01*
X547420Y488840D01*
X548101Y491383D01*
Y494017D01*
X547456Y496425D01*
X583765Y532735D01*
X584628Y534026D01*
X584931Y535550D01*
Y550929D01*
X586783Y551998D01*
X588552Y553767D01*
X589803Y555933D01*
X590450Y558349D01*
Y560851D01*
X589803Y563267D01*
X588552Y565433D01*
X586783Y567202D01*
X584617Y568453D01*
X582201Y569100D01*
X579699D01*
X577283Y568453D01*
X575117Y567202D01*
X573348Y565433D01*
X572097Y563267D01*
X571450Y560851D01*
Y558349D01*
X572097Y555933D01*
X573348Y553767D01*
X575117Y551998D01*
X576968Y550929D01*
Y537199D01*
X541825Y502056D01*
X539417Y502701D01*
X536783D01*
X534240Y502020D01*
X531959Y500703D01*
X531636Y500379D01*
X529636Y501208D01*
Y528055D01*
X552234Y550653D01*
X554299Y550100D01*
X556801D01*
X559217Y550747D01*
X561383Y551998D01*
X563152Y553767D01*
X564403Y555933D01*
X565050Y558349D01*
Y560851D01*
X564403Y563267D01*
X563152Y565433D01*
X561383Y567202D01*
X559217Y568453D01*
X556801Y569100D01*
X554299D01*
X551883Y568453D01*
X549717Y567202D01*
X547948Y565433D01*
X546697Y563267D01*
X546050Y560851D01*
Y558349D01*
X546603Y556284D01*
X522839Y532519D01*
X521976Y531228D01*
X521673Y529704D01*
Y500700D01*
X519673Y499871D01*
X518841Y500703D01*
X516560Y502020D01*
X514017Y502701D01*
X511383D01*
X508840Y502020D01*
X506559Y500703D01*
X504697Y498841D01*
X503381Y496560D01*
X502699Y494017D01*
Y491383D01*
X503381Y488840D01*
X504697Y486559D01*
X506559Y484697D01*
X508840Y483381D01*
X511383Y482699D01*
X514017D01*
X516560Y483381D01*
X518841Y484697D01*
X519673Y485529D01*
X521673Y484701D01*
Y479746D01*
X521976Y478222D01*
X522839Y476931D01*
X528744Y471025D01*
X528099Y468617D01*
Y465983D01*
X528781Y463440D01*
X530097Y461159D01*
X530421Y460835D01*
X529593Y458835D01*
X526795D01*
X522056Y463575D01*
X522701Y465983D01*
Y468617D01*
X522020Y471160D01*
X520703Y473441D01*
X518841Y475303D01*
X516560Y476619D01*
X514017Y477301D01*
X511383D01*
X508840Y476619D01*
X506559Y475303D01*
X504697Y473441D01*
X503381Y471160D01*
X502699Y468617D01*
Y465983D01*
X503381Y463440D01*
X504697Y461159D01*
X506559Y459297D01*
X508840Y457980D01*
X511383Y457299D01*
X514017D01*
X516425Y457944D01*
X522331Y452039D01*
X523622Y451176D01*
X525146Y450872D01*
X543255D01*
X544779Y451176D01*
X546071Y452039D01*
X586208Y492176D01*
X588208Y491422D01*
X589045Y489401D01*
X589885Y488562D01*
Y458292D01*
X573072Y441479D01*
X571183Y441985D01*
X568817D01*
X566532Y441373D01*
X564483Y440190D01*
X562810Y438517D01*
X561627Y436468D01*
X561015Y434183D01*
Y431817D01*
X561627Y429532D01*
X562810Y427483D01*
X564483Y425810D01*
X566532Y424627D01*
X568817Y424015D01*
X571183D01*
X573468Y424627D01*
X575517Y425810D01*
X577190Y427483D01*
X578373Y429532D01*
X578985Y431817D01*
Y434183D01*
X578479Y436072D01*
X596412Y454005D01*
X597240Y455245D01*
X597532Y456708D01*
Y488562D01*
X598371Y489401D01*
X599208Y491422D01*
Y493610D01*
X598371Y495632D01*
X596824Y497179D01*
X594802Y498016D01*
X594048Y500016D01*
X607620Y513588D01*
X608483Y514880D01*
X608787Y516404D01*
Y550418D01*
X610017Y550747D01*
X612183Y551998D01*
X613069Y552883D01*
X615069Y552055D01*
Y500250D01*
X615372Y498726D01*
X616235Y497435D01*
X626774Y486895D01*
X626315Y485183D01*
Y482817D01*
X626927Y480532D01*
X628110Y478483D01*
X629783Y476810D01*
X631832Y475627D01*
X634117Y475015D01*
X636483D01*
X638768Y475627D01*
X640817Y476810D01*
X642490Y478483D01*
X643673Y480532D01*
X644285Y482817D01*
Y485183D01*
X643673Y487468D01*
X642490Y489517D01*
X640817Y491190D01*
X638768Y492373D01*
X636483Y492985D01*
X634117D01*
X632405Y492526D01*
X623032Y501899D01*
Y552055D01*
X625032Y552883D01*
X625917Y551998D01*
X628083Y550747D01*
X630499Y550100D01*
X633001D01*
X635417Y550747D01*
X637583Y551998D01*
X639352Y553767D01*
X640603Y555933D01*
X641250Y558349D01*
Y560851D01*
X640603Y563267D01*
X639352Y565433D01*
X637583Y567202D01*
X635417Y568453D01*
X633001Y569100D01*
X630499D01*
X628083Y568453D01*
X625917Y567202D01*
X625032Y566316D01*
X623032Y567145D01*
Y576329D01*
X624883Y577398D01*
X626652Y579167D01*
X627903Y581333D01*
X628550Y583749D01*
Y586251D01*
X627903Y588667D01*
X626652Y590833D01*
X624883Y592602D01*
X622717Y593853D01*
X621851Y594085D01*
Y594889D01*
X621548Y596412D01*
X620685Y597704D01*
X610376Y608013D01*
Y608976D01*
X609539Y610998D01*
X607992Y612545D01*
X605970Y613382D01*
X603782D01*
X601761Y612545D01*
X600214Y610998D01*
X599376Y608976D01*
X597376Y608839D01*
X597182Y609813D01*
X596354Y611054D01*
X589500Y617907D01*
Y619094D01*
X588663Y621115D01*
X587116Y622663D01*
X585094Y623500D01*
D02*
G37*
G36*
X433001Y569100D02*
X430499D01*
X428083Y568453D01*
X425917Y567202D01*
X424148Y565433D01*
X422897Y563267D01*
X422250Y560851D01*
Y558349D01*
X422897Y555933D01*
X424148Y553767D01*
X425917Y551998D01*
X427769Y550929D01*
Y522850D01*
X428072Y521326D01*
X428935Y520035D01*
X451899Y497070D01*
Y488657D01*
X450051Y487891D01*
X410331Y527611D01*
Y550929D01*
X412183Y551998D01*
X413952Y553767D01*
X415202Y555933D01*
X415850Y558349D01*
Y560851D01*
X415202Y563267D01*
X413952Y565433D01*
X412183Y567202D01*
X410017Y568453D01*
X407601Y569100D01*
X405099D01*
X402683Y568453D01*
X400517Y567202D01*
X398748Y565433D01*
X397497Y563267D01*
X396850Y560851D01*
Y558349D01*
X397497Y555933D01*
X398748Y553767D01*
X400517Y551998D01*
X402369Y550929D01*
Y525962D01*
X402672Y524438D01*
X403535Y523147D01*
X449243Y477439D01*
X450534Y476576D01*
X452058Y476273D01*
X453900D01*
X454729Y474272D01*
X453897Y473441D01*
X452650Y471282D01*
X438349D01*
X384931Y524699D01*
Y550929D01*
X386783Y551998D01*
X388552Y553767D01*
X389803Y555933D01*
X390450Y558349D01*
Y560851D01*
X389803Y563267D01*
X388552Y565433D01*
X386783Y567202D01*
X384617Y568453D01*
X382201Y569100D01*
X379699D01*
X377283Y568453D01*
X375117Y567202D01*
X373348Y565433D01*
X372097Y563267D01*
X371450Y560851D01*
Y558349D01*
X372097Y555933D01*
X373348Y553767D01*
X375117Y551998D01*
X376968Y550929D01*
Y523050D01*
X377272Y521526D01*
X378135Y520235D01*
X433885Y464485D01*
X435176Y463622D01*
X436700Y463318D01*
X452650D01*
X453897Y461159D01*
X454221Y460835D01*
X453392Y458835D01*
X430795D01*
X361673Y527958D01*
Y552288D01*
X363152Y553767D01*
X364403Y555933D01*
X365050Y558349D01*
Y560851D01*
X364403Y563267D01*
X363152Y565433D01*
X361383Y567202D01*
X359217Y568453D01*
X356801Y569100D01*
X354299D01*
X351883Y568453D01*
X349717Y567202D01*
X347948Y565433D01*
X346697Y563267D01*
X346050Y560851D01*
Y558349D01*
X346697Y555933D01*
X347948Y553767D01*
X349717Y551998D01*
X351883Y550747D01*
X353710Y550258D01*
Y526309D01*
X354013Y524785D01*
X354876Y523494D01*
X426331Y452039D01*
X427622Y451176D01*
X429146Y450872D01*
X474854D01*
X476378Y451176D01*
X477669Y452039D01*
X483575Y457944D01*
X485983Y457299D01*
X488617D01*
X491160Y457980D01*
X493441Y459297D01*
X495303Y461159D01*
X496619Y463440D01*
X497301Y465983D01*
Y468617D01*
X496619Y471160D01*
X495303Y473441D01*
X493441Y475303D01*
X491160Y476619D01*
X488617Y477301D01*
X485983D01*
X483440Y476619D01*
X481159Y475303D01*
X479297Y473441D01*
X477980Y471160D01*
X477299Y468617D01*
Y465983D01*
X477944Y463575D01*
X473205Y458835D01*
X470407D01*
X469579Y460835D01*
X469903Y461159D01*
X471219Y463440D01*
X471901Y465983D01*
Y468617D01*
X471219Y471160D01*
X469903Y473441D01*
X469071Y474272D01*
X469899Y476273D01*
X474854D01*
X476378Y476576D01*
X477669Y477439D01*
X483575Y483344D01*
X485983Y482699D01*
X488617D01*
X491160Y483381D01*
X493441Y484697D01*
X495303Y486559D01*
X496619Y488840D01*
X497301Y491383D01*
Y494017D01*
X496619Y496560D01*
X495303Y498841D01*
X493441Y500703D01*
X491160Y502020D01*
X488617Y502701D01*
X485983D01*
X483440Y502020D01*
X481159Y500703D01*
X479297Y498841D01*
X477980Y496560D01*
X477299Y494017D01*
Y491383D01*
X477944Y488975D01*
X473901Y484932D01*
X471901Y485760D01*
Y502701D01*
X457530D01*
X435732Y524499D01*
Y550929D01*
X437583Y551998D01*
X439352Y553767D01*
X440602Y555933D01*
X441250Y558349D01*
Y560851D01*
X440602Y563267D01*
X439352Y565433D01*
X437583Y567202D01*
X435417Y568453D01*
X433001Y569100D01*
D02*
G37*
G36*
X222743Y489557D02*
X216270D01*
Y484247D01*
X222743D01*
Y489557D01*
D02*
G37*
G36*
X213730D02*
X207257D01*
Y484247D01*
X213730D01*
Y489557D01*
D02*
G37*
G36*
X144540Y465540D02*
X139270D01*
Y460770D01*
X144540D01*
Y465540D01*
D02*
G37*
G36*
X136730D02*
X131460D01*
Y460770D01*
X136730D01*
Y465540D01*
D02*
G37*
G36*
X242743Y459557D02*
X236270D01*
Y454247D01*
X242743D01*
Y459557D01*
D02*
G37*
G36*
X144540Y458230D02*
X139270D01*
Y453460D01*
X144540D01*
Y458230D01*
D02*
G37*
G36*
X136730D02*
X131460D01*
Y453460D01*
X136730D01*
Y458230D01*
D02*
G37*
G36*
X107795Y463040D02*
X98270D01*
Y450270D01*
X107795D01*
Y463040D01*
D02*
G37*
G36*
X271795D02*
X262270D01*
Y450270D01*
X271795D01*
Y463040D01*
D02*
G37*
G36*
X259730D02*
X250205D01*
Y450270D01*
X259730D01*
Y463040D01*
D02*
G37*
G36*
X95730D02*
X86205D01*
Y450270D01*
X95730D01*
Y463040D01*
D02*
G37*
G36*
X766674Y482000D02*
X763326D01*
X760041Y481347D01*
X756947Y480065D01*
X754163Y478205D01*
X751795Y475837D01*
X749935Y473052D01*
X748653Y469959D01*
X748000Y466674D01*
Y463326D01*
X748653Y460041D01*
X749935Y456948D01*
X751795Y454163D01*
X754163Y451795D01*
X756947Y449935D01*
X760041Y448653D01*
X763326Y448000D01*
X766674D01*
X769959Y448653D01*
X773053Y449935D01*
X775837Y451795D01*
X778205Y454163D01*
X780065Y456948D01*
X781347Y460041D01*
X782000Y463326D01*
Y466674D01*
X781347Y469959D01*
X780065Y473052D01*
X778205Y475837D01*
X775837Y478205D01*
X773053Y480065D01*
X769959Y481347D01*
X766674Y482000D01*
D02*
G37*
G36*
X36674D02*
X33326D01*
X30041Y481347D01*
X26948Y480065D01*
X24163Y478205D01*
X21795Y475837D01*
X19935Y473052D01*
X18653Y469959D01*
X18000Y466674D01*
Y463326D01*
X18653Y460041D01*
X19935Y456948D01*
X21795Y454163D01*
X24163Y451795D01*
X26948Y449935D01*
X30041Y448653D01*
X33326Y448000D01*
X36674D01*
X39959Y448653D01*
X43053Y449935D01*
X45837Y451795D01*
X48205Y454163D01*
X50065Y456948D01*
X51347Y460041D01*
X52000Y463326D01*
Y466674D01*
X51347Y469959D01*
X50065Y473052D01*
X48205Y475837D01*
X45837Y478205D01*
X43053Y480065D01*
X39959Y481347D01*
X36674Y482000D01*
D02*
G37*
G36*
X169070Y450840D02*
X160160D01*
Y446320D01*
X169070D01*
Y450840D01*
D02*
G37*
G36*
X300540Y450540D02*
X291270D01*
Y444770D01*
X300540D01*
Y450540D01*
D02*
G37*
G36*
X222743Y481707D02*
X215000D01*
X207257D01*
Y477397D01*
X207257Y476397D01*
X205671Y475397D01*
X178673D01*
X175276Y472000D01*
Y469203D01*
X170983D01*
Y454797D01*
X172435D01*
Y442459D01*
X171070Y441094D01*
X169070Y441922D01*
Y443780D01*
X158890D01*
Y445050D01*
X157620D01*
Y450840D01*
X148710D01*
Y447179D01*
X146862Y446414D01*
X145736Y447540D01*
X144000D01*
Y448000D01*
X132000D01*
Y447540D01*
X107795D01*
Y447730D01*
X97000D01*
X86205D01*
Y447540D01*
X82816D01*
X79276Y444000D01*
Y391000D01*
X62276Y374000D01*
X20276D01*
X16276Y370000D01*
Y355000D01*
X20276Y351000D01*
X45157Y351019D01*
X46572Y349605D01*
Y345310D01*
X46559Y345303D01*
X44697Y343441D01*
X43801Y341888D01*
X36199D01*
X35303Y343441D01*
X33441Y345303D01*
X31160Y346619D01*
X28617Y347301D01*
X25983D01*
X23440Y346619D01*
X21159Y345303D01*
X19297Y343441D01*
X17981Y341160D01*
X17299Y338617D01*
Y335983D01*
X17981Y333440D01*
X19297Y331159D01*
X21159Y329297D01*
X23440Y327980D01*
X25983Y327299D01*
X28617D01*
X31160Y327980D01*
X33441Y329297D01*
X35303Y331159D01*
X36199Y332712D01*
X43801D01*
X44697Y331159D01*
X46559Y329297D01*
X46572Y329290D01*
Y319910D01*
X46559Y319903D01*
X44697Y318041D01*
X43380Y315760D01*
X42699Y313217D01*
Y310583D01*
X43380Y308040D01*
X44697Y305759D01*
X46559Y303897D01*
X46572Y303890D01*
Y276314D01*
X43000D01*
Y279000D01*
X31609D01*
Y301899D01*
X37301D01*
Y321901D01*
X17299D01*
Y301899D01*
X24471D01*
Y279540D01*
X21270D01*
Y273000D01*
Y266460D01*
X24471D01*
Y254540D01*
X21270D01*
Y248000D01*
Y241460D01*
X24471D01*
Y229540D01*
X21270D01*
Y223000D01*
Y216460D01*
X24471D01*
Y200170D01*
X24743Y198804D01*
X25517Y197647D01*
X53000Y170163D01*
Y169757D01*
X48437Y165193D01*
X47663Y164036D01*
X47391Y162670D01*
Y108569D01*
X44000D01*
Y111000D01*
X32000D01*
Y103846D01*
X30152Y103081D01*
X28203Y105030D01*
Y112063D01*
X13797D01*
Y99983D01*
X23156D01*
X42055Y81084D01*
X43213Y80311D01*
X44578Y80039D01*
X71977D01*
X73343Y80311D01*
X74500Y81084D01*
X77063Y83647D01*
X77837Y84805D01*
X78109Y86171D01*
Y99170D01*
X77837Y100536D01*
X77063Y101693D01*
X72500Y106257D01*
Y111710D01*
X54529D01*
Y113910D01*
X72500D01*
Y115082D01*
X83160D01*
X83160Y115082D01*
X84721Y115392D01*
X86044Y116276D01*
X88268Y118500D01*
X89094D01*
X91116Y119337D01*
X92663Y120885D01*
X93500Y122906D01*
Y125094D01*
X92663Y127115D01*
X91116Y128663D01*
X89094Y129500D01*
X86906D01*
X84885Y128663D01*
X83337Y127115D01*
X82500Y125094D01*
Y124268D01*
X81471Y123238D01*
X74015D01*
X73860Y123358D01*
X72769Y125238D01*
X73040Y126070D01*
X73040D01*
X73040Y126186D01*
Y130590D01*
X62750D01*
Y133130D01*
X73040D01*
Y137534D01*
X73040Y137650D01*
X73040D01*
X72769Y138482D01*
X73860Y140362D01*
X74015Y140482D01*
X79560D01*
X79560Y140482D01*
X81121Y140792D01*
X82444Y141676D01*
X88658Y147890D01*
X89484D01*
X91505Y148727D01*
X93052Y150274D01*
X93890Y152296D01*
Y154484D01*
X93052Y156505D01*
X91505Y158052D01*
X90012Y158671D01*
X89015Y160317D01*
X88827Y160890D01*
X89094Y161500D01*
X91116Y162337D01*
X92663Y163885D01*
X93500Y165906D01*
Y168094D01*
X92663Y170116D01*
X91116Y171663D01*
X89293Y172418D01*
X88865Y173337D01*
X88547Y174500D01*
X100428Y186381D01*
X106960D01*
Y183930D01*
X117250D01*
X127540D01*
Y186381D01*
X154298D01*
Y183344D01*
X144483Y173529D01*
X127994D01*
X127104Y175529D01*
X127540Y176870D01*
X127540D01*
Y181390D01*
X117250D01*
X106960D01*
Y176996D01*
X106960Y176870D01*
X106960Y176870D01*
X107500Y175210D01*
X107500Y175210D01*
Y164710D01*
X127000D01*
Y166391D01*
X145962D01*
X147327Y166663D01*
X147816Y166990D01*
X149091Y165436D01*
X144483Y160829D01*
X127000D01*
Y162510D01*
X107500D01*
Y152010D01*
X127000D01*
Y153691D01*
X145962D01*
X147327Y153963D01*
X147816Y154290D01*
X149091Y152736D01*
X144483Y148129D01*
X127000D01*
Y149810D01*
X107500D01*
Y139310D01*
X127000D01*
Y140991D01*
X145962D01*
X147327Y141263D01*
X147816Y141590D01*
X149091Y140036D01*
X144483Y135429D01*
X127000D01*
Y137110D01*
X107500D01*
Y126610D01*
X127000D01*
Y128291D01*
X145962D01*
X147327Y128563D01*
X147816Y128890D01*
X149091Y127336D01*
X144483Y122729D01*
X127000D01*
Y124410D01*
X107500D01*
Y113910D01*
X127000D01*
Y115591D01*
X145962D01*
X147327Y115863D01*
X147816Y116190D01*
X149091Y114636D01*
X144483Y110029D01*
X127000D01*
Y111710D01*
X107500D01*
Y101210D01*
X127000D01*
Y102891D01*
X145962D01*
X147327Y103163D01*
X147816Y103490D01*
X149091Y101936D01*
X144483Y97329D01*
X127000D01*
Y99010D01*
X107500D01*
Y88510D01*
X127000D01*
Y90191D01*
X145962D01*
X147327Y90463D01*
X148485Y91237D01*
X151911Y94663D01*
X153758Y93897D01*
Y88857D01*
X162303D01*
Y94060D01*
Y99263D01*
X160326D01*
X159343Y101263D01*
X159986Y102097D01*
X172847D01*
Y111423D01*
X158584D01*
X157819Y113271D01*
X159345Y114797D01*
X172847D01*
Y124123D01*
X158584D01*
X157819Y125971D01*
X159345Y127497D01*
X172847D01*
Y136823D01*
X158584D01*
X157819Y138671D01*
X159345Y140197D01*
X172847D01*
Y149523D01*
X158584D01*
X157819Y151371D01*
X159345Y152897D01*
X172847D01*
Y162223D01*
X158584D01*
X157819Y164071D01*
X159345Y165597D01*
X172847D01*
Y174923D01*
X158584D01*
X157819Y176771D01*
X159345Y178297D01*
X172847D01*
Y187623D01*
X165446D01*
X164681Y189471D01*
X167126Y191917D01*
X221207Y192805D01*
X224388Y189623D01*
X223560Y187623D01*
X208725D01*
Y178297D01*
X227274D01*
Y178372D01*
X328139D01*
X392664Y113848D01*
X391898Y112000D01*
X382155D01*
X320651Y173504D01*
X319162Y174499D01*
X317407Y174848D01*
X227274D01*
Y174923D01*
X208725D01*
Y165597D01*
X227274D01*
Y165672D01*
X315506D01*
X367330Y113848D01*
X366565Y112000D01*
X356822D01*
X308018Y160804D01*
X306529Y161799D01*
X304773Y162148D01*
X227274D01*
Y162223D01*
X208725D01*
Y152897D01*
X227274D01*
Y152972D01*
X302873D01*
X341997Y113848D01*
X341232Y112000D01*
X331489D01*
X295384Y148104D01*
X293896Y149099D01*
X292140Y149448D01*
X227274D01*
Y149523D01*
X208725D01*
Y140197D01*
X227274D01*
Y140272D01*
X290240D01*
X316664Y113848D01*
X315898Y112000D01*
X306155D01*
X282751Y135404D01*
X281262Y136399D01*
X279507Y136748D01*
X227274D01*
Y136823D01*
X208725D01*
Y127497D01*
X227274D01*
Y127572D01*
X277606D01*
X291330Y113848D01*
X290565Y112000D01*
X280822D01*
X270118Y122704D01*
X268629Y123699D01*
X266873Y124048D01*
X227274D01*
Y124123D01*
X208725D01*
Y114797D01*
X227274D01*
Y114872D01*
X264408D01*
X265085Y114000D01*
X264107Y112000D01*
X249000D01*
Y110590D01*
X227274D01*
Y111423D01*
X208725D01*
Y102097D01*
X216502D01*
X217002Y101763D01*
X218758Y101414D01*
X249000D01*
Y98000D01*
X271000D01*
Y106232D01*
X272848Y106997D01*
X274333Y105511D01*
Y98000D01*
X296333D01*
Y106232D01*
X298181Y106997D01*
X299667Y105511D01*
Y98000D01*
X321667D01*
Y106232D01*
X323514Y106997D01*
X325000Y105511D01*
Y98000D01*
X347000D01*
Y106232D01*
X348848Y106997D01*
X350333Y105511D01*
Y98000D01*
X372333D01*
Y106232D01*
X374181Y106997D01*
X375667Y105511D01*
Y98000D01*
X397667D01*
Y106232D01*
X399514Y106997D01*
X401000Y105511D01*
Y98000D01*
X423000D01*
Y112000D01*
X407489D01*
X333284Y186204D01*
X331796Y187199D01*
X330040Y187548D01*
X270865D01*
X270037Y189548D01*
X274163Y193674D01*
X314618Y194338D01*
X314971Y219113D01*
X341550D01*
Y205800D01*
Y193100D01*
X360550D01*
Y198802D01*
X360630Y198818D01*
X361871Y199646D01*
X384899Y222674D01*
X385727Y223915D01*
X386018Y225378D01*
Y303678D01*
X402612Y320272D01*
X404460Y319507D01*
Y313460D01*
Y308770D01*
X411000D01*
Y306230D01*
X404460D01*
Y300960D01*
Y296270D01*
X411000D01*
Y295000D01*
X412270D01*
Y288460D01*
X422230D01*
Y295000D01*
X424770D01*
Y288460D01*
X434730D01*
Y295000D01*
X436000D01*
Y296270D01*
X442540D01*
Y300960D01*
Y306230D01*
X436000D01*
Y308770D01*
X442540D01*
Y313460D01*
Y318730D01*
X436000D01*
Y320000D01*
X434730D01*
Y326540D01*
X424770D01*
Y320000D01*
X422230D01*
Y326540D01*
X411493D01*
X410728Y328388D01*
X458047Y375707D01*
X461686D01*
X462452Y373859D01*
X432093Y343500D01*
X430906D01*
X428885Y342663D01*
X427337Y341115D01*
X426500Y339094D01*
Y336906D01*
X427337Y334884D01*
X428885Y333337D01*
X430906Y332500D01*
X433094D01*
X435116Y333337D01*
X436663Y334884D01*
X437500Y336906D01*
Y338093D01*
X469074Y369667D01*
X516010D01*
Y365970D01*
X526050D01*
Y363430D01*
X516010D01*
Y357660D01*
X516550D01*
Y345500D01*
Y332800D01*
Y326816D01*
X515513Y326123D01*
X435577Y246187D01*
X434803Y245029D01*
X434531Y243663D01*
Y61734D01*
X434375Y61692D01*
X432175Y60422D01*
X431978Y60225D01*
X430920Y60429D01*
X429905Y60980D01*
X429629Y62366D01*
X428634Y63854D01*
X423063Y69426D01*
Y74500D01*
X423000Y74818D01*
Y84000D01*
X401000D01*
Y70000D01*
X413887D01*
Y67525D01*
X414236Y65769D01*
X415231Y64281D01*
X415501Y64011D01*
X414466Y62217D01*
X413970Y62350D01*
X411429D01*
X408975Y61692D01*
X406775Y60422D01*
X406234Y59882D01*
X405744Y59840D01*
X403831Y60307D01*
X403234Y61201D01*
X397755Y66680D01*
Y74500D01*
X397667Y74943D01*
Y84000D01*
X375667D01*
Y70000D01*
X388578D01*
Y64780D01*
X388672Y64308D01*
X387156Y62350D01*
X386030D01*
X383575Y61692D01*
X381375Y60422D01*
X380834Y59882D01*
X380344Y59840D01*
X378431Y60307D01*
X377834Y61201D01*
X372421Y66613D01*
Y74500D01*
X372333Y74943D01*
Y84000D01*
X350333D01*
Y70000D01*
X363245D01*
Y64713D01*
X363330Y64284D01*
X361778Y62350D01*
X360630D01*
X358175Y61692D01*
X355975Y60422D01*
X355434Y59882D01*
X354944Y59840D01*
X353031Y60307D01*
X352434Y61201D01*
X347088Y66547D01*
Y74500D01*
X347000Y74943D01*
Y84000D01*
X325000D01*
Y70000D01*
X337912D01*
Y64646D01*
X337989Y64260D01*
X336400Y62350D01*
X335229D01*
X332775Y61692D01*
X330575Y60422D01*
X330034Y59882D01*
X329544Y59840D01*
X327631Y60307D01*
X327034Y61201D01*
X321755Y66480D01*
Y74500D01*
X321667Y74943D01*
Y84000D01*
X299667D01*
Y70000D01*
X312579D01*
Y64580D01*
X312644Y64250D01*
X312641Y64229D01*
X311022Y62350D01*
X309830D01*
X307375Y61692D01*
X305175Y60422D01*
X304634Y59882D01*
X304144Y59840D01*
X302231Y60307D01*
X301634Y61201D01*
X296422Y66413D01*
Y74500D01*
X296333Y74943D01*
Y84000D01*
X274333D01*
Y75768D01*
X272486Y75003D01*
X271000Y76489D01*
Y84000D01*
X249000D01*
Y70000D01*
X264511D01*
X268402Y66109D01*
Y62350D01*
X250650D01*
Y56778D01*
X228255D01*
Y74500D01*
X221982D01*
Y89397D01*
X227274D01*
Y98723D01*
X208725D01*
Y89397D01*
X214018D01*
Y74500D01*
X207745D01*
Y47500D01*
X206964Y45823D01*
X204584D01*
X191432Y58975D01*
X192040Y61244D01*
Y63756D01*
X191390Y66182D01*
X190134Y68358D01*
X188358Y70134D01*
X186182Y71390D01*
X183756Y72040D01*
X181244D01*
X178818Y71390D01*
X176642Y70134D01*
X174866Y68358D01*
X173610Y66182D01*
X172960Y63756D01*
Y61244D01*
X173610Y58818D01*
X174866Y56642D01*
X176642Y54866D01*
X178818Y53610D01*
X181244Y52960D01*
X183756D01*
X186025Y53568D01*
X200296Y39296D01*
X201537Y38468D01*
X203000Y38177D01*
X226238D01*
X229785Y34630D01*
X228546Y33040D01*
X226898Y33040D01*
X219270D01*
Y20270D01*
X228795D01*
Y31056D01*
X228795Y32791D01*
X230385Y34030D01*
X251758Y12656D01*
X252999Y11828D01*
X254462Y11537D01*
X468446D01*
X469909Y11828D01*
X471149Y12656D01*
X476200Y17707D01*
X481251Y12656D01*
X482491Y11828D01*
X483954Y11537D01*
X493846D01*
X495309Y11828D01*
X496549Y12656D01*
X504634Y20742D01*
X505621Y21063D01*
X507194Y20759D01*
X508375Y19578D01*
X510575Y18308D01*
X513030Y17650D01*
X515570D01*
X518025Y18308D01*
X518165Y18389D01*
X523467Y13087D01*
X524624Y12313D01*
X525990Y12041D01*
X544542D01*
X545908Y12313D01*
X547066Y13087D01*
X559523Y25545D01*
X560297Y26702D01*
X560569Y28068D01*
Y110909D01*
X562569Y111737D01*
X586154Y88152D01*
Y67203D01*
X583937D01*
Y52797D01*
X586415D01*
Y47773D01*
X585000D01*
Y35773D01*
X596000D01*
Y47773D01*
X594062D01*
Y52797D01*
X596017D01*
Y56177D01*
X607960D01*
Y52960D01*
X627040D01*
Y72040D01*
X607960D01*
Y63823D01*
X596017D01*
Y67203D01*
X593801D01*
Y89736D01*
X593509Y91199D01*
X592681Y92440D01*
X591711Y93409D01*
X592476Y95257D01*
X598603D01*
Y101730D01*
X592023D01*
Y103000D01*
X590753D01*
Y110743D01*
X585443D01*
Y102290D01*
X583595Y101525D01*
X567823Y117297D01*
Y175395D01*
X569671Y176160D01*
X605332Y140500D01*
X604503Y138500D01*
X603906D01*
X601884Y137663D01*
X600337Y136116D01*
X599500Y134094D01*
Y131906D01*
X599767Y131261D01*
X598231Y129743D01*
X596908Y129743D01*
X593293D01*
Y123270D01*
X598603D01*
Y127897D01*
X598603Y127899D01*
X598603Y127899D01*
X598603Y129006D01*
X599348Y129383D01*
X600466Y129593D01*
X600708Y129378D01*
X601937Y128283D01*
Y114797D01*
X614017D01*
Y128986D01*
X615584Y130247D01*
X621217Y124615D01*
Y108904D01*
X621508Y107441D01*
X622336Y106201D01*
X628697Y99840D01*
X629805Y99100D01*
X629805Y96706D01*
X628074Y96059D01*
X618081D01*
X614017Y100123D01*
Y110203D01*
X601937D01*
Y95797D01*
X609691D01*
X614651Y90837D01*
X614651Y90837D01*
X615643Y90174D01*
X616814Y89941D01*
X704481D01*
X704481Y89941D01*
X705652Y90174D01*
X706644Y90837D01*
X710248Y94441D01*
X715927D01*
Y83461D01*
X714887D01*
Y79270D01*
X723142D01*
Y76730D01*
X714887D01*
Y72539D01*
X717082D01*
X718068Y70539D01*
X717714Y70078D01*
X717059Y68497D01*
X716836Y66800D01*
X717059Y65103D01*
X717453Y64153D01*
X717177Y62762D01*
Y47017D01*
X713797D01*
Y34937D01*
X728203D01*
Y47017D01*
X724823D01*
Y60244D01*
X734392D01*
X736089Y60467D01*
X737670Y61122D01*
X739028Y62164D01*
X739847Y63231D01*
X761237D01*
X762056Y62164D01*
X763414Y61122D01*
X764995Y60467D01*
X766692Y60244D01*
X774692D01*
X776389Y60467D01*
X777970Y61122D01*
X779328Y62164D01*
X780370Y63522D01*
X781025Y65103D01*
X781248Y66800D01*
X781025Y68497D01*
X780370Y70078D01*
X779328Y71436D01*
X777970Y72478D01*
X776389Y73133D01*
X774692Y73356D01*
X774261D01*
Y146644D01*
X774692D01*
X776389Y146867D01*
X777970Y147522D01*
X779328Y148564D01*
X780370Y149922D01*
X781025Y151503D01*
X781248Y153200D01*
X781025Y154897D01*
X780580Y155971D01*
X781297Y157045D01*
X781569Y158410D01*
Y170000D01*
X784000D01*
Y181000D01*
X772000D01*
Y170000D01*
X774431D01*
Y159791D01*
X774397Y159756D01*
X766692D01*
X764995Y159533D01*
X763414Y158878D01*
X762056Y157836D01*
X761237Y156769D01*
X739847D01*
X739028Y157836D01*
X737670Y158878D01*
X736089Y159533D01*
X734392Y159756D01*
X723392D01*
X721695Y159533D01*
X720114Y158878D01*
X718756Y157836D01*
X717714Y156478D01*
X717059Y154897D01*
X716836Y153200D01*
X717059Y151503D01*
X717714Y149922D01*
X718068Y149461D01*
X717082Y147461D01*
X714887D01*
Y143270D01*
X723142D01*
Y140730D01*
X714887D01*
Y137982D01*
X701278D01*
X694445Y144815D01*
X693153Y145678D01*
X691629Y145982D01*
X675198D01*
Y147650D01*
X659098D01*
Y136350D01*
X675198D01*
Y138019D01*
X689980D01*
X695190Y132809D01*
X694361Y130809D01*
X689790D01*
X689663Y131116D01*
X688115Y132663D01*
X686094Y133500D01*
X683906D01*
X681885Y132663D01*
X680337Y131116D01*
X679500Y129094D01*
Y126906D01*
X680058Y125559D01*
X679050Y123559D01*
X670890D01*
Y125294D01*
X657111D01*
Y116334D01*
X656571D01*
Y112270D01*
X664000D01*
Y109730D01*
X656571D01*
Y105666D01*
X657111D01*
Y96706D01*
X655379Y96059D01*
X645316D01*
X643585Y96706D01*
X643585Y98059D01*
Y106706D01*
X643696D01*
X645451Y107055D01*
X646940Y108050D01*
X649869Y110979D01*
X650863Y112467D01*
X651213Y114223D01*
Y131323D01*
X650863Y133079D01*
X649869Y134567D01*
X643088Y141348D01*
X651777Y150037D01*
X679625D01*
X681381Y150386D01*
X682869Y151381D01*
X698534Y167046D01*
X699529Y168534D01*
X699878Y170290D01*
Y174000D01*
X700790D01*
Y180557D01*
X700878Y181000D01*
Y192500D01*
X703790D01*
Y209500D01*
X701878D01*
Y265710D01*
X701529Y267466D01*
X700534Y268954D01*
X685184Y284304D01*
X683696Y285299D01*
X682027Y285631D01*
Y286140D01*
X675372D01*
Y289260D01*
X682027D01*
Y298840D01*
X659541D01*
X659541Y298840D01*
X657562Y298892D01*
X656094Y299500D01*
X653906D01*
X651885Y298663D01*
X650337Y297115D01*
X649500Y295094D01*
Y292906D01*
X650337Y290884D01*
X651885Y289337D01*
X653906Y288500D01*
X656094D01*
X657598Y289123D01*
X659541Y289260D01*
X659541Y289260D01*
X659541Y289260D01*
X666196D01*
Y286140D01*
X659541D01*
Y276560D01*
X670631D01*
X671074Y276472D01*
X678786D01*
X679126Y275980D01*
X678076Y273980D01*
X672054D01*
Y269920D01*
X682567D01*
Y271331D01*
X684415Y272097D01*
X692702Y263810D01*
Y209500D01*
X690790D01*
Y192500D01*
X691702D01*
Y186000D01*
X689790D01*
Y174000D01*
X690242D01*
X690511Y172000D01*
X677725Y159213D01*
X649876D01*
X648121Y158864D01*
X646632Y157869D01*
X636501Y147738D01*
X635949D01*
X635506Y147650D01*
X625498D01*
Y142523D01*
X623650Y141757D01*
X594247Y171161D01*
X594751Y173484D01*
X595624Y173846D01*
X597171Y175393D01*
X598008Y177414D01*
Y179602D01*
X597904Y179856D01*
X598000Y180000D01*
X598000D01*
Y192000D01*
X592407D01*
X585943Y198464D01*
Y218171D01*
X591839D01*
Y208725D01*
X602061D01*
Y235264D01*
X591839D01*
Y225818D01*
X585943D01*
Y294973D01*
X585652Y296436D01*
X584823Y297677D01*
X577533Y304967D01*
Y360732D01*
X577242Y362196D01*
X576414Y363436D01*
X545536Y394314D01*
X544296Y395142D01*
X542832Y395433D01*
X451459D01*
X449996Y395142D01*
X448756Y394314D01*
X410266Y355823D01*
X361484D01*
X361090Y357660D01*
X361090D01*
Y363430D01*
X341010D01*
Y357660D01*
X339454Y356588D01*
X334770D01*
Y360540D01*
X318986D01*
X317000Y361535D01*
Y361534D01*
X263636D01*
X262871Y363382D01*
X293244Y393756D01*
X294239Y395244D01*
X294389Y396000D01*
X301046D01*
X304276Y399230D01*
Y438000D01*
X301046Y441230D01*
X300540D01*
Y442230D01*
X290000D01*
Y443500D01*
X288730D01*
Y450540D01*
X279460D01*
Y446288D01*
X278419Y445857D01*
X271795D01*
Y447730D01*
X261000D01*
X250205D01*
Y445857D01*
X244519D01*
X242743Y446397D01*
Y451707D01*
X235000D01*
Y452977D01*
X233730D01*
Y459557D01*
X227533D01*
Y471743D01*
X224197Y475079D01*
X223879Y475397D01*
X222743Y476926D01*
X222743Y477397D01*
Y481707D01*
D02*
G37*
G36*
X479270Y417012D02*
Y412270D01*
X484012D01*
X483120Y414421D01*
X481421Y416120D01*
X479270Y417012D01*
D02*
G37*
G36*
X476730D02*
X474579Y416120D01*
X472879Y414421D01*
X471988Y412270D01*
X476730D01*
Y417012D01*
D02*
G37*
G36*
X484012Y409730D02*
X479270D01*
Y404988D01*
X481421Y405880D01*
X483120Y407579D01*
X484012Y409730D01*
D02*
G37*
G36*
X476730D02*
X471988D01*
X472879Y407579D01*
X474579Y405880D01*
X476730Y404988D01*
Y409730D01*
D02*
G37*
G36*
X54088Y398641D02*
X53970D01*
Y389370D01*
X63241D01*
Y389488D01*
X62523Y392169D01*
X61135Y394572D01*
X59172Y396535D01*
X56769Y397923D01*
X54088Y398641D01*
D02*
G37*
G36*
X28688D02*
X28570D01*
Y389370D01*
X37841D01*
Y389488D01*
X37123Y392169D01*
X35735Y394572D01*
X33772Y396535D01*
X31369Y397923D01*
X28688Y398641D01*
D02*
G37*
G36*
X51430D02*
X51312D01*
X48631Y397923D01*
X46228Y396535D01*
X44265Y394572D01*
X42877Y392169D01*
X42159Y389488D01*
Y389370D01*
X51430D01*
Y398641D01*
D02*
G37*
G36*
X26030D02*
X25912D01*
X23231Y397923D01*
X20828Y396535D01*
X18865Y394572D01*
X17477Y392169D01*
X16759Y389488D01*
Y389370D01*
X26030D01*
Y398641D01*
D02*
G37*
G36*
X335310Y384080D02*
X327540D01*
Y378310D01*
X335310D01*
Y384080D01*
D02*
G37*
G36*
X314310D02*
X306540D01*
Y378310D01*
X314310D01*
Y384080D01*
D02*
G37*
G36*
X325000D02*
X317230D01*
Y378310D01*
X325000D01*
Y384080D01*
D02*
G37*
G36*
X304000D02*
X296230D01*
Y378310D01*
X304000D01*
Y384080D01*
D02*
G37*
G36*
X63241Y386830D02*
X53970D01*
Y377559D01*
X54088D01*
X56769Y378277D01*
X59172Y379665D01*
X61135Y381628D01*
X62523Y384031D01*
X63241Y386712D01*
Y386830D01*
D02*
G37*
G36*
X51430D02*
X42159D01*
Y386712D01*
X42877Y384031D01*
X44265Y381628D01*
X46228Y379665D01*
X48631Y378277D01*
X51312Y377559D01*
X51430D01*
Y386830D01*
D02*
G37*
G36*
X37841D02*
X28570D01*
Y377559D01*
X28688D01*
X31369Y378277D01*
X33772Y379665D01*
X35735Y381628D01*
X37123Y384031D01*
X37841Y386712D01*
Y386830D01*
D02*
G37*
G36*
X26030D02*
X16759D01*
Y386712D01*
X17477Y384031D01*
X18865Y381628D01*
X20828Y379665D01*
X23231Y378277D01*
X25912Y377559D01*
X26030D01*
Y386830D01*
D02*
G37*
G36*
X653950Y594500D02*
X634950D01*
Y575500D01*
X644018D01*
Y517203D01*
X641983D01*
Y502797D01*
X654063D01*
Y517203D01*
X651982D01*
Y575500D01*
X653950D01*
Y577806D01*
X655798Y578572D01*
X668481Y565889D01*
Y517203D01*
X657937D01*
Y502797D01*
X659995D01*
Y492985D01*
X659517D01*
X657232Y492373D01*
X655183Y491190D01*
X653510Y489517D01*
X652327Y487468D01*
X651715Y485183D01*
Y482817D01*
X652327Y480532D01*
X653510Y478483D01*
X655183Y476810D01*
X657232Y475627D01*
X659517Y475015D01*
X661883D01*
X664168Y475627D01*
X664168Y475628D01*
X665396Y474027D01*
X661629Y470260D01*
X643279D01*
X641755Y469957D01*
X640463Y469094D01*
X632369Y461000D01*
X627000D01*
Y449000D01*
X628518D01*
Y439023D01*
X626740Y438488D01*
X626519Y438488D01*
X617160D01*
Y419939D01*
X618018D01*
Y411797D01*
X617337Y411115D01*
X616500Y409094D01*
Y406906D01*
X617337Y404884D01*
X618885Y403337D01*
X620906Y402500D01*
X623094D01*
X625116Y403337D01*
X626663Y404884D01*
X627500Y406906D01*
Y409094D01*
X626663Y411115D01*
X625981Y411797D01*
Y419939D01*
X626740D01*
Y434538D01*
X628740Y434735D01*
X628822Y434324D01*
X629685Y433033D01*
X629860Y432857D01*
Y419939D01*
X633809D01*
X649064Y404685D01*
X650355Y403822D01*
X651879Y403518D01*
X673000D01*
Y402000D01*
X679369D01*
X683369Y398000D01*
X682541Y396000D01*
X673000D01*
Y394482D01*
X619000D01*
X617476Y394178D01*
X616185Y393315D01*
X600115Y377245D01*
X597385D01*
X576159Y398472D01*
X576038Y398838D01*
X576283Y401176D01*
X577190Y402083D01*
X578373Y404132D01*
X578985Y406417D01*
Y408783D01*
X578373Y411068D01*
X577190Y413117D01*
X575517Y414790D01*
X573468Y415973D01*
X571183Y416585D01*
X568817D01*
X566532Y415973D01*
X564483Y414790D01*
X562810Y413117D01*
X561627Y411068D01*
X561015Y408783D01*
Y406417D01*
X561627Y404132D01*
X562810Y402083D01*
X564483Y400410D01*
X566532Y399227D01*
X566889Y399132D01*
Y398130D01*
X567192Y396606D01*
X568055Y395314D01*
X593000Y370369D01*
Y365000D01*
X605000D01*
Y370869D01*
X615312Y381182D01*
X617160Y380416D01*
Y365512D01*
X618168D01*
Y351438D01*
X616169Y350610D01*
X616115Y350663D01*
X614558Y351308D01*
X613444Y352996D01*
Y355184D01*
X612606Y357205D01*
X611059Y358753D01*
X609038Y359590D01*
X606850D01*
X605163Y358891D01*
X605000Y359000D01*
Y359000D01*
X593000D01*
Y348000D01*
X594174D01*
Y341275D01*
X591839D01*
Y314736D01*
X602061D01*
Y328826D01*
X602137Y329211D01*
Y348000D01*
X605000D01*
X605000Y348000D01*
X607406Y347237D01*
X607500Y347094D01*
Y344999D01*
X607177Y344516D01*
X606874Y342993D01*
Y341275D01*
X604539D01*
Y314736D01*
X614761D01*
Y328826D01*
X614837Y329211D01*
Y338905D01*
X615239Y339141D01*
X617239Y337993D01*
Y314736D01*
X627461D01*
Y341275D01*
X626132D01*
Y365512D01*
X626740D01*
Y384061D01*
X622703D01*
X621642Y386061D01*
X621952Y386519D01*
X630668D01*
Y384061D01*
X629860D01*
Y365512D01*
X630868D01*
Y341275D01*
X629939D01*
Y314736D01*
X640161D01*
Y341275D01*
X638831D01*
Y365512D01*
X639440D01*
Y384061D01*
X638632D01*
Y386519D01*
X673000D01*
Y385000D01*
X685000D01*
Y386519D01*
X689000D01*
Y385000D01*
X699001D01*
X700941Y385000D01*
X701521Y384384D01*
X702222Y383453D01*
X701385Y381431D01*
Y379243D01*
X702222Y377222D01*
X703769Y375675D01*
X705790Y374837D01*
X707979D01*
X710000Y375675D01*
X711292Y376966D01*
X713152D01*
X714676Y377269D01*
X715968Y378132D01*
X718199Y380364D01*
X719063Y381656D01*
X719366Y383180D01*
Y383495D01*
X722188D01*
X723285Y383713D01*
X724215Y384335D01*
X724837Y385265D01*
X725055Y386362D01*
Y391237D01*
X724837Y392335D01*
X724380Y393018D01*
X724662Y394067D01*
X725191Y395019D01*
X735462D01*
X735785Y394535D01*
X736715Y393913D01*
X737812Y393695D01*
X738018D01*
Y369797D01*
X737337Y369115D01*
X736500Y367094D01*
Y364906D01*
X737337Y362884D01*
X738885Y361337D01*
X740906Y360500D01*
X743094D01*
X745116Y361337D01*
X746663Y362884D01*
X747500Y364906D01*
Y367094D01*
X746663Y369115D01*
X745982Y369797D01*
Y374050D01*
X747981Y374685D01*
X749080Y373587D01*
X751101Y372750D01*
X753289D01*
X755311Y373587D01*
X755992Y374268D01*
X761350D01*
X761717Y372423D01*
X763001Y370501D01*
X764923Y369217D01*
X767190Y368766D01*
X774810D01*
X777077Y369217D01*
X778999Y370501D01*
X780283Y372423D01*
X780734Y374690D01*
Y382310D01*
X780283Y384577D01*
X778999Y386499D01*
X777077Y387783D01*
X774810Y388234D01*
X767190D01*
X764923Y387783D01*
X763001Y386499D01*
X761717Y384577D01*
X761266Y382310D01*
Y382231D01*
X755992D01*
X755311Y382913D01*
X753289Y383750D01*
X751101D01*
X749080Y382913D01*
X747981Y381815D01*
X745982Y382450D01*
Y393695D01*
X746188D01*
X747285Y393913D01*
X748215Y394535D01*
X748837Y395465D01*
X748947Y396018D01*
X761499D01*
X761717Y394923D01*
X763001Y393001D01*
X764923Y391717D01*
X767190Y391266D01*
X774810D01*
X777077Y391717D01*
X778999Y393001D01*
X780283Y394923D01*
X780734Y397190D01*
Y404810D01*
X780283Y407077D01*
X778999Y408999D01*
X777077Y410283D01*
X774810Y410734D01*
X767190D01*
X764923Y410283D01*
X763001Y408999D01*
X761717Y407077D01*
X761266Y404810D01*
Y403982D01*
X747442D01*
X747285Y404087D01*
X746188Y404305D01*
X737812D01*
X736715Y404087D01*
X735785Y403465D01*
X735462Y402981D01*
X725191D01*
X724662Y403933D01*
X724380Y404981D01*
X724837Y405665D01*
X725055Y406763D01*
Y411637D01*
X724837Y412735D01*
X724215Y413665D01*
X723285Y414287D01*
X722188Y414505D01*
X713812D01*
X713500Y414443D01*
X711768Y415529D01*
X711500Y415880D01*
Y416094D01*
X710663Y418116D01*
X709116Y419663D01*
X707094Y420500D01*
X704906D01*
X702885Y419663D01*
X702648Y419426D01*
X695677D01*
X695338Y419359D01*
X695000Y419426D01*
X666628D01*
X664840Y419939D01*
Y438488D01*
X657039D01*
X656084Y438488D01*
X655620Y438944D01*
X654841Y440314D01*
X655500Y441906D01*
Y444094D01*
X654663Y446115D01*
X653778Y447000D01*
X654198Y449000D01*
X655000D01*
Y461000D01*
X656463Y462297D01*
X663279D01*
X664802Y462600D01*
X666094Y463463D01*
X675277Y472647D01*
X676140Y473938D01*
X676443Y475462D01*
Y567538D01*
X676140Y569062D01*
X675277Y570353D01*
X658249Y587382D01*
X656957Y588245D01*
X655433Y588548D01*
X653950D01*
Y594500D01*
D02*
G37*
G36*
X335310Y375770D02*
X327540D01*
Y370000D01*
X335310D01*
Y375770D01*
D02*
G37*
G36*
X325000D02*
X317230D01*
Y370000D01*
X325000D01*
Y375770D01*
D02*
G37*
G36*
X314310D02*
X306540D01*
Y370000D01*
X314310D01*
Y375770D01*
D02*
G37*
G36*
X304000D02*
X296230D01*
Y370000D01*
X304000D01*
Y375770D01*
D02*
G37*
G36*
X361090Y371740D02*
X352320D01*
Y365970D01*
X361090D01*
Y371740D01*
D02*
G37*
G36*
X349780D02*
X341010D01*
Y365970D01*
X349780D01*
Y371740D01*
D02*
G37*
G36*
X664840Y384061D02*
X655260D01*
Y365512D01*
X656068D01*
Y363560D01*
X655305Y363088D01*
X653305Y364202D01*
Y364289D01*
X652468Y366311D01*
X652140Y366638D01*
Y384061D01*
X642560D01*
Y365512D01*
X642560D01*
X642715Y365280D01*
X642305Y364289D01*
Y362101D01*
X643142Y360079D01*
X643823Y359398D01*
Y354195D01*
X644127Y352671D01*
X644990Y351380D01*
X659554Y336815D01*
X660846Y335952D01*
X662370Y335649D01*
X733669D01*
Y315163D01*
X733972Y313639D01*
X734835Y312348D01*
X753973Y293209D01*
Y289260D01*
X761235D01*
Y286140D01*
X753973D01*
Y282191D01*
X720895Y249112D01*
X720032Y247821D01*
X719728Y246297D01*
Y209500D01*
X717210D01*
Y192500D01*
X720729D01*
Y186000D01*
X720210D01*
Y174000D01*
X731210D01*
Y186000D01*
X728691D01*
Y192500D01*
X730210D01*
Y209500D01*
X727691D01*
Y244648D01*
X752125Y269082D01*
X753973Y268316D01*
Y263860D01*
X761235D01*
Y260740D01*
X753973D01*
Y256791D01*
X748713Y251530D01*
X747850Y250239D01*
X747546Y248715D01*
Y237785D01*
X747850Y236261D01*
X748713Y234970D01*
X753973Y229709D01*
Y225760D01*
X761235D01*
Y223155D01*
X747579Y209500D01*
X740210D01*
Y198131D01*
X739895Y197815D01*
X739032Y196524D01*
X738728Y195000D01*
Y186000D01*
X737210D01*
Y174000D01*
X748210D01*
Y186000D01*
X746692D01*
Y192500D01*
X753210D01*
Y203869D01*
X768031Y218691D01*
X768894Y219982D01*
X769197Y221506D01*
Y225760D01*
X776459D01*
Y235340D01*
X759672D01*
X758579Y236674D01*
X759348Y238460D01*
X776459D01*
Y248040D01*
X759348D01*
X758579Y249826D01*
X759672Y251160D01*
X776459D01*
Y260740D01*
X769197D01*
Y263860D01*
X776459D01*
Y267809D01*
X781719Y273070D01*
X782582Y274361D01*
X782886Y275885D01*
Y299515D01*
X782582Y301039D01*
X781719Y302330D01*
X776459Y307591D01*
Y311540D01*
X769197D01*
Y314660D01*
X776459D01*
Y324240D01*
X764716D01*
X764331Y324316D01*
X759527D01*
X755592Y328252D01*
Y331814D01*
X755663Y331884D01*
X756500Y333906D01*
Y336094D01*
X755663Y338116D01*
X754116Y339663D01*
X752094Y340500D01*
X749906D01*
X747885Y339663D01*
X746337Y338116D01*
X745500Y336094D01*
Y333906D01*
X746337Y331884D01*
X747629Y330593D01*
Y326603D01*
X747932Y325079D01*
X748795Y323787D01*
X753973Y318609D01*
Y314660D01*
X761235D01*
Y311540D01*
X753973D01*
Y307084D01*
X752125Y306318D01*
X741631Y316812D01*
Y337981D01*
X755669Y352019D01*
X761300D01*
X761717Y349923D01*
X763001Y348001D01*
X764923Y346717D01*
X767190Y346266D01*
X774810D01*
X777077Y346717D01*
X778999Y348001D01*
X780283Y349923D01*
X780734Y352190D01*
Y359810D01*
X780283Y362077D01*
X778999Y363999D01*
X777077Y365283D01*
X774810Y365734D01*
X767190D01*
X764923Y365283D01*
X763001Y363999D01*
X761717Y362077D01*
X761300Y359981D01*
X754020D01*
X752496Y359678D01*
X751204Y358815D01*
X736001Y343612D01*
X664019D01*
X658131Y349500D01*
X658959Y351500D01*
X659094D01*
X661115Y352337D01*
X662663Y353885D01*
X663500Y355906D01*
Y357184D01*
X663728Y357526D01*
X664032Y359050D01*
Y365512D01*
X664840D01*
Y384061D01*
D02*
G37*
G36*
X483270Y367012D02*
Y362270D01*
X488012D01*
X487121Y364421D01*
X485421Y366120D01*
X483270Y367012D01*
D02*
G37*
G36*
X480730D02*
X478579Y366120D01*
X476880Y364421D01*
X475988Y362270D01*
X480730D01*
Y367012D01*
D02*
G37*
G36*
X488012Y359730D02*
X483270D01*
Y354988D01*
X485421Y355880D01*
X487121Y357579D01*
X488012Y359730D01*
D02*
G37*
G36*
X480730D02*
X475988D01*
X476880Y357579D01*
X478579Y355880D01*
X480730Y354988D01*
Y359730D01*
D02*
G37*
G36*
X442540Y326540D02*
X437270D01*
Y321270D01*
X442540D01*
Y326540D01*
D02*
G37*
G36*
X682567Y324780D02*
X672054D01*
Y320720D01*
X682567D01*
Y324780D01*
D02*
G37*
G36*
X669514D02*
X659001D01*
Y320720D01*
X669514D01*
Y324780D01*
D02*
G37*
G36*
X682567Y318180D02*
X672054D01*
Y314120D01*
X682567D01*
Y318180D01*
D02*
G37*
G36*
X669514D02*
X659001D01*
Y314120D01*
X669514D01*
Y318180D01*
D02*
G37*
G36*
X682567Y312080D02*
X672054D01*
Y308020D01*
X682567D01*
Y312080D01*
D02*
G37*
G36*
X669514D02*
X659001D01*
Y308020D01*
X669514D01*
Y312080D01*
D02*
G37*
G36*
X682567Y305480D02*
X672054D01*
Y301420D01*
X682567D01*
Y305480D01*
D02*
G37*
G36*
X669514D02*
X659001D01*
Y301420D01*
X669514D01*
Y305480D01*
D02*
G37*
G36*
X442540Y293730D02*
X437270D01*
Y288460D01*
X442540D01*
Y293730D01*
D02*
G37*
G36*
X409730D02*
X404460D01*
Y288460D01*
X409730D01*
Y293730D01*
D02*
G37*
G36*
X18730Y279540D02*
X13460D01*
Y274270D01*
X18730D01*
Y279540D01*
D02*
G37*
G36*
X669514Y273980D02*
X659001D01*
Y269920D01*
X669514D01*
Y273980D01*
D02*
G37*
G36*
X18730Y271730D02*
X13460D01*
Y266460D01*
X18730D01*
Y271730D01*
D02*
G37*
G36*
X682567Y267380D02*
X672054D01*
Y263320D01*
X682567D01*
Y267380D01*
D02*
G37*
G36*
X669514D02*
X659001D01*
Y263320D01*
X669514D01*
Y267380D01*
D02*
G37*
G36*
X682567Y261280D02*
X672054D01*
Y257220D01*
X682567D01*
Y261280D01*
D02*
G37*
G36*
X669514D02*
X659001D01*
Y257220D01*
X669514D01*
Y261280D01*
D02*
G37*
G36*
X682567Y254680D02*
X672054D01*
Y250620D01*
X682567D01*
Y254680D01*
D02*
G37*
G36*
X669514D02*
X659001D01*
Y250620D01*
X669514D01*
Y254680D01*
D02*
G37*
G36*
X18730Y254540D02*
X13460D01*
Y249270D01*
X18730D01*
Y254540D01*
D02*
G37*
G36*
X682567Y248580D02*
X672054D01*
Y244520D01*
X682567D01*
Y248580D01*
D02*
G37*
G36*
X669514D02*
X659001D01*
Y244520D01*
X669514D01*
Y248580D01*
D02*
G37*
G36*
X18730Y246730D02*
X13460D01*
Y241460D01*
X18730D01*
Y246730D01*
D02*
G37*
G36*
X682567Y241980D02*
X672054D01*
Y237920D01*
X682567D01*
Y241980D01*
D02*
G37*
G36*
X669514D02*
X659001D01*
Y237920D01*
X669514D01*
Y241980D01*
D02*
G37*
G36*
X682567Y235880D02*
X672054D01*
Y231820D01*
X682567D01*
Y235880D01*
D02*
G37*
G36*
X669514D02*
X659001D01*
Y231820D01*
X669514D01*
Y235880D01*
D02*
G37*
G36*
X682567Y229280D02*
X672054D01*
Y225220D01*
X682567D01*
Y229280D01*
D02*
G37*
G36*
X669514D02*
X659001D01*
Y225220D01*
X669514D01*
Y229280D01*
D02*
G37*
G36*
X18730Y229540D02*
X13460D01*
Y224270D01*
X18730D01*
Y229540D01*
D02*
G37*
G36*
X640701Y235804D02*
X636320D01*
Y223265D01*
X640701D01*
Y235804D01*
D02*
G37*
G36*
X18730Y221730D02*
X13460D01*
Y216460D01*
X18730D01*
Y221730D01*
D02*
G37*
G36*
X610094Y245500D02*
X607906D01*
X605885Y244663D01*
X604337Y243116D01*
X603500Y241094D01*
Y238906D01*
X604233Y237137D01*
X604539Y235264D01*
X604539Y235264D01*
X604539Y235264D01*
Y208725D01*
X614761D01*
Y235264D01*
X614761D01*
X613959Y236932D01*
X613820Y237264D01*
X614500Y238906D01*
Y241094D01*
X613663Y243116D01*
X612116Y244663D01*
X610094Y245500D01*
D02*
G37*
G36*
X640701Y220725D02*
X636320D01*
Y208185D01*
X640701D01*
Y220725D01*
D02*
G37*
G36*
X623094Y245500D02*
X620906D01*
X618885Y244663D01*
X617337Y243116D01*
X616500Y241094D01*
Y238906D01*
X617189Y237243D01*
X617239Y235264D01*
X617239Y235264D01*
X617239Y235264D01*
Y208725D01*
X627399D01*
X627461Y208725D01*
X629399Y208577D01*
Y208185D01*
X633780D01*
Y221995D01*
Y235804D01*
X629399D01*
Y235413D01*
X627461Y235264D01*
X626820Y237264D01*
X627500Y238906D01*
Y241094D01*
X626663Y243116D01*
X625116Y244663D01*
X623094Y245500D01*
D02*
G37*
G36*
X681330Y210040D02*
X675560D01*
Y202270D01*
X681330D01*
Y210040D01*
D02*
G37*
G36*
X673020D02*
X667250D01*
Y202270D01*
X673020D01*
Y210040D01*
D02*
G37*
G36*
X784540Y198540D02*
X779270D01*
Y193770D01*
X784540D01*
Y198540D01*
D02*
G37*
G36*
X776730D02*
X771460D01*
Y193770D01*
X776730D01*
Y198540D01*
D02*
G37*
G36*
X681330Y199730D02*
X675560D01*
Y191960D01*
X681330D01*
Y199730D01*
D02*
G37*
G36*
X673020D02*
X667250D01*
Y191960D01*
X673020D01*
Y199730D01*
D02*
G37*
G36*
X615540Y192540D02*
X610770D01*
Y187270D01*
X615540D01*
Y192540D01*
D02*
G37*
G36*
X608230D02*
X603460D01*
Y187270D01*
X608230D01*
Y192540D01*
D02*
G37*
G36*
X784540Y191230D02*
X779270D01*
Y186460D01*
X784540D01*
Y191230D01*
D02*
G37*
G36*
X776730D02*
X771460D01*
Y186460D01*
X776730D01*
Y191230D01*
D02*
G37*
G36*
X684330Y186540D02*
X679560D01*
Y181270D01*
X684330D01*
Y186540D01*
D02*
G37*
G36*
X677020D02*
X672250D01*
Y181270D01*
X677020D01*
Y186540D01*
D02*
G37*
G36*
X615540Y184730D02*
X610770D01*
Y179460D01*
X615540D01*
Y184730D01*
D02*
G37*
G36*
X608230D02*
X603460D01*
Y179460D01*
X608230D01*
Y184730D01*
D02*
G37*
G36*
X684330Y178730D02*
X679560D01*
Y173460D01*
X684330D01*
Y178730D01*
D02*
G37*
G36*
X677020D02*
X672250D01*
Y173460D01*
X677020D01*
Y178730D01*
D02*
G37*
G36*
X27472Y166040D02*
X22202D01*
Y160770D01*
X27472D01*
Y166040D01*
D02*
G37*
G36*
X19662D02*
X14392D01*
Y160770D01*
X19662D01*
Y166040D01*
D02*
G37*
G36*
X27472Y158230D02*
X22202D01*
Y152960D01*
X27472D01*
Y158230D01*
D02*
G37*
G36*
X19662D02*
X14392D01*
Y152960D01*
X19662D01*
Y158230D01*
D02*
G37*
G36*
X44540Y128540D02*
X39270D01*
Y123770D01*
X44540D01*
Y128540D01*
D02*
G37*
G36*
X36730D02*
X31460D01*
Y123770D01*
X36730D01*
Y128540D01*
D02*
G37*
G36*
X590753Y129743D02*
X585443D01*
Y123270D01*
X590753D01*
Y129743D01*
D02*
G37*
G36*
X44540Y121230D02*
X39270D01*
Y116460D01*
X44540D01*
Y121230D01*
D02*
G37*
G36*
X36730D02*
X31460D01*
Y116460D01*
X36730D01*
Y121230D01*
D02*
G37*
G36*
X26932Y148500D02*
X14932D01*
Y136500D01*
X17397D01*
Y128017D01*
X13797D01*
Y115937D01*
X28203D01*
Y128017D01*
X24534D01*
Y136500D01*
X26932D01*
Y148500D01*
D02*
G37*
G36*
X598603Y120730D02*
X593293D01*
Y114257D01*
X598603D01*
Y120730D01*
D02*
G37*
G36*
X590753D02*
X585443D01*
Y114257D01*
X590753D01*
Y120730D01*
D02*
G37*
G36*
X598603Y110743D02*
X593293D01*
Y104270D01*
X598603D01*
Y110743D01*
D02*
G37*
G36*
X173388Y99263D02*
X164843D01*
Y95330D01*
X173388D01*
Y99263D01*
D02*
G37*
G36*
Y92790D02*
X164843D01*
Y88857D01*
X173388D01*
Y92790D01*
D02*
G37*
G36*
X605270Y89012D02*
Y84270D01*
X610012D01*
X609120Y86421D01*
X607421Y88120D01*
X605270Y89012D01*
D02*
G37*
G36*
X602730D02*
X600579Y88120D01*
X598880Y86421D01*
X597988Y84270D01*
X602730D01*
Y89012D01*
D02*
G37*
G36*
X610012Y81730D02*
X605270D01*
Y76988D01*
X607421Y77880D01*
X609120Y79579D01*
X610012Y81730D01*
D02*
G37*
G36*
X602730D02*
X597988D01*
X598880Y79579D01*
X600579Y77880D01*
X602730Y76988D01*
Y81730D01*
D02*
G37*
G36*
X575094Y83500D02*
X572906D01*
X570885Y82663D01*
X569337Y81116D01*
X568500Y79094D01*
Y76906D01*
X569337Y74885D01*
X570200Y74022D01*
Y67203D01*
X567983D01*
Y52797D01*
X580063D01*
Y67203D01*
X577846D01*
Y74068D01*
X578663Y74885D01*
X579500Y76906D01*
Y79094D01*
X578663Y81116D01*
X577116Y82663D01*
X575094Y83500D01*
D02*
G37*
G36*
X127040Y72040D02*
X107960D01*
Y58007D01*
X102022Y52069D01*
X94000D01*
Y54000D01*
X82000D01*
Y43000D01*
X94000D01*
Y44931D01*
X103500D01*
X104866Y45203D01*
X106023Y45977D01*
X113007Y52960D01*
X127040D01*
Y72040D01*
D02*
G37*
G36*
X579540Y48313D02*
X574770D01*
Y43043D01*
X579540D01*
Y48313D01*
D02*
G37*
G36*
X572230D02*
X567460D01*
Y43043D01*
X572230D01*
Y48313D01*
D02*
G37*
G36*
X579540Y40504D02*
X574770D01*
Y35234D01*
X579540D01*
Y40504D01*
D02*
G37*
G36*
X572230D02*
X567460D01*
Y35234D01*
X572230D01*
Y40504D01*
D02*
G37*
G36*
X94540Y37540D02*
X89270D01*
Y32770D01*
X94540D01*
Y37540D01*
D02*
G37*
G36*
X86730D02*
X81460D01*
Y32770D01*
X86730D01*
Y37540D01*
D02*
G37*
G36*
X728743Y31603D02*
X722270D01*
Y26293D01*
X728743D01*
Y31603D01*
D02*
G37*
G36*
X719730D02*
X713257D01*
Y26293D01*
X719730D01*
Y31603D01*
D02*
G37*
G36*
X94540Y30230D02*
X89270D01*
Y25460D01*
X94540D01*
Y30230D01*
D02*
G37*
G36*
X86730D02*
X81460D01*
Y25460D01*
X86730D01*
Y30230D01*
D02*
G37*
G36*
X579540Y28540D02*
X574770D01*
Y23270D01*
X579540D01*
Y28540D01*
D02*
G37*
G36*
X572230D02*
X567460D01*
Y23270D01*
X572230D01*
Y28540D01*
D02*
G37*
G36*
X216730Y33040D02*
X207205D01*
Y20270D01*
X216730D01*
Y33040D01*
D02*
G37*
G36*
X683827Y27580D02*
X683770D01*
Y18770D01*
X692580D01*
Y18827D01*
X691893Y21391D01*
X690566Y23689D01*
X688689Y25566D01*
X686391Y26893D01*
X683827Y27580D01*
D02*
G37*
G36*
X681230D02*
X681173D01*
X678609Y26893D01*
X676311Y25566D01*
X674434Y23689D01*
X673107Y21391D01*
X672420Y18827D01*
Y18770D01*
X681230D01*
Y27580D01*
D02*
G37*
G36*
X728743Y23753D02*
X722270D01*
Y18443D01*
X728743D01*
Y23753D01*
D02*
G37*
G36*
X719730D02*
X713257D01*
Y18443D01*
X719730D01*
Y23753D01*
D02*
G37*
G36*
X766674Y52000D02*
X763326D01*
X760041Y51347D01*
X756947Y50065D01*
X754163Y48205D01*
X751795Y45837D01*
X749935Y43053D01*
X748653Y39959D01*
X748000Y36674D01*
Y33326D01*
X748653Y30041D01*
X749935Y26948D01*
X751795Y24163D01*
X754163Y21795D01*
X756947Y19935D01*
X760041Y18653D01*
X763326Y18000D01*
X766674D01*
X769959Y18653D01*
X773053Y19935D01*
X775837Y21795D01*
X778205Y24163D01*
X780065Y26948D01*
X781347Y30041D01*
X782000Y33326D01*
Y36674D01*
X781347Y39959D01*
X780065Y43053D01*
X778205Y45837D01*
X775837Y48205D01*
X773053Y50065D01*
X769959Y51347D01*
X766674Y52000D01*
D02*
G37*
G36*
X36674D02*
X33326D01*
X30041Y51347D01*
X26948Y50065D01*
X24163Y48205D01*
X21795Y45837D01*
X19935Y43053D01*
X18653Y39959D01*
X18000Y36674D01*
Y33326D01*
X18653Y30041D01*
X19935Y26948D01*
X21795Y24163D01*
X24163Y21795D01*
X26948Y19935D01*
X30041Y18653D01*
X33326Y18000D01*
X36674D01*
X39959Y18653D01*
X43053Y19935D01*
X45837Y21795D01*
X48205Y24163D01*
X50065Y26948D01*
X51347Y30041D01*
X52000Y33326D01*
Y36674D01*
X51347Y39959D01*
X50065Y43053D01*
X48205Y45837D01*
X45837Y48205D01*
X43053Y50065D01*
X39959Y51347D01*
X36674Y52000D01*
D02*
G37*
G36*
X579540Y20730D02*
X574770D01*
Y15460D01*
X579540D01*
Y20730D01*
D02*
G37*
G36*
X572230D02*
X567460D01*
Y15460D01*
X572230D01*
Y20730D01*
D02*
G37*
%LPD*%
G36*
X173750Y330000D02*
X181750D01*
Y310830D01*
X181223D01*
Y300170D01*
X181750D01*
Y300000D01*
X229250D01*
X245750Y283500D01*
Y281040D01*
X242770D01*
Y272000D01*
X241500D01*
Y270730D01*
X234460D01*
Y262960D01*
X234460D01*
Y262040D01*
X234460D01*
Y254270D01*
X241500D01*
Y253000D01*
X242770D01*
Y242785D01*
X243132Y241975D01*
X242361Y241000D01*
X228750Y241000D01*
X226588Y243162D01*
Y267500D01*
X226239Y269256D01*
X225750Y269988D01*
Y272000D01*
X215750Y282000D01*
X180750D01*
X168750Y294000D01*
Y331000D01*
X153750D01*
Y358000D01*
X173750D01*
Y330000D01*
D02*
G37*
G36*
X686761Y115406D02*
X687599Y113385D01*
X689146Y111837D01*
X691167Y111000D01*
X691607D01*
X692436Y109000D01*
X687994Y104559D01*
X682929D01*
X682101Y106559D01*
X683120Y107579D01*
X684012Y109730D01*
X678000D01*
Y112270D01*
X684012D01*
X683120Y114421D01*
X682101Y115441D01*
X682929Y117441D01*
X686761D01*
Y115406D01*
D02*
G37*
%LPC*%
G36*
X171540Y354040D02*
X165770D01*
Y346270D01*
X171540D01*
Y354040D01*
D02*
G37*
G36*
X163230D02*
X157460D01*
Y346270D01*
X163230D01*
Y354040D01*
D02*
G37*
G36*
X171540Y343730D02*
X165770D01*
Y335960D01*
X171540D01*
Y343730D01*
D02*
G37*
G36*
X163230D02*
X157460D01*
Y335960D01*
X163230D01*
Y343730D01*
D02*
G37*
G36*
X206730Y297012D02*
X204579Y296120D01*
X204500Y296042D01*
X204421Y296120D01*
X202270Y297012D01*
Y291000D01*
Y284988D01*
X204421Y285879D01*
X204500Y285958D01*
X204579Y285879D01*
X206730Y284988D01*
Y291000D01*
Y297012D01*
D02*
G37*
G36*
X199730D02*
X197579Y296120D01*
X197500Y296042D01*
X197421Y296120D01*
X195270Y297012D01*
Y291000D01*
Y284988D01*
X197421Y285879D01*
X197500Y285958D01*
X197579Y285879D01*
X199730Y284988D01*
Y291000D01*
Y297012D01*
D02*
G37*
G36*
X209270D02*
Y292270D01*
X214012D01*
X213120Y294421D01*
X211421Y296120D01*
X209270Y297012D01*
D02*
G37*
G36*
X192730D02*
X190579Y296120D01*
X188880Y294421D01*
X187988Y292270D01*
X192730D01*
Y297012D01*
D02*
G37*
G36*
X214012Y289730D02*
X209270D01*
Y284988D01*
X211421Y285879D01*
X213120Y287579D01*
X214012Y289730D01*
D02*
G37*
G36*
X192730D02*
X187988D01*
X188880Y287579D01*
X190579Y285879D01*
X192730Y284988D01*
Y289730D01*
D02*
G37*
G36*
X240230Y281040D02*
X234460D01*
Y273270D01*
X240230D01*
Y281040D01*
D02*
G37*
G36*
Y251730D02*
X234460D01*
Y243960D01*
X240230D01*
Y251730D01*
D02*
G37*
%LPD*%
D10*
X605000Y124977D02*
Y133000D01*
Y124977D02*
X607977Y122000D01*
X698000Y100040D02*
X704580D01*
X707500Y102960D01*
X707264Y112580D02*
X707344Y112500D01*
X723142Y107500D02*
X733500D01*
X696181Y112580D02*
X707264D01*
X689261Y101500D02*
X695261Y107500D01*
X692261Y116500D02*
X696181Y112580D01*
X695261Y107500D02*
X723142D01*
X607977Y101837D02*
X616814Y93000D01*
X704481D02*
X708981Y97500D01*
X616814Y93000D02*
X704481D01*
X707500Y102960D02*
X722682D01*
X685250Y127750D02*
X722892D01*
X723142Y127500D01*
X685000Y128000D02*
X685250Y127750D01*
X664000Y120500D02*
X688261D01*
X692261Y116500D01*
X722682Y102960D02*
X723142Y102500D01*
X707344Y112500D02*
X723142D01*
X708981Y97500D02*
X723142D01*
X733500Y107500D02*
X736000Y110000D01*
Y115000D01*
X733500Y117500D02*
X736000Y115000D01*
X723142Y117500D02*
X733500D01*
X730323Y87436D02*
X740540Y97653D01*
X730323Y132564D02*
X740540Y122347D01*
Y97653D02*
Y122347D01*
X723142Y134000D02*
X724578Y132564D01*
X730323D01*
X724578Y87436D02*
X730323D01*
X723142Y86000D02*
X724578Y87436D01*
X607977Y101837D02*
Y103000D01*
X664000Y101500D02*
X689261D01*
D14*
X97000Y445755D02*
Y449000D01*
Y445755D02*
X118255Y424500D01*
X121000D01*
X122000Y423500D01*
X115023Y310686D02*
Y325000D01*
X109460Y305123D02*
X115023Y310686D01*
X109460Y292877D02*
Y305123D01*
X146500Y245497D02*
X146790Y245788D01*
Y264290D01*
X109460Y292877D02*
X118377Y283960D01*
X175960D02*
X181000Y289000D01*
X118377Y283960D02*
X175960D01*
X411000Y307500D02*
X423500D01*
X436000D01*
X411000D02*
Y320000D01*
X423500Y307500D02*
Y320000D01*
X436000Y307500D02*
Y320000D01*
X411000Y295000D02*
Y307500D01*
X423500Y295000D02*
Y307500D01*
X436000Y295000D02*
Y307500D01*
X106977Y235000D02*
X108000Y233977D01*
X99000Y235000D02*
X106977D01*
X148500Y264000D02*
X157000D01*
X188461Y305210D02*
X188752Y305500D01*
X179210Y305210D02*
X188461D01*
X179000Y305000D02*
X179210Y305210D01*
X242500Y203000D02*
Y222000D01*
Y203000D02*
X242500Y203000D01*
X257000D01*
X213110Y406950D02*
X228000D01*
X260950D02*
X261000Y407000D01*
X228000Y406950D02*
X260950D01*
X227954Y385500D02*
Y406904D01*
X228000Y406950D01*
X261000Y407000D02*
X266500Y412500D01*
X290000D01*
X187500Y324790D02*
X187790Y324500D01*
X188752D01*
X151000Y315000D02*
X161248D01*
X187500Y324790D02*
Y332000D01*
Y345000D01*
X188041Y346000D02*
X239000D01*
X290000Y397000D01*
Y412500D01*
X280611Y206611D02*
Y257611D01*
X265460Y191460D02*
X280611Y206611D01*
Y257611D02*
X305270Y282270D01*
X307270Y352040D02*
X312159D01*
X306270Y353040D02*
X307270Y352040D01*
X305270D02*
X306270Y353040D01*
X213080Y276420D02*
X222000Y267500D01*
X126000Y276420D02*
X213080D01*
X326270Y336977D02*
Y354040D01*
X277500Y321500D02*
X284000Y328000D01*
X264500Y311500D02*
X274500Y321500D01*
X277500D01*
X655000Y294000D02*
X655050Y294050D01*
X670784D01*
X127500Y245497D02*
Y262000D01*
X54400Y339000D02*
X115023D01*
X635949Y143150D02*
X638401D01*
X681940Y281060D02*
X697290Y265710D01*
Y201000D02*
Y265710D01*
X671074Y281060D02*
X681940D01*
X670784Y281350D02*
X671074Y281060D01*
X634122Y142574D02*
X635373D01*
X649876Y154625D02*
X679625D01*
X638401Y143150D02*
X649876Y154625D01*
X635373Y142574D02*
X635949Y143150D01*
X635998Y140850D02*
X637098D01*
X633548Y142000D02*
X634122Y142574D01*
X637098Y140850D02*
X646625Y131323D01*
X636695Y111000D02*
X636989Y111294D01*
X643696D02*
X646625Y114223D01*
Y131323D01*
X636989Y111294D02*
X643696D01*
X695290Y170290D02*
Y180000D01*
X679625Y154625D02*
X695290Y170290D01*
X670784Y281350D02*
Y294050D01*
X138000Y422977D02*
X139163D01*
X142490Y419650D01*
X158890D01*
X159640Y420400D01*
X164958D01*
X177023Y432465D01*
Y462000D01*
X305270Y282270D02*
Y352040D01*
X229040Y191460D02*
X265460D01*
X219500Y201000D02*
X229040Y191460D01*
X219500Y201000D02*
Y203000D01*
X418475Y67525D02*
Y74500D01*
Y67525D02*
X425390Y60610D01*
Y39990D02*
Y60610D01*
X415975Y77000D02*
X418475Y74500D01*
X412000Y77000D02*
X415975D01*
X387300Y27300D02*
X399990Y39990D01*
Y57956D01*
X393167Y64780D02*
X399990Y57956D01*
X393167Y64780D02*
Y74500D01*
X390667Y77000D02*
X393167Y74500D01*
X386667Y77000D02*
X390667D01*
X361900Y27300D02*
X374590Y39990D01*
Y57956D01*
X367833Y64713D02*
X374590Y57956D01*
X367833Y64713D02*
Y74500D01*
X365333Y77000D02*
X367833Y74500D01*
X361333Y77000D02*
X365333D01*
X336500Y27300D02*
X349190Y39990D01*
Y57956D01*
X342500Y64646D02*
X349190Y57956D01*
X342500Y64646D02*
Y74500D01*
X340000Y77000D02*
X342500Y74500D01*
X336000Y77000D02*
X340000D01*
X311100Y27300D02*
X323790Y39990D01*
Y57956D01*
X317167Y64580D02*
X323790Y57956D01*
X317167Y64580D02*
Y74500D01*
X314667Y77000D02*
X317167Y74500D01*
X310667Y77000D02*
X314667D01*
X285700Y27300D02*
X298390Y39990D01*
Y57956D01*
X291833Y64513D02*
X298390Y57956D01*
X291833Y64513D02*
Y74500D01*
X289333Y77000D02*
X291833Y74500D01*
X285333Y77000D02*
X289333D01*
X260300Y27300D02*
X272990Y39990D01*
Y68010D01*
X264000Y77000D02*
X272990Y68010D01*
X260000Y77000D02*
X264000D01*
X412700Y27300D02*
X425390Y39990D01*
X20966Y122011D02*
X21000Y121977D01*
X20932Y142500D02*
X20966Y142466D01*
X264500Y272000D02*
Y311500D01*
X101920Y289754D02*
Y290595D01*
Y289754D02*
X115254Y276420D01*
X126000Y264500D02*
Y276420D01*
X115254D02*
X126000D01*
X98000Y294515D02*
X101920Y290595D01*
X125500Y264000D02*
X126000Y264500D01*
X125500Y264000D02*
X127500Y262000D01*
X222000Y240000D02*
X228000Y234000D01*
X247500D02*
X264500Y251000D01*
X228000Y234000D02*
X247500D01*
X222000Y240000D02*
Y267500D01*
X264500Y253000D02*
Y272000D01*
X322230Y352000D02*
X324270Y354040D01*
X312199Y352000D02*
X322230D01*
X324270Y354040D02*
X326270D01*
X312159Y352040D02*
X312199Y352000D01*
X333199Y352000D02*
X351050D01*
X328270Y352040D02*
X333159D01*
X333199Y352000D01*
X326270Y354040D02*
X328270Y352040D01*
X72045Y223000D02*
X80000D01*
X71977Y223068D02*
X72045Y223000D01*
X97050Y406950D02*
X158890D01*
X71977Y248068D02*
X126615D01*
X219500Y203000D02*
Y222000D01*
X219384Y222117D02*
X219500Y222000D01*
X188116Y222117D02*
X219384D01*
X188000Y222233D02*
X188116Y222117D01*
X183146Y222233D02*
X188000D01*
X179451Y218538D02*
X183146Y222233D01*
X179451Y211614D02*
Y218538D01*
X171000Y203163D02*
X179451Y211614D01*
X98000Y294515D02*
Y336768D01*
X27300Y337300D02*
X52700D01*
X54400Y339000D01*
X120500Y305500D02*
X161248D01*
X117000Y296000D02*
Y302000D01*
X120000Y293000D02*
X125500D01*
X117000Y296000D02*
X120000Y293000D01*
X117000Y302000D02*
X120500Y305500D01*
X159050Y324500D02*
X161248D01*
X158550Y325000D02*
X159050Y324500D01*
X130977Y325000D02*
X158550D01*
X130977D02*
Y339000D01*
X142500Y293000D02*
X153000D01*
X200000Y315000D02*
X218000D01*
X188752D02*
X200000D01*
X70700Y362700D02*
X97000Y389000D01*
X233837Y437023D02*
X235000D01*
X229164Y432350D02*
X233837Y437023D01*
X213110Y432350D02*
X229164D01*
X213110Y445050D02*
Y462000D01*
X192977D02*
X211000D01*
X213110D02*
Y465483D01*
X214650Y467023D02*
X215000D01*
X213110Y465483D02*
X214650Y467023D01*
X212360Y418900D02*
X213110Y419650D01*
X207042Y418900D02*
X212360D01*
X194000Y405858D02*
X207042Y418900D01*
X194000Y385500D02*
Y405858D01*
Y385500D02*
X212000D01*
X193738Y368761D02*
X194000Y368500D01*
X176262Y368761D02*
X193738D01*
X176000Y369023D02*
X176262Y368761D01*
X175000Y385977D02*
X176000Y384977D01*
X175000Y385977D02*
Y395230D01*
X163280Y406950D02*
X175000Y395230D01*
X158890Y406950D02*
X163280D01*
X97000Y407000D02*
X97050Y406950D01*
X97000Y389000D02*
Y407000D01*
X52700Y362700D02*
X70700D01*
X27300D02*
X52700D01*
X218000Y182960D02*
X330040D01*
X408000Y105000D01*
X218000Y170260D02*
X317407D01*
X382667Y105000D01*
X218000Y157560D02*
X304773D01*
X357333Y105000D01*
X292140Y144860D02*
X332000Y105000D01*
X218000Y144860D02*
X292140D01*
X279507Y132160D02*
X306667Y105000D01*
X218000Y132160D02*
X279507D01*
X281333Y105000D02*
X285333D01*
X266873Y119460D02*
X281333Y105000D01*
X218000Y119460D02*
X266873D01*
X218758Y106002D02*
X258998D01*
X696290Y181000D02*
Y200000D01*
D19*
X723142Y142000D02*
D03*
Y134000D02*
D03*
Y86000D02*
D03*
Y78000D02*
D03*
D20*
Y127500D02*
D03*
Y122500D02*
D03*
Y117500D02*
D03*
Y112500D02*
D03*
Y107500D02*
D03*
Y102500D02*
D03*
Y97500D02*
D03*
Y92500D02*
D03*
D21*
X163573Y182960D02*
D03*
Y170260D02*
D03*
Y157560D02*
D03*
Y144860D02*
D03*
Y132160D02*
D03*
Y119460D02*
D03*
Y106760D02*
D03*
X218000Y94060D02*
D03*
Y106760D02*
D03*
Y119460D02*
D03*
Y132160D02*
D03*
Y144860D02*
D03*
Y157560D02*
D03*
Y170260D02*
D03*
Y182960D02*
D03*
X163573Y94060D02*
D03*
D22*
X146500Y245497D02*
D03*
X137000D02*
D03*
X127500D02*
D03*
Y218503D02*
D03*
X137000D02*
D03*
X146500D02*
D03*
D23*
X161248Y305500D02*
D03*
Y324500D02*
D03*
X188752Y315000D02*
D03*
Y305500D02*
D03*
Y324500D02*
D03*
X161248Y315000D02*
D03*
D24*
X664000Y101500D02*
D03*
Y111000D02*
D03*
Y120500D02*
D03*
X636695D02*
D03*
Y111000D02*
D03*
Y101500D02*
D03*
D25*
X742000Y399000D02*
D03*
X718000Y388800D02*
D03*
Y409200D02*
D03*
D26*
X771000Y356000D02*
D03*
Y378500D02*
D03*
Y401000D02*
D03*
D27*
X213110Y432350D02*
D03*
Y419650D02*
D03*
Y406950D02*
D03*
X158890Y419650D02*
D03*
Y432350D02*
D03*
X213110Y445050D02*
D03*
X158890D02*
D03*
Y406950D02*
D03*
D28*
X62750Y93760D02*
D03*
Y106460D02*
D03*
Y119160D02*
D03*
Y144560D02*
D03*
Y157260D02*
D03*
Y169960D02*
D03*
Y182660D02*
D03*
X117250Y169960D02*
D03*
Y157260D02*
D03*
Y144560D02*
D03*
Y131860D02*
D03*
Y119160D02*
D03*
Y106460D02*
D03*
Y93760D02*
D03*
Y182660D02*
D03*
X62750Y131860D02*
D03*
D29*
X667148Y142000D02*
D03*
X633548D02*
D03*
D30*
X670784Y294050D02*
D03*
Y281350D02*
D03*
X765216Y230550D02*
D03*
Y243250D02*
D03*
Y255950D02*
D03*
Y268650D02*
D03*
Y281350D02*
D03*
Y294050D02*
D03*
Y306750D02*
D03*
Y319450D02*
D03*
X670784Y230550D02*
D03*
Y243250D02*
D03*
Y255950D02*
D03*
Y268650D02*
D03*
Y306750D02*
D03*
Y319450D02*
D03*
D31*
X97000Y449000D02*
D03*
Y407000D02*
D03*
X218000Y19000D02*
D03*
Y61000D02*
D03*
X261000Y407000D02*
D03*
Y449000D02*
D03*
D32*
X130977Y325000D02*
D03*
X115023D02*
D03*
X663977Y510000D02*
D03*
X648023D02*
D03*
X574023Y60000D02*
D03*
X589977D02*
D03*
X607977Y103000D02*
D03*
X592023D02*
D03*
X607977Y122000D02*
D03*
X592023D02*
D03*
X212000Y385500D02*
D03*
X227954D02*
D03*
X177023Y462000D02*
D03*
X192977D02*
D03*
X171000Y202000D02*
D03*
X155046D02*
D03*
X56023Y223068D02*
D03*
X71977D02*
D03*
Y248068D02*
D03*
X56023D02*
D03*
X71977Y273068D02*
D03*
X56023D02*
D03*
X115023Y339000D02*
D03*
X130977D02*
D03*
D33*
X260000Y105000D02*
D03*
Y77000D02*
D03*
X412000Y105000D02*
D03*
Y77000D02*
D03*
X386667Y105000D02*
D03*
Y77000D02*
D03*
X361333Y105000D02*
D03*
Y77000D02*
D03*
X336000Y105000D02*
D03*
Y77000D02*
D03*
X310667Y105000D02*
D03*
Y77000D02*
D03*
X285333Y105000D02*
D03*
Y77000D02*
D03*
D34*
X37000Y273000D02*
D03*
X20000D02*
D03*
X423500Y307500D02*
D03*
Y320000D02*
D03*
X411000D02*
D03*
Y307500D02*
D03*
Y295000D02*
D03*
X423500D02*
D03*
X436000D02*
D03*
Y307500D02*
D03*
Y320000D02*
D03*
X37000Y223000D02*
D03*
X20000D02*
D03*
X37000Y248000D02*
D03*
X20000D02*
D03*
D35*
X188000Y222233D02*
D03*
Y243767D02*
D03*
D36*
X268000Y315000D02*
D03*
X218000D02*
D03*
D37*
X351050Y352000D02*
D03*
Y339300D02*
D03*
Y326600D02*
D03*
Y313900D02*
D03*
Y301200D02*
D03*
Y288500D02*
D03*
Y275800D02*
D03*
Y263100D02*
D03*
Y250400D02*
D03*
Y237700D02*
D03*
Y225000D02*
D03*
Y212300D02*
D03*
Y199600D02*
D03*
X526050D02*
D03*
Y212300D02*
D03*
Y225000D02*
D03*
Y237700D02*
D03*
Y250400D02*
D03*
Y263100D02*
D03*
Y275800D02*
D03*
Y288500D02*
D03*
Y301200D02*
D03*
Y313900D02*
D03*
Y326600D02*
D03*
Y339300D02*
D03*
Y352000D02*
D03*
X351050Y364700D02*
D03*
X526050D02*
D03*
D38*
X596950Y221995D02*
D03*
X609650D02*
D03*
X622350D02*
D03*
X635050Y328005D02*
D03*
X622350D02*
D03*
X609650D02*
D03*
X596950D02*
D03*
X635050Y221995D02*
D03*
D39*
X621950Y374786D02*
D03*
X634650D02*
D03*
X647350D02*
D03*
X660050D02*
D03*
Y429213D02*
D03*
X647350D02*
D03*
X634650D02*
D03*
X621950D02*
D03*
D40*
X290000Y412500D02*
D03*
Y443500D02*
D03*
D41*
X746710Y201000D02*
D03*
X723710D02*
D03*
X242500Y222000D02*
D03*
X219500D02*
D03*
X242500Y203000D02*
D03*
X219500D02*
D03*
X148500Y264000D02*
D03*
X125500D02*
D03*
X164500Y345000D02*
D03*
X187500D02*
D03*
X241500Y272000D02*
D03*
X264500D02*
D03*
X241500Y253000D02*
D03*
X264500D02*
D03*
X697290Y201000D02*
D03*
X674290D02*
D03*
D42*
X599000Y370500D02*
D03*
Y353500D02*
D03*
X88000Y48500D02*
D03*
Y31500D02*
D03*
X778000Y175500D02*
D03*
Y192500D02*
D03*
X38000Y105500D02*
D03*
Y122500D02*
D03*
X122000Y423500D02*
D03*
Y406500D02*
D03*
X138000Y442500D02*
D03*
Y459500D02*
D03*
X166000Y224500D02*
D03*
Y241500D02*
D03*
X679000Y390500D02*
D03*
Y407500D02*
D03*
X695000D02*
D03*
Y390500D02*
D03*
D43*
X326270Y354040D02*
D03*
Y377040D02*
D03*
X305270Y354040D02*
D03*
Y377040D02*
D03*
D44*
X590500Y41774D02*
D03*
X573500D02*
D03*
X590500Y22000D02*
D03*
X573500D02*
D03*
X142500Y293000D02*
D03*
X125500D02*
D03*
X695290Y180000D02*
D03*
X678290D02*
D03*
X742710D02*
D03*
X725710D02*
D03*
X649500Y455000D02*
D03*
X632500D02*
D03*
X592500Y186000D02*
D03*
X609500D02*
D03*
D45*
X20932Y142500D02*
D03*
Y159500D02*
D03*
X194000Y385500D02*
D03*
Y368500D02*
D03*
D46*
X326270Y336977D02*
D03*
Y321023D02*
D03*
X721000Y40977D02*
D03*
Y25023D02*
D03*
X21000Y121977D02*
D03*
Y106023D02*
D03*
X176000Y369023D02*
D03*
Y384977D02*
D03*
X138000Y422977D02*
D03*
Y407023D02*
D03*
X235000Y437023D02*
D03*
Y452977D02*
D03*
X215000Y467023D02*
D03*
Y482977D02*
D03*
X108000Y218023D02*
D03*
Y233977D02*
D03*
D47*
X542500Y612000D02*
D03*
X657500D02*
D03*
X342500D02*
D03*
X457500D02*
D03*
D48*
X733892Y138900D02*
D03*
Y81100D02*
D03*
D49*
X728892Y153200D02*
D03*
Y66800D02*
D03*
D50*
X770692Y153200D02*
D03*
Y66800D02*
D03*
D53*
X461900Y492700D02*
D03*
D54*
Y467300D02*
D03*
X487300Y492700D02*
D03*
Y467300D02*
D03*
X512700Y492700D02*
D03*
Y467300D02*
D03*
X538100Y492700D02*
D03*
Y467300D02*
D03*
X52700Y337300D02*
D03*
X27300D02*
D03*
X52700Y311900D02*
D03*
X27300Y388100D02*
D03*
X52700D02*
D03*
Y362700D02*
D03*
X27300D02*
D03*
D55*
X570000Y433000D02*
D03*
Y407600D02*
D03*
X635300Y484000D02*
D03*
X660700D02*
D03*
D56*
X644450Y585000D02*
D03*
X444450D02*
D03*
D57*
X631750Y559600D02*
D03*
X619050Y585000D02*
D03*
X606350Y559600D02*
D03*
X593650Y585000D02*
D03*
X580950Y559600D02*
D03*
X568250Y585000D02*
D03*
X555550Y559600D02*
D03*
X431750D02*
D03*
X419050Y585000D02*
D03*
X406350Y559600D02*
D03*
X393650Y585000D02*
D03*
X380950Y559600D02*
D03*
X368250Y585000D02*
D03*
X355550Y559600D02*
D03*
D58*
X644000Y670000D02*
D03*
X556000D02*
D03*
X444000D02*
D03*
X356000D02*
D03*
D59*
X539700Y27300D02*
D03*
Y52700D02*
D03*
X514300Y27300D02*
D03*
Y52700D02*
D03*
X488900Y27300D02*
D03*
Y52700D02*
D03*
X463500Y27300D02*
D03*
Y52700D02*
D03*
X438100Y27300D02*
D03*
Y52700D02*
D03*
X412700Y27300D02*
D03*
Y52700D02*
D03*
X387300Y27300D02*
D03*
Y52700D02*
D03*
X361900Y27300D02*
D03*
Y52700D02*
D03*
X336500Y27300D02*
D03*
Y52700D02*
D03*
X311100Y27300D02*
D03*
Y52700D02*
D03*
X285700Y27300D02*
D03*
Y52700D02*
D03*
X260300Y27300D02*
D03*
D60*
Y52700D02*
D03*
D61*
X27300Y311900D02*
D03*
D62*
X208000Y291000D02*
D03*
X201000D02*
D03*
X194000D02*
D03*
X99000Y235000D02*
D03*
X157000Y264000D02*
D03*
X482000Y361000D02*
D03*
X478000Y411000D02*
D03*
X257000Y203000D02*
D03*
X678000Y111000D02*
D03*
X604000Y83000D02*
D03*
X151000Y315000D02*
D03*
X188000Y332000D02*
D03*
X605000Y133000D02*
D03*
X706885Y380337D02*
D03*
X584000Y618000D02*
D03*
X306000Y259000D02*
D03*
X298000Y236000D02*
D03*
X289151Y223000D02*
D03*
X509000Y291000D02*
D03*
X607944Y354090D02*
D03*
X613000Y346000D02*
D03*
X706000Y415000D02*
D03*
X742000Y366000D02*
D03*
X752195Y378250D02*
D03*
X751000Y335000D02*
D03*
X698000Y100040D02*
D03*
X685000Y128000D02*
D03*
X592508Y178508D02*
D03*
X432000Y338000D02*
D03*
X547000Y344000D02*
D03*
X546000Y331000D02*
D03*
X88000Y167000D02*
D03*
X293000Y250000D02*
D03*
X647805Y363195D02*
D03*
X604876Y607882D02*
D03*
X622000Y408000D02*
D03*
X658000Y357000D02*
D03*
X284000Y328000D02*
D03*
X655000Y294000D02*
D03*
X363000Y338000D02*
D03*
X366000Y326000D02*
D03*
X365000Y313000D02*
D03*
X650000Y443000D02*
D03*
X609000Y240000D02*
D03*
X622000D02*
D03*
X366000Y301000D02*
D03*
X88000Y124000D02*
D03*
X88390Y153390D02*
D03*
X325000Y276000D02*
D03*
X336000Y287000D02*
D03*
X80000Y223000D02*
D03*
X200000Y315000D02*
D03*
X153000Y293000D02*
D03*
X593708Y492516D02*
D03*
X574000Y78000D02*
D03*
X692261Y116500D02*
D03*
D63*
X62750Y131860D02*
X62820Y131930D01*
X310626Y262544D02*
X350494D01*
X307082Y259000D02*
X310626Y262544D01*
X306000Y259000D02*
X307082D01*
X516200Y298200D02*
X523050D01*
X509000Y291000D02*
X516200Y298200D01*
X518037Y310900D02*
X523050D01*
X451810Y244673D02*
X518037Y310900D01*
X451810Y41010D02*
Y244673D01*
X78960Y169960D02*
X98950Y189950D01*
X160113D01*
X62750Y169960D02*
X78960D01*
X350494Y262544D02*
X351050Y263100D01*
X351650Y326000D02*
X366000D01*
X351950Y313000D02*
X365000D01*
X351050Y313900D02*
X351950Y313000D01*
X523050Y298200D02*
X526050Y301200D01*
X351250Y301000D02*
X366000D01*
X351050Y301200D02*
X351250Y301000D01*
X539700Y27300D02*
X551390Y38990D01*
Y240153D01*
X545900Y245643D02*
X551390Y240153D01*
X539900Y260100D02*
X557000Y243000D01*
Y28068D02*
Y243000D01*
X544542Y15610D02*
X557000Y28068D01*
X539700Y52700D02*
Y56028D01*
X545000Y61328D01*
X539300Y234700D02*
X545000Y229000D01*
Y61328D02*
Y229000D01*
X171000Y200837D02*
Y202000D01*
X160113Y189950D02*
X171000Y200837D01*
X28040Y200170D02*
X58250Y169960D01*
X28040Y200170D02*
Y311160D01*
X350850Y276000D02*
X351050Y275800D01*
X325000Y276000D02*
X350850D01*
X337635Y288500D02*
X351050D01*
X336135Y287000D02*
X337635Y288500D01*
X336000Y287000D02*
X336135D01*
X351050Y326600D02*
X351650Y326000D01*
X514300Y52700D02*
X537590Y75990D01*
Y218473D01*
X529050Y234700D02*
X539300D01*
X545900Y245643D02*
Y245643D01*
X544143Y247400D02*
X545900Y245643D01*
X529050Y260100D02*
X539900D01*
X534063Y222000D02*
X537590Y218473D01*
X529050Y247400D02*
X544143D01*
X526050Y263100D02*
X529050Y260100D01*
X523050Y272800D02*
X526050Y275800D01*
X518037Y272800D02*
X523050D01*
X477210Y231973D02*
X518037Y272800D01*
X477210Y47858D02*
Y231973D01*
Y47858D02*
X481230Y43838D01*
Y36813D02*
Y43838D01*
Y36813D02*
X488900Y29143D01*
Y27300D02*
Y29143D01*
X518037Y209300D02*
X523050D01*
X488900Y180163D02*
X518037Y209300D01*
X523050D02*
X526050Y212300D01*
Y250400D02*
X529050Y247400D01*
X514300Y27300D02*
X525990Y15610D01*
X544542D01*
X526050Y237700D02*
X529050Y234700D01*
Y222000D02*
X534063D01*
X526050Y225000D02*
X529050Y222000D01*
X488900Y52700D02*
Y180163D01*
X523050Y310900D02*
X526050Y313900D01*
X438100Y27300D02*
X451810Y41010D01*
X438100Y243663D02*
X518037Y323600D01*
X523050D01*
X526050Y326600D01*
X438100Y52700D02*
Y243663D01*
X158961Y106760D02*
X163573D01*
X145962Y93760D02*
X158961Y106760D01*
X117250Y93760D02*
X145962D01*
X158961Y119460D02*
X163573D01*
X145962Y106460D02*
X158961Y119460D01*
X117250Y106460D02*
X145962D01*
X158961Y132160D02*
X163573D01*
X145962Y119160D02*
X158961Y132160D01*
X117250Y119160D02*
X145962D01*
X158961Y144860D02*
X163573D01*
X145962Y131860D02*
X158961Y144860D01*
X117250Y131860D02*
X145962D01*
X158961Y157560D02*
X163573D01*
X145962Y144560D02*
X158961Y157560D01*
X117250Y144560D02*
X145962D01*
X158961Y170260D02*
X163573D01*
X145962Y157260D02*
X158961Y170260D01*
X117250Y157260D02*
X145962D01*
X158961Y182960D02*
X163573D01*
X145962Y169960D02*
X158961Y182960D01*
X117250Y169960D02*
X145962D01*
X44578Y83608D02*
X71977D01*
X22163Y106023D02*
X44578Y83608D01*
X21000Y106023D02*
X22163D01*
X38000Y105500D02*
X38500Y105000D01*
X50960D01*
X20966Y122011D02*
Y142466D01*
X50960Y105000D02*
Y162670D01*
X58250Y169960D01*
X103500Y48500D02*
X117500Y62500D01*
X88000Y48500D02*
X103500D01*
X777506Y157916D02*
X778000Y158410D01*
X777506Y157819D02*
Y157916D01*
X778000Y158410D02*
Y175500D01*
X772887Y153200D02*
X777506Y157819D01*
X770692Y153200D02*
X772887D01*
X770692Y66800D02*
Y153200D01*
X728892D02*
X770692D01*
X728892Y66800D02*
X770692D01*
X62750Y106460D02*
X67250D01*
X74540Y99170D01*
Y86171D02*
Y99170D01*
X71977Y83608D02*
X74540Y86171D01*
X50960Y101050D02*
Y105000D01*
Y101050D02*
X58250Y93760D01*
X62750D01*
X27300Y311900D02*
X28040Y311160D01*
D64*
X570040Y181199D02*
X625040Y126199D01*
Y108904D02*
X631400Y102544D01*
X625040Y108904D02*
Y126199D01*
X584000Y618000D02*
X593650Y608350D01*
Y585000D02*
Y608350D01*
X623208Y136573D02*
X633555Y126225D01*
X576080Y183920D02*
X623208Y136792D01*
X592504Y178512D02*
X592508Y178508D01*
X592500Y186000D02*
X592504Y185996D01*
X623208Y136573D02*
Y136792D01*
X576080Y183920D02*
Y292471D01*
X633555Y121544D02*
Y126225D01*
X592504Y178512D02*
Y185996D01*
X570040Y181199D02*
Y289969D01*
X467490Y373490D02*
X535327D01*
X432225Y338225D02*
X467490Y373490D01*
X451459Y391610D02*
X542832D01*
X382195Y225378D02*
Y305262D01*
X456463Y379530D02*
X537829D01*
X376155Y232038D02*
Y307764D01*
X453961Y385570D02*
X540331D01*
X411849Y352000D02*
X451459Y391610D01*
X351050Y352000D02*
X411849D01*
X376155Y307764D02*
X453961Y385570D01*
X382195Y305262D02*
X456463Y379530D01*
X547000Y344000D02*
Y344733D01*
X539733Y352000D02*
X547000Y344733D01*
X526050Y352000D02*
X539733D01*
X539451Y339300D02*
X544555Y334196D01*
X526050Y339300D02*
X539451D01*
X544555Y333392D02*
Y334196D01*
Y333392D02*
X546000Y331947D01*
Y331000D02*
Y331947D01*
X254462Y15360D02*
X468446D01*
X227822Y42000D02*
X254462Y15360D01*
X203000Y42000D02*
X227822D01*
X182500Y62500D02*
X203000Y42000D01*
X475440Y23874D02*
X476200Y23114D01*
X483954Y15360D01*
X564000Y115713D02*
Y287000D01*
X555590Y295410D02*
X564000Y287000D01*
X555590Y295410D02*
Y353227D01*
X542832Y391610D02*
X573710Y360732D01*
X535327Y373490D02*
X555590Y353227D01*
X573710Y303383D02*
Y360732D01*
X561630Y298379D02*
Y355729D01*
X567670Y300881D02*
Y358231D01*
X537829Y379530D02*
X561630Y355729D01*
X540331Y385570D02*
X567670Y358231D01*
X351050Y339300D02*
X352350Y338000D01*
X363000D01*
X582120Y222000D02*
X582125Y221995D01*
X596950D01*
X582120Y222000D02*
Y294973D01*
X609650Y221995D02*
Y239350D01*
X609000Y240000D02*
X609650Y239350D01*
X622000Y222345D02*
X622350Y221995D01*
X622000Y222345D02*
Y240000D01*
X573710Y303383D02*
X582120Y294973D01*
X567670Y300881D02*
X576080Y292471D01*
X561630Y298379D02*
X570040Y289969D01*
X351050Y212300D02*
X353800Y215050D01*
X359167D01*
X376155Y232038D01*
X351050Y199600D02*
X353800Y202350D01*
X359167D01*
X382195Y225378D01*
X582120Y196880D02*
Y222000D01*
X564000Y115713D02*
X589977Y89736D01*
X582120Y196880D02*
X592500Y186500D01*
X523050Y199600D02*
X526050D01*
X502360Y178910D02*
X523050Y199600D01*
X502360Y23874D02*
Y178910D01*
X493846Y15360D02*
X502360Y23874D01*
X483954Y15360D02*
X493846D01*
X475440Y23874D02*
Y40760D01*
X463500Y52700D02*
X475440Y40760D01*
X468446Y15360D02*
X475440Y22354D01*
X185733Y241500D02*
X188000Y243767D01*
X166000Y241500D02*
X185733D01*
X165500Y224500D02*
X166000D01*
X159502Y218503D02*
X165500Y224500D01*
X146500Y218503D02*
X159502D01*
X156348Y241500D02*
X166000D01*
X151067Y236219D02*
X156348Y241500D01*
X141933Y236219D02*
X151067D01*
X138040Y240112D02*
X141933Y236219D01*
X138040Y240112D02*
Y244457D01*
X137000Y245497D02*
X138040Y244457D01*
X139657Y202000D02*
X155046D01*
X128540Y213117D02*
X139657Y202000D01*
X128540Y213117D02*
Y217463D01*
X127500Y218503D02*
X128540Y217463D01*
X127260Y218263D02*
X127500Y218503D01*
X108240Y218263D02*
X127260D01*
X108000Y218023D02*
X108240Y218263D01*
X593708Y456708D02*
Y492516D01*
X570000Y433000D02*
X593708Y456708D01*
X725038Y66800D02*
X728892D01*
X721000Y62762D02*
X725038Y66800D01*
X721000Y40977D02*
Y62762D01*
X574000Y78000D02*
X574023Y77977D01*
Y60000D02*
Y77977D01*
X589977Y60000D02*
Y89736D01*
X633555Y121544D02*
X634599Y120500D01*
X636695D01*
X631400Y102544D02*
X635651D01*
X636695Y101500D01*
X645770Y62500D02*
X682500D01*
X605270Y22000D02*
X645770Y62500D01*
X590500Y22000D02*
X605270D01*
X615000Y60000D02*
X617500Y62500D01*
X589977Y60000D02*
X615000D01*
X589977D02*
X590238Y59738D01*
Y42035D02*
Y59738D01*
Y42035D02*
X590500Y41774D01*
X592500Y186000D02*
Y186500D01*
D65*
X707495Y380948D02*
X713152D01*
X715384Y383180D01*
Y387455D02*
X716729Y388800D01*
X718000D01*
X715384Y383180D02*
Y387455D01*
X706885Y380337D02*
X707495Y380948D01*
X679000Y390500D02*
X695000D01*
X705640D01*
X714140Y399000D01*
X742655D01*
X607854Y354000D02*
X607944Y354090D01*
X613000Y345137D02*
Y346000D01*
X610856Y329211D02*
Y342993D01*
X613000Y345137D01*
X601156Y354000D02*
X607854D01*
X609650Y328005D02*
X610856Y329211D01*
X622150Y328205D02*
Y374586D01*
X621950Y374786D02*
X622150Y374586D01*
X716655Y407855D02*
X718000Y409200D01*
X648000Y509726D02*
Y581450D01*
X705555Y415445D02*
X706000Y415000D01*
X701555Y399555D02*
X709855Y407855D01*
X695677Y415445D02*
X705555D01*
X709855Y407855D02*
X716655D01*
X644883Y584567D02*
X648000Y581450D01*
X687445Y399555D02*
X701555D01*
X695000Y414768D02*
X695677Y415445D01*
X742000Y366000D02*
Y398345D01*
X751610Y326603D02*
Y334390D01*
Y326603D02*
X757878Y320335D01*
X751000Y335000D02*
X751610Y334390D01*
X754020Y356000D02*
X771000D01*
X737650Y339630D02*
X754020Y356000D01*
X737650Y315163D02*
X758763Y294050D01*
X662370Y339630D02*
X737650D01*
Y315163D02*
Y339630D01*
X752195Y378250D02*
X770750D01*
X742000Y398345D02*
X742655Y399000D01*
X770750Y378250D02*
X771000Y378500D01*
X647805Y354195D02*
X662370Y339630D01*
X647805Y354195D02*
Y363195D01*
Y374332D01*
X647350Y374786D02*
X647805Y374332D01*
X604876Y607882D02*
X617870Y594889D01*
Y586180D02*
Y594889D01*
Y586180D02*
X619050Y585000D01*
Y500250D02*
Y585000D01*
X757878Y320335D02*
X764331D01*
X765216Y319450D01*
X695000Y415445D02*
X695000Y415445D01*
X656634Y415445D02*
X695000D01*
X695000Y407500D02*
Y415445D01*
X622000Y408000D02*
Y423927D01*
X658000Y357000D02*
X660050Y359050D01*
X218000Y61000D02*
Y94060D01*
X758763Y294050D02*
X765216D01*
X598156Y351000D02*
X601156Y354000D01*
X758763Y281350D02*
X765216D01*
X723710Y246297D02*
X758763Y281350D01*
X723710Y201000D02*
Y246297D01*
X765216Y281350D02*
Y294050D01*
Y306750D02*
X771669D01*
X778904Y299515D01*
Y275885D02*
Y299515D01*
X771669Y268650D02*
X778904Y275885D01*
X765216Y268650D02*
X771669D01*
X765216Y306750D02*
Y319450D01*
Y255950D02*
Y268650D01*
X758763Y255950D02*
X765216D01*
X751528Y248715D02*
X758763Y255950D01*
X751528Y237785D02*
Y248715D01*
Y237785D02*
X758763Y230550D01*
X765216D01*
Y221506D02*
Y230550D01*
X746710Y203000D02*
X765216Y221506D01*
X746710Y201000D02*
Y203000D01*
X634650Y390150D02*
X635000Y390500D01*
X634650Y374786D02*
Y390150D01*
X635000Y390500D02*
X679000D01*
X601095Y372095D02*
Y372595D01*
X619000Y390500D01*
X599000Y370500D02*
X599500D01*
X601095Y372095D01*
X619000Y390500D02*
X635000D01*
X570870Y398130D02*
X596000Y373000D01*
X570870Y398130D02*
Y406730D01*
X570000Y407600D02*
X570870Y406730D01*
X598156Y329211D02*
Y351000D01*
X596950Y328005D02*
X598156Y329211D01*
X660050Y359050D02*
Y374786D01*
X634650D02*
X634850Y374586D01*
Y328205D02*
Y374586D01*
Y328205D02*
X635050Y328005D01*
X622150Y328205D02*
X622350Y328005D01*
X634650Y424729D02*
Y429213D01*
Y424729D02*
X651879Y407500D01*
X679000D01*
X647350Y424729D02*
X656634Y415445D01*
X647350Y424729D02*
Y429213D01*
X649500Y443500D02*
X650000Y443000D01*
X648235Y441235D02*
X650000Y443000D01*
X649500Y443500D02*
Y455000D01*
X648235Y430098D02*
Y441235D01*
X647350Y429213D02*
X648235Y430098D01*
X634650Y429213D02*
Y433698D01*
X632500Y435848D02*
X634650Y433698D01*
X632500Y435848D02*
Y455000D01*
X663279Y466278D02*
X672462Y475462D01*
X643279Y466278D02*
X663279D01*
X632500Y455500D02*
X643279Y466278D01*
X770000Y400000D02*
X771000Y401000D01*
X743000Y400000D02*
X770000D01*
X655433Y584567D02*
X672462Y567538D01*
X644883Y584567D02*
X655433D01*
X672462Y475462D02*
Y567538D01*
X644450Y585000D02*
X644883Y584567D01*
X543255Y454854D02*
X604805Y516404D01*
Y558055D01*
X525146Y454854D02*
X543255D01*
X604805Y558055D02*
X606350Y559600D01*
X512700Y467300D02*
X525146Y454854D01*
X538100Y492700D02*
X580950Y535550D01*
Y559600D01*
X525654Y529704D02*
X555550Y559600D01*
X525654Y479746D02*
Y529704D01*
Y479746D02*
X538100Y467300D01*
X431750Y522850D02*
Y559600D01*
Y522850D02*
X461900Y492700D01*
X406350Y525962D02*
Y559600D01*
Y525962D02*
X452058Y480254D01*
X474854D01*
X487300Y492700D01*
X436700Y467300D02*
X461900D01*
X380950Y523050D02*
Y559600D01*
Y523050D02*
X436700Y467300D01*
X357691Y526309D02*
X429146Y454854D01*
X474854D01*
X357691Y526309D02*
Y557459D01*
X619050Y500250D02*
X635300Y484000D01*
X746710Y199000D02*
Y201000D01*
X742710Y195000D02*
X746710Y199000D01*
X742710Y180000D02*
Y195000D01*
X699629Y134000D02*
X723142D01*
X691629Y142000D02*
X699629Y134000D01*
X667148Y142000D02*
X691629D01*
X408000Y105000D02*
X412000D01*
X382667D02*
X386667D01*
X357333D02*
X361333D01*
X332000D02*
X336000D01*
X306667D02*
X310667D01*
X258998Y106002D02*
X260000Y105000D01*
X218000Y106760D02*
X218758Y106002D01*
X723710Y201000D02*
X724710Y200000D01*
Y181000D02*
Y200000D01*
Y181000D02*
X725710Y180000D01*
X679500Y407500D02*
X687445Y399555D01*
X660700Y484000D02*
Y486749D01*
X663977Y490026D01*
Y510000D01*
X355550Y559600D02*
X357691Y557459D01*
X474854Y454854D02*
X487300Y467300D01*
D66*
X300512Y237700D02*
X351050D01*
X298000Y236000D02*
X298812D01*
X300512Y237700D01*
X289151Y223000D02*
X289343Y223191D01*
X349241D01*
X351050Y225000D01*
X78260Y157260D02*
X88000Y167000D01*
X293000Y250000D02*
Y260044D01*
X326270Y293314D01*
X293000Y250000D02*
X350650D01*
X218000Y58955D02*
Y61000D01*
Y58955D02*
X224255Y52700D01*
X260300D01*
X326270Y293314D02*
Y321023D01*
X350650Y250000D02*
X351050Y250400D01*
X62750Y157260D02*
X78260D01*
X83160Y119160D02*
X88000Y124000D01*
X62750Y119160D02*
X83160D01*
X79560Y144560D02*
X88390Y153390D01*
X62750Y144560D02*
X79560D01*
D67*
X138000Y442500D02*
X138500D01*
X140750Y440250D01*
Y439750D02*
Y440250D01*
Y439750D02*
X148150Y432350D01*
X158890D01*
X71977Y273068D02*
Y292623D01*
X52700Y311900D02*
X71977Y292623D01*
X55955Y223000D02*
X56023Y223068D01*
X37000Y223000D02*
X55955D01*
Y248000D02*
X56023Y248068D01*
X37000Y248000D02*
X55955D01*
Y273000D02*
X56023Y273068D01*
X37000Y273000D02*
X55955D01*
D68*
X182500Y17500D02*
D03*
X117500D02*
D03*
X182500Y62500D02*
D03*
X617500Y17500D02*
D03*
X682500Y62500D02*
D03*
Y17500D02*
D03*
D69*
X117500Y62500D02*
D03*
X617500D02*
D03*
M02*
