G04*
G04 #@! TF.GenerationSoftware,Altium Limited,Altium Designer,26.7.1 (11)*
G04*
G04 Layer_Color=8421504*
G04 Board_Origin=0|0*
%FSLAX44Y44*%
%MOMM*%
G71*
G04*
G04 #@! TF.SameCoordinates,829F16A4-7465-4014-AE08-DF0F6C3C2EE9*
G04*
G04*
G04 #@! TF.FilePolarity,Positive*
G04*
G01*
G75*
%ADD19R,1.1430X0.5842*%
%ADD20R,1.1430X0.3048*%
%ADD21R,1.4549X0.5326*%
%ADD22R,0.5580X0.9977*%
%ADD23R,0.9977X0.5580*%
%ADD24R,0.9779X0.5588*%
G04:AMPARAMS|DCode=25|XSize=0.65mm|YSize=1mm|CornerRadius=0.0813mm|HoleSize=0mm|Usage=FLASHONLY|Rotation=90.000|XOffset=0mm|YOffset=0mm|HoleType=Round|Shape=RoundedRectangle|*
%AMROUNDEDRECTD25*
21,1,0.6500,0.8375,0,0,90.0*
21,1,0.4875,1.0000,0,0,90.0*
1,1,0.1625,0.4188,0.2438*
1,1,0.1625,0.4188,-0.2438*
1,1,0.1625,-0.4188,-0.2438*
1,1,0.1625,-0.4188,0.2438*
%
%ADD25ROUNDEDRECTD25*%
G04:AMPARAMS|DCode=26|XSize=1.524mm|YSize=1.524mm|CornerRadius=0.381mm|HoleSize=0mm|Usage=FLASHONLY|Rotation=90.000|XOffset=0mm|YOffset=0mm|HoleType=Round|Shape=RoundedRectangle|*
%AMROUNDEDRECTD26*
21,1,1.5240,0.7620,0,0,90.0*
21,1,0.7620,1.5240,0,0,90.0*
1,1,0.7620,0.3810,0.3810*
1,1,0.7620,0.3810,-0.3810*
1,1,0.7620,-0.3810,-0.3810*
1,1,0.7620,-0.3810,0.3810*
%
%ADD26ROUNDEDRECTD26*%
%ADD27R,1.5280X0.6500*%
%ADD28R,1.5500X0.6500*%
%ADD29R,1.2100X0.7300*%
%ADD30R,1.8486X0.5580*%
%ADD31R,1.6510X2.3000*%
%ADD32R,0.8080X1.0406*%
%ADD33R,1.8000X1.0000*%
%ADD34R,0.8000X0.8000*%
%ADD35R,2.2098X1.2390*%
%ADD36R,2.2500X1.8000*%
%ADD37R,1.5000X0.9000*%
%ADD38R,0.6221X2.2539*%
%ADD39R,0.5580X1.4549*%
%ADD40R,1.6000X0.9000*%
%ADD41R,0.9000X1.3000*%
%ADD42R,0.8000X0.7000*%
%ADD43R,1.3000X0.9000*%
%ADD44R,0.7000X0.8000*%
%ADD45R,0.8000X0.8000*%
%ADD46R,1.0406X0.8080*%
D19*
X723142Y142000D02*
D03*
Y134000D02*
D03*
Y86000D02*
D03*
Y78000D02*
D03*
D20*
Y127500D02*
D03*
Y122500D02*
D03*
Y117500D02*
D03*
Y112500D02*
D03*
Y107500D02*
D03*
Y102500D02*
D03*
Y97500D02*
D03*
Y92500D02*
D03*
D21*
X163573Y182960D02*
D03*
Y170260D02*
D03*
Y157560D02*
D03*
Y144860D02*
D03*
Y132160D02*
D03*
Y119460D02*
D03*
Y106760D02*
D03*
X218000Y94060D02*
D03*
Y106760D02*
D03*
Y119460D02*
D03*
Y132160D02*
D03*
Y144860D02*
D03*
Y157560D02*
D03*
Y170260D02*
D03*
Y182960D02*
D03*
X163573Y94060D02*
D03*
D22*
X146500Y245497D02*
D03*
X137000D02*
D03*
X127500D02*
D03*
Y218503D02*
D03*
X137000D02*
D03*
X146500D02*
D03*
D23*
X161248Y305500D02*
D03*
Y324500D02*
D03*
X188752Y315000D02*
D03*
Y305500D02*
D03*
Y324500D02*
D03*
X161248Y315000D02*
D03*
D24*
X664000Y101500D02*
D03*
Y111000D02*
D03*
Y120500D02*
D03*
X636695D02*
D03*
Y111000D02*
D03*
Y101500D02*
D03*
D25*
X742000Y399000D02*
D03*
X718000Y388800D02*
D03*
Y409200D02*
D03*
D26*
X771000Y356000D02*
D03*
Y378500D02*
D03*
Y401000D02*
D03*
D27*
X213110Y432350D02*
D03*
Y419650D02*
D03*
Y406950D02*
D03*
X158890Y419650D02*
D03*
Y432350D02*
D03*
X213110Y445050D02*
D03*
X158890D02*
D03*
Y406950D02*
D03*
D28*
X62750Y93760D02*
D03*
Y106460D02*
D03*
Y119160D02*
D03*
Y144560D02*
D03*
Y157260D02*
D03*
Y169960D02*
D03*
Y182660D02*
D03*
X117250Y169960D02*
D03*
Y157260D02*
D03*
Y144560D02*
D03*
Y131860D02*
D03*
Y119160D02*
D03*
Y106460D02*
D03*
Y93760D02*
D03*
Y182660D02*
D03*
X62750Y131860D02*
D03*
D29*
X667148Y142000D02*
D03*
X633548D02*
D03*
D30*
X670784Y294050D02*
D03*
Y281350D02*
D03*
X765216Y230550D02*
D03*
Y243250D02*
D03*
Y255950D02*
D03*
Y268650D02*
D03*
Y281350D02*
D03*
Y294050D02*
D03*
Y306750D02*
D03*
Y319450D02*
D03*
X670784Y230550D02*
D03*
Y243250D02*
D03*
Y255950D02*
D03*
Y268650D02*
D03*
Y306750D02*
D03*
Y319450D02*
D03*
D31*
X97000Y449000D02*
D03*
Y407000D02*
D03*
X218000Y19000D02*
D03*
Y61000D02*
D03*
X261000Y407000D02*
D03*
Y449000D02*
D03*
D32*
X130977Y325000D02*
D03*
X115023D02*
D03*
X663977Y510000D02*
D03*
X648023D02*
D03*
X574023Y60000D02*
D03*
X589977D02*
D03*
X607977Y103000D02*
D03*
X592023D02*
D03*
X607977Y122000D02*
D03*
X592023D02*
D03*
X212000Y385500D02*
D03*
X227954D02*
D03*
X177023Y462000D02*
D03*
X192977D02*
D03*
X171000Y202000D02*
D03*
X155046D02*
D03*
X56023Y223068D02*
D03*
X71977D02*
D03*
Y248068D02*
D03*
X56023D02*
D03*
X71977Y273068D02*
D03*
X56023D02*
D03*
X115023Y339000D02*
D03*
X130977D02*
D03*
D33*
X260000Y105000D02*
D03*
Y77000D02*
D03*
X412000Y105000D02*
D03*
Y77000D02*
D03*
X386667Y105000D02*
D03*
Y77000D02*
D03*
X361333Y105000D02*
D03*
Y77000D02*
D03*
X336000Y105000D02*
D03*
Y77000D02*
D03*
X310667Y105000D02*
D03*
Y77000D02*
D03*
X285333Y105000D02*
D03*
Y77000D02*
D03*
D34*
X37000Y273000D02*
D03*
X20000D02*
D03*
X423500Y307500D02*
D03*
Y320000D02*
D03*
X411000D02*
D03*
Y307500D02*
D03*
Y295000D02*
D03*
X423500D02*
D03*
X436000D02*
D03*
Y307500D02*
D03*
Y320000D02*
D03*
X37000Y223000D02*
D03*
X20000D02*
D03*
X37000Y248000D02*
D03*
X20000D02*
D03*
D35*
X188000Y222233D02*
D03*
Y243767D02*
D03*
D36*
X268000Y315000D02*
D03*
X218000D02*
D03*
D37*
X351050Y352000D02*
D03*
Y339300D02*
D03*
Y326600D02*
D03*
Y313900D02*
D03*
Y301200D02*
D03*
Y288500D02*
D03*
Y275800D02*
D03*
Y263100D02*
D03*
Y250400D02*
D03*
Y237700D02*
D03*
Y225000D02*
D03*
Y212300D02*
D03*
Y199600D02*
D03*
X526050D02*
D03*
Y212300D02*
D03*
Y225000D02*
D03*
Y237700D02*
D03*
Y250400D02*
D03*
Y263100D02*
D03*
Y275800D02*
D03*
Y288500D02*
D03*
Y301200D02*
D03*
Y313900D02*
D03*
Y326600D02*
D03*
Y339300D02*
D03*
Y352000D02*
D03*
X351050Y364700D02*
D03*
X526050D02*
D03*
D38*
X596950Y221995D02*
D03*
X609650D02*
D03*
X622350D02*
D03*
X635050Y328005D02*
D03*
X622350D02*
D03*
X609650D02*
D03*
X596950D02*
D03*
X635050Y221995D02*
D03*
D39*
X621950Y374786D02*
D03*
X634650D02*
D03*
X647350D02*
D03*
X660050D02*
D03*
Y429213D02*
D03*
X647350D02*
D03*
X634650D02*
D03*
X621950D02*
D03*
D40*
X290000Y412500D02*
D03*
Y443500D02*
D03*
D41*
X746710Y201000D02*
D03*
X723710D02*
D03*
X242500Y222000D02*
D03*
X219500D02*
D03*
X242500Y203000D02*
D03*
X219500D02*
D03*
X148500Y264000D02*
D03*
X125500D02*
D03*
X164500Y345000D02*
D03*
X187500D02*
D03*
X241500Y272000D02*
D03*
X264500D02*
D03*
X241500Y253000D02*
D03*
X264500D02*
D03*
X697290Y201000D02*
D03*
X674290D02*
D03*
D42*
X599000Y370500D02*
D03*
Y353500D02*
D03*
X88000Y48500D02*
D03*
Y31500D02*
D03*
X778000Y175500D02*
D03*
Y192500D02*
D03*
X38000Y105500D02*
D03*
Y122500D02*
D03*
X122000Y423500D02*
D03*
Y406500D02*
D03*
X138000Y442500D02*
D03*
Y459500D02*
D03*
X166000Y224500D02*
D03*
Y241500D02*
D03*
X679000Y390500D02*
D03*
Y407500D02*
D03*
X695000D02*
D03*
Y390500D02*
D03*
D43*
X326270Y354040D02*
D03*
Y377040D02*
D03*
X305270Y354040D02*
D03*
Y377040D02*
D03*
D44*
X590500Y41774D02*
D03*
X573500D02*
D03*
X590500Y22000D02*
D03*
X573500D02*
D03*
X142500Y293000D02*
D03*
X125500D02*
D03*
X695290Y180000D02*
D03*
X678290D02*
D03*
X742710D02*
D03*
X725710D02*
D03*
X649500Y455000D02*
D03*
X632500D02*
D03*
X592500Y186000D02*
D03*
X609500D02*
D03*
D45*
X20932Y142500D02*
D03*
Y159500D02*
D03*
X194000Y385500D02*
D03*
Y368500D02*
D03*
D46*
X326270Y336977D02*
D03*
Y321023D02*
D03*
X721000Y40977D02*
D03*
Y25023D02*
D03*
X21000Y121977D02*
D03*
Y106023D02*
D03*
X176000Y369023D02*
D03*
Y384977D02*
D03*
X138000Y422977D02*
D03*
Y407023D02*
D03*
X235000Y437023D02*
D03*
Y452977D02*
D03*
X215000Y467023D02*
D03*
Y482977D02*
D03*
X108000Y218023D02*
D03*
Y233977D02*
D03*
M02*
