G04*
G04 #@! TF.GenerationSoftware,Altium Limited,Altium Designer,26.7.1 (11)*
G04*
G04 Layer_Physical_Order=2*
G04 Layer_Color=16711680*
G04 Board_Origin=0|0*
%FSLAX44Y44*%
%MOMM*%
G71*
G04*
G04 #@! TF.SameCoordinates,829F16A4-7465-4014-AE08-DF0F6C3C2EE9*
G04*
G04*
G04 #@! TF.FilePolarity,Positive*
G04*
G01*
G75*
%ADD10C,0.2000*%
%ADD14C,0.5000*%
%ADD48C,0.6604*%
%ADD49O,2.1000X1.0000*%
%ADD50O,1.8000X1.0000*%
%ADD53R,1.6002X1.6002*%
%ADD54C,1.6002*%
%ADD55C,1.3970*%
%ADD56R,1.5000X1.5000*%
%ADD57C,1.5000*%
%ADD58C,3.0000*%
%ADD59C,1.5300*%
%ADD60R,1.5300X1.5300*%
%ADD61R,1.6002X1.6002*%
%ADD62C,0.7000*%
%ADD63C,0.3000*%
%ADD64C,0.3500*%
%ADD65C,0.3810*%
%ADD66C,0.4000*%
%ADD68C,1.5080*%
%ADD69R,1.5080X1.5080*%
G36*
X685063Y743946D02*
Y743946D01*
X686986Y743760D01*
X687380Y743708D01*
X689538Y742814D01*
X691392Y741392D01*
X692814Y739538D01*
X693708Y737380D01*
X693760Y736986D01*
X693946Y735063D01*
X693946Y733064D01*
X693946Y515064D01*
X693978Y514905D01*
X694367Y510947D01*
X695568Y506988D01*
X697518Y503340D01*
X700142Y500142D01*
X703340Y497518D01*
X706988Y495568D01*
X710947Y494367D01*
X714905Y493978D01*
X715063Y493946D01*
X778064Y493946D01*
X780063Y493946D01*
X782003Y493801D01*
X783685Y493579D01*
X787060Y492182D01*
X789958Y489958D01*
X792181Y487060D01*
X793579Y483685D01*
X793801Y482003D01*
X793946Y480064D01*
X793946Y480064D01*
X793946Y478097D01*
Y17063D01*
X793946Y17034D01*
X793946Y15064D01*
X793760Y13140D01*
X793708Y12747D01*
X792814Y10589D01*
X791392Y8735D01*
X789538Y7313D01*
X787380Y6419D01*
X785266Y6141D01*
X785063Y6181D01*
X687405D01*
X686463Y7993D01*
X686519Y8181D01*
X688689Y9434D01*
X690566Y11311D01*
X691893Y13609D01*
X692580Y16173D01*
Y16230D01*
X672420D01*
Y16173D01*
X673107Y13609D01*
X674434Y11311D01*
X676311Y9434D01*
X678481Y8181D01*
X678537Y7993D01*
X677595Y6181D01*
X619844D01*
X619581Y8181D01*
X621182Y8610D01*
X623358Y9866D01*
X625134Y11642D01*
X626390Y13818D01*
X627040Y16244D01*
Y18756D01*
X626390Y21182D01*
X625134Y23358D01*
X623358Y25134D01*
X621182Y26390D01*
X618756Y27040D01*
X616244D01*
X613818Y26390D01*
X611642Y25134D01*
X609866Y23358D01*
X608610Y21182D01*
X607960Y18756D01*
Y16244D01*
X608610Y13818D01*
X609866Y11642D01*
X611642Y9866D01*
X613818Y8610D01*
X615419Y8181D01*
X615156Y6181D01*
X184844D01*
X184581Y8181D01*
X186182Y8610D01*
X188358Y9866D01*
X190134Y11642D01*
X191390Y13818D01*
X192040Y16244D01*
Y18756D01*
X191390Y21182D01*
X190134Y23358D01*
X188358Y25134D01*
X186182Y26390D01*
X183756Y27040D01*
X181244D01*
X178818Y26390D01*
X176642Y25134D01*
X174866Y23358D01*
X173610Y21182D01*
X172960Y18756D01*
Y16244D01*
X173610Y13818D01*
X174866Y11642D01*
X176642Y9866D01*
X178818Y8610D01*
X180419Y8181D01*
X180156Y6181D01*
X119844D01*
X119581Y8181D01*
X121182Y8610D01*
X123358Y9866D01*
X125134Y11642D01*
X126390Y13818D01*
X127040Y16244D01*
Y18756D01*
X126390Y21182D01*
X125134Y23358D01*
X123358Y25134D01*
X121182Y26390D01*
X118756Y27040D01*
X116244D01*
X113818Y26390D01*
X111642Y25134D01*
X109866Y23358D01*
X108610Y21182D01*
X107960Y18756D01*
Y16244D01*
X108610Y13818D01*
X109866Y11642D01*
X111642Y9866D01*
X113818Y8610D01*
X115419Y8181D01*
X115156Y6181D01*
X15064D01*
X14861Y6141D01*
X12747Y6419D01*
X10589Y7313D01*
X8735Y8735D01*
X7313Y10589D01*
X6419Y12747D01*
X6141Y14861D01*
X6181Y15064D01*
Y485064D01*
X6141Y485266D01*
X6419Y487380D01*
X7313Y489538D01*
X8735Y491392D01*
X10589Y492814D01*
X12747Y493708D01*
X13140Y493760D01*
X15064Y493946D01*
Y493946D01*
X17034Y493946D01*
X285063D01*
X285222Y493978D01*
X289180Y494367D01*
X293139Y495568D01*
X296787Y497518D01*
X299985Y500142D01*
X302609Y503340D01*
X304559Y506988D01*
X305760Y510947D01*
X306149Y514904D01*
X306181Y515064D01*
Y735063D01*
X306141Y735266D01*
X306419Y737380D01*
X307313Y739538D01*
X308735Y741392D01*
X310589Y742814D01*
X312747Y743708D01*
X313141Y743760D01*
X315063Y743946D01*
Y743946D01*
X317027Y743946D01*
X683100D01*
X685063Y743946D01*
D02*
G37*
%LPC*%
G36*
X645674Y687000D02*
X642326D01*
X639041Y686347D01*
X635947Y685065D01*
X633163Y683205D01*
X630795Y680837D01*
X628935Y678053D01*
X627653Y674959D01*
X627000Y671674D01*
Y668326D01*
X627653Y665041D01*
X628935Y661947D01*
X630795Y659163D01*
X633163Y656795D01*
X635947Y654935D01*
X639041Y653653D01*
X642326Y653000D01*
X645674D01*
X648959Y653653D01*
X652053Y654935D01*
X654837Y656795D01*
X657205Y659163D01*
X659065Y661947D01*
X660347Y665041D01*
X661000Y668326D01*
Y671674D01*
X660347Y674959D01*
X659065Y678053D01*
X657205Y680837D01*
X654837Y683205D01*
X652053Y685065D01*
X648959Y686347D01*
X645674Y687000D01*
D02*
G37*
G36*
X557674D02*
X554326D01*
X551041Y686347D01*
X547948Y685065D01*
X545163Y683205D01*
X542795Y680837D01*
X540935Y678053D01*
X539653Y674959D01*
X539000Y671674D01*
Y668326D01*
X539653Y665041D01*
X540935Y661947D01*
X542795Y659163D01*
X545163Y656795D01*
X547948Y654935D01*
X551041Y653653D01*
X554326Y653000D01*
X557674D01*
X560959Y653653D01*
X564053Y654935D01*
X566837Y656795D01*
X569205Y659163D01*
X571065Y661947D01*
X572347Y665041D01*
X573000Y668326D01*
Y671674D01*
X572347Y674959D01*
X571065Y678053D01*
X569205Y680837D01*
X566837Y683205D01*
X564053Y685065D01*
X560959Y686347D01*
X557674Y687000D01*
D02*
G37*
G36*
X445674D02*
X442326D01*
X439041Y686347D01*
X435947Y685065D01*
X433163Y683205D01*
X430795Y680837D01*
X428935Y678053D01*
X427653Y674959D01*
X427000Y671674D01*
Y668326D01*
X427653Y665041D01*
X428935Y661947D01*
X430795Y659163D01*
X433163Y656795D01*
X435947Y654935D01*
X439041Y653653D01*
X442326Y653000D01*
X445674D01*
X448959Y653653D01*
X452052Y654935D01*
X454837Y656795D01*
X457205Y659163D01*
X459065Y661947D01*
X460347Y665041D01*
X461000Y668326D01*
Y671674D01*
X460347Y674959D01*
X459065Y678053D01*
X457205Y680837D01*
X454837Y683205D01*
X452052Y685065D01*
X448959Y686347D01*
X445674Y687000D01*
D02*
G37*
G36*
X357674D02*
X354326D01*
X351041Y686347D01*
X347948Y685065D01*
X345163Y683205D01*
X342795Y680837D01*
X340935Y678053D01*
X339653Y674959D01*
X339000Y671674D01*
Y668326D01*
X339653Y665041D01*
X340935Y661947D01*
X342795Y659163D01*
X345163Y656795D01*
X347948Y654935D01*
X351041Y653653D01*
X354326Y653000D01*
X357674D01*
X360959Y653653D01*
X364053Y654935D01*
X366837Y656795D01*
X369205Y659163D01*
X371065Y661947D01*
X372347Y665041D01*
X373000Y668326D01*
Y671674D01*
X372347Y674959D01*
X371065Y678053D01*
X369205Y680837D01*
X366837Y683205D01*
X364053Y685065D01*
X360959Y686347D01*
X357674Y687000D01*
D02*
G37*
G36*
X585094Y623500D02*
X582906D01*
X580885Y622663D01*
X580045Y621823D01*
X426650D01*
X425187Y621532D01*
X423946Y620704D01*
X397142Y593899D01*
X394901Y594500D01*
X392399D01*
X389983Y593853D01*
X387817Y592602D01*
X386048Y590833D01*
X384797Y588667D01*
X384150Y586251D01*
Y583749D01*
X384797Y581333D01*
X386048Y579167D01*
X387817Y577398D01*
X389983Y576147D01*
X392399Y575500D01*
X394901D01*
X397317Y576147D01*
X399483Y577398D01*
X401252Y579167D01*
X402503Y581333D01*
X403150Y583749D01*
Y586251D01*
X402549Y588492D01*
X428234Y614177D01*
X578341D01*
X578558Y613864D01*
X577513Y611864D01*
X441932D01*
X440408Y611561D01*
X439117Y610697D01*
X422366Y593947D01*
X420301Y594500D01*
X417799D01*
X415383Y593853D01*
X413217Y592602D01*
X411448Y590833D01*
X410197Y588667D01*
X409550Y586251D01*
Y583749D01*
X410197Y581333D01*
X411448Y579167D01*
X413217Y577398D01*
X415383Y576147D01*
X417799Y575500D01*
X420301D01*
X422717Y576147D01*
X424883Y577398D01*
X426652Y579167D01*
X427902Y581333D01*
X428550Y583749D01*
Y586251D01*
X427997Y588316D01*
X432950Y593269D01*
X434950Y592441D01*
Y575500D01*
X453950D01*
Y588869D01*
X458099Y593018D01*
X560005D01*
X560834Y591018D01*
X560648Y590833D01*
X559397Y588667D01*
X558750Y586251D01*
Y583749D01*
X559397Y581333D01*
X560648Y579167D01*
X562417Y577398D01*
X564583Y576147D01*
X566999Y575500D01*
X569501D01*
X571917Y576147D01*
X574083Y577398D01*
X575852Y579167D01*
X577103Y581333D01*
X577750Y583749D01*
Y586251D01*
X577103Y588667D01*
X575852Y590833D01*
X575667Y591018D01*
X576495Y593018D01*
X585405D01*
X586233Y591018D01*
X586048Y590833D01*
X584797Y588667D01*
X584150Y586251D01*
Y583749D01*
X584797Y581333D01*
X586048Y579167D01*
X587817Y577398D01*
X589827Y576238D01*
Y566987D01*
X587827Y566158D01*
X586783Y567202D01*
X584617Y568453D01*
X582201Y569100D01*
X579699D01*
X577283Y568453D01*
X575117Y567202D01*
X573348Y565433D01*
X572097Y563267D01*
X571450Y560851D01*
Y558349D01*
X572097Y555933D01*
X573348Y553767D01*
X575117Y551998D01*
X577283Y550747D01*
X579699Y550100D01*
X582201D01*
X584617Y550747D01*
X586783Y551998D01*
X587827Y553042D01*
X589827Y552213D01*
Y496413D01*
X589045Y495632D01*
X588208Y493610D01*
Y491422D01*
X589045Y489401D01*
X590593Y487854D01*
X591449Y487499D01*
X592051Y485413D01*
X591119Y484232D01*
X546604D01*
X545776Y486232D01*
X546103Y486559D01*
X547420Y488840D01*
X548101Y491383D01*
Y494017D01*
X547420Y496560D01*
X546103Y498841D01*
X544241Y500703D01*
X541960Y502020D01*
X539417Y502701D01*
X536783D01*
X534240Y502020D01*
X531959Y500703D01*
X530097Y498841D01*
X528781Y496560D01*
X528099Y494017D01*
Y491383D01*
X528781Y488840D01*
X530097Y486559D01*
X530424Y486232D01*
X529596Y484232D01*
X526575D01*
X522000Y488807D01*
X522020Y488840D01*
X522701Y491383D01*
Y494017D01*
X522020Y496560D01*
X520703Y498841D01*
X518841Y500703D01*
X516560Y502020D01*
X514017Y502701D01*
X511383D01*
X508840Y502020D01*
X506559Y500703D01*
X504697Y498841D01*
X503381Y496560D01*
X502699Y494017D01*
Y491383D01*
X503381Y488840D01*
X504697Y486559D01*
X506559Y484697D01*
X508840Y483381D01*
X511383Y482699D01*
X514017D01*
X516560Y483381D01*
X516593Y483400D01*
X522287Y477705D01*
X523528Y476877D01*
X524991Y476586D01*
X530414D01*
X531242Y474586D01*
X530097Y473441D01*
X528781Y471160D01*
X528099Y468617D01*
Y465983D01*
X528781Y463440D01*
X530097Y461159D01*
X531959Y459297D01*
X534240Y457980D01*
X536783Y457299D01*
X539417D01*
X541960Y457980D01*
X544241Y459297D01*
X546103Y461159D01*
X547420Y463440D01*
X548101Y465983D01*
Y468617D01*
X547420Y471160D01*
X546103Y473441D01*
X544958Y474586D01*
X545786Y476586D01*
X593409D01*
X594872Y476877D01*
X596113Y477705D01*
X634454Y516046D01*
X635282Y517287D01*
X635573Y518750D01*
Y550838D01*
X637583Y551998D01*
X639352Y553767D01*
X640603Y555933D01*
X641250Y558349D01*
Y560851D01*
X640603Y563267D01*
X639352Y565433D01*
X637583Y567202D01*
X635417Y568453D01*
X633001Y569100D01*
X630499D01*
X628083Y568453D01*
X625917Y567202D01*
X624148Y565433D01*
X622897Y563267D01*
X622250Y560851D01*
Y558349D01*
X622897Y555933D01*
X624148Y553767D01*
X625917Y551998D01*
X627927Y550838D01*
Y520334D01*
X601056Y493463D01*
X598964Y494200D01*
X598371Y495632D01*
X597473Y496529D01*
Y552213D01*
X599473Y553042D01*
X600517Y551998D01*
X602683Y550747D01*
X605099Y550100D01*
X607601D01*
X610017Y550747D01*
X612183Y551998D01*
X613952Y553767D01*
X615203Y555933D01*
X615850Y558349D01*
Y560851D01*
X615203Y563267D01*
X613952Y565433D01*
X612183Y567202D01*
X610017Y568453D01*
X607601Y569100D01*
X605099D01*
X602683Y568453D01*
X600517Y567202D01*
X599473Y566158D01*
X597473Y566987D01*
Y576238D01*
X599483Y577398D01*
X601252Y579167D01*
X602503Y581333D01*
X603150Y583749D01*
Y586251D01*
X602503Y588667D01*
X601252Y590833D01*
X601067Y591018D01*
X601895Y593018D01*
X610805D01*
X611633Y591018D01*
X611448Y590833D01*
X610197Y588667D01*
X609550Y586251D01*
Y583749D01*
X610197Y581333D01*
X611448Y579167D01*
X613217Y577398D01*
X615383Y576147D01*
X617799Y575500D01*
X620301D01*
X622717Y576147D01*
X624883Y577398D01*
X626652Y579167D01*
X627903Y581333D01*
X628550Y583749D01*
Y586251D01*
X627903Y588667D01*
X626652Y590833D01*
X626466Y591018D01*
X627295Y593018D01*
X630801D01*
X634950Y588869D01*
Y575500D01*
X653950D01*
Y594500D01*
X640581D01*
X635265Y599815D01*
X633974Y600678D01*
X632450Y600981D01*
X607815D01*
X607417Y602981D01*
X607992Y603219D01*
X609539Y604767D01*
X610376Y606788D01*
Y608976D01*
X609539Y610998D01*
X607992Y612545D01*
X605970Y613382D01*
X603782D01*
X601761Y612545D01*
X601080Y611864D01*
X588386D01*
X587642Y613864D01*
X588663Y614884D01*
X589500Y616906D01*
Y619094D01*
X588663Y621115D01*
X587116Y622663D01*
X585094Y623500D01*
D02*
G37*
G36*
X369501Y594500D02*
X366999D01*
X364583Y593853D01*
X362417Y592602D01*
X360648Y590833D01*
X359397Y588667D01*
X358750Y586251D01*
Y583749D01*
X359397Y581333D01*
X360648Y579167D01*
X362417Y577398D01*
X364583Y576147D01*
X366999Y575500D01*
X369501D01*
X371917Y576147D01*
X374083Y577398D01*
X375852Y579167D01*
X377103Y581333D01*
X377750Y583749D01*
Y586251D01*
X377103Y588667D01*
X375852Y590833D01*
X374083Y592602D01*
X371917Y593853D01*
X369501Y594500D01*
D02*
G37*
G36*
X556801Y569100D02*
X554299D01*
X551883Y568453D01*
X549717Y567202D01*
X547948Y565433D01*
X546697Y563267D01*
X546050Y560851D01*
Y558349D01*
X546697Y555933D01*
X547948Y553767D01*
X549717Y551998D01*
X551883Y550747D01*
X554299Y550100D01*
X556801D01*
X559217Y550747D01*
X561383Y551998D01*
X563152Y553767D01*
X564403Y555933D01*
X565050Y558349D01*
Y560851D01*
X564403Y563267D01*
X563152Y565433D01*
X561383Y567202D01*
X559217Y568453D01*
X556801Y569100D01*
D02*
G37*
G36*
X433001D02*
X430499D01*
X428083Y568453D01*
X425917Y567202D01*
X424148Y565433D01*
X422897Y563267D01*
X422250Y560851D01*
Y558349D01*
X422897Y555933D01*
X424148Y553767D01*
X425917Y551998D01*
X428083Y550747D01*
X430499Y550100D01*
X433001D01*
X435417Y550747D01*
X437583Y551998D01*
X439352Y553767D01*
X440602Y555933D01*
X441250Y558349D01*
Y560851D01*
X440602Y563267D01*
X439352Y565433D01*
X437583Y567202D01*
X435417Y568453D01*
X433001Y569100D01*
D02*
G37*
G36*
X407601D02*
X405099D01*
X402683Y568453D01*
X400517Y567202D01*
X398748Y565433D01*
X397497Y563267D01*
X396850Y560851D01*
Y558349D01*
X397497Y555933D01*
X398748Y553767D01*
X400517Y551998D01*
X402683Y550747D01*
X405099Y550100D01*
X407601D01*
X410017Y550747D01*
X412183Y551998D01*
X413952Y553767D01*
X415202Y555933D01*
X415850Y558349D01*
Y560851D01*
X415202Y563267D01*
X413952Y565433D01*
X412183Y567202D01*
X410017Y568453D01*
X407601Y569100D01*
D02*
G37*
G36*
X382201D02*
X379699D01*
X377283Y568453D01*
X375117Y567202D01*
X373348Y565433D01*
X372097Y563267D01*
X371450Y560851D01*
Y558349D01*
X372097Y555933D01*
X373348Y553767D01*
X375117Y551998D01*
X377283Y550747D01*
X379699Y550100D01*
X382201D01*
X384617Y550747D01*
X386783Y551998D01*
X388552Y553767D01*
X389803Y555933D01*
X390450Y558349D01*
Y560851D01*
X389803Y563267D01*
X388552Y565433D01*
X386783Y567202D01*
X384617Y568453D01*
X382201Y569100D01*
D02*
G37*
G36*
X356801D02*
X354299D01*
X351883Y568453D01*
X349717Y567202D01*
X347948Y565433D01*
X346697Y563267D01*
X346050Y560851D01*
Y558349D01*
X346697Y555933D01*
X347948Y553767D01*
X349717Y551998D01*
X351883Y550747D01*
X354299Y550100D01*
X356801D01*
X359217Y550747D01*
X361383Y551998D01*
X363152Y553767D01*
X364403Y555933D01*
X365050Y558349D01*
Y560851D01*
X364403Y563267D01*
X363152Y565433D01*
X361383Y567202D01*
X359217Y568453D01*
X356801Y569100D01*
D02*
G37*
G36*
X488617Y502701D02*
X485983D01*
X483440Y502020D01*
X481159Y500703D01*
X479297Y498841D01*
X477980Y496560D01*
X477299Y494017D01*
Y491383D01*
X477980Y488840D01*
X479297Y486559D01*
X481159Y484697D01*
X483440Y483381D01*
X485983Y482699D01*
X488617D01*
X491160Y483381D01*
X493441Y484697D01*
X495303Y486559D01*
X496619Y488840D01*
X497301Y491383D01*
Y494017D01*
X496619Y496560D01*
X495303Y498841D01*
X493441Y500703D01*
X491160Y502020D01*
X488617Y502701D01*
D02*
G37*
G36*
X471901D02*
X451899D01*
Y482699D01*
X471901D01*
Y502701D01*
D02*
G37*
G36*
X661883Y492985D02*
X659517D01*
X657232Y492373D01*
X655183Y491190D01*
X653510Y489517D01*
X652327Y487468D01*
X651715Y485183D01*
Y482817D01*
X652327Y480532D01*
X653510Y478483D01*
X655183Y476810D01*
X657232Y475627D01*
X659517Y475015D01*
X661883D01*
X664168Y475627D01*
X666217Y476810D01*
X667890Y478483D01*
X669073Y480532D01*
X669685Y482817D01*
Y485183D01*
X669073Y487468D01*
X667890Y489517D01*
X666217Y491190D01*
X664168Y492373D01*
X661883Y492985D01*
D02*
G37*
G36*
X514017Y477301D02*
X511383D01*
X508840Y476619D01*
X506559Y475303D01*
X504697Y473441D01*
X503381Y471160D01*
X502699Y468617D01*
Y465983D01*
X503381Y463440D01*
X504697Y461159D01*
X506559Y459297D01*
X508840Y457980D01*
X511383Y457299D01*
X514017D01*
X516560Y457980D01*
X518841Y459297D01*
X520703Y461159D01*
X522020Y463440D01*
X522701Y465983D01*
Y468617D01*
X522020Y471160D01*
X520703Y473441D01*
X518841Y475303D01*
X516560Y476619D01*
X514017Y477301D01*
D02*
G37*
G36*
X488617D02*
X485983D01*
X483440Y476619D01*
X481159Y475303D01*
X479297Y473441D01*
X477980Y471160D01*
X477299Y468617D01*
Y465983D01*
X477980Y463440D01*
X479297Y461159D01*
X481159Y459297D01*
X483440Y457980D01*
X485983Y457299D01*
X488617D01*
X491160Y457980D01*
X493441Y459297D01*
X495303Y461159D01*
X496619Y463440D01*
X497301Y465983D01*
Y468617D01*
X496619Y471160D01*
X495303Y473441D01*
X493441Y475303D01*
X491160Y476619D01*
X488617Y477301D01*
D02*
G37*
G36*
X463217D02*
X460583D01*
X458040Y476619D01*
X455759Y475303D01*
X453897Y473441D01*
X452580Y471160D01*
X451899Y468617D01*
Y465983D01*
X452580Y463440D01*
X453897Y461159D01*
X455759Y459297D01*
X458040Y457980D01*
X460583Y457299D01*
X463217D01*
X465760Y457980D01*
X468041Y459297D01*
X469903Y461159D01*
X471219Y463440D01*
X471901Y465983D01*
Y468617D01*
X471219Y471160D01*
X469903Y473441D01*
X468041Y475303D01*
X465760Y476619D01*
X463217Y477301D01*
D02*
G37*
G36*
X766674Y482000D02*
X763326D01*
X760041Y481347D01*
X756947Y480065D01*
X754163Y478205D01*
X751795Y475837D01*
X749935Y473052D01*
X748653Y469959D01*
X748000Y466674D01*
Y463326D01*
X748653Y460041D01*
X749935Y456948D01*
X751795Y454163D01*
X754163Y451795D01*
X756947Y449935D01*
X760041Y448653D01*
X763326Y448000D01*
X766674D01*
X769959Y448653D01*
X773053Y449935D01*
X775837Y451795D01*
X778205Y454163D01*
X780065Y456948D01*
X781347Y460041D01*
X782000Y463326D01*
Y466674D01*
X781347Y469959D01*
X780065Y473052D01*
X778205Y475837D01*
X775837Y478205D01*
X773053Y480065D01*
X769959Y481347D01*
X766674Y482000D01*
D02*
G37*
G36*
X36674D02*
X33326D01*
X30041Y481347D01*
X26948Y480065D01*
X24163Y478205D01*
X21795Y475837D01*
X19935Y473052D01*
X18653Y469959D01*
X18000Y466674D01*
Y463326D01*
X18653Y460041D01*
X19935Y456948D01*
X21795Y454163D01*
X24163Y451795D01*
X26948Y449935D01*
X30041Y448653D01*
X33326Y448000D01*
X36674D01*
X39959Y448653D01*
X43053Y449935D01*
X45837Y451795D01*
X48205Y454163D01*
X50065Y456948D01*
X51347Y460041D01*
X52000Y463326D01*
Y466674D01*
X51347Y469959D01*
X50065Y473052D01*
X48205Y475837D01*
X45837Y478205D01*
X43053Y480065D01*
X39959Y481347D01*
X36674Y482000D01*
D02*
G37*
G36*
X636483Y492985D02*
X634117D01*
X631832Y492373D01*
X629783Y491190D01*
X628110Y489517D01*
X626927Y487468D01*
X626315Y485183D01*
Y482817D01*
X626927Y480532D01*
X628110Y478483D01*
X629783Y476810D01*
X631832Y475627D01*
X634117Y475015D01*
X636354D01*
X638018Y473351D01*
Y451000D01*
X638322Y449476D01*
X639185Y448185D01*
X644500Y442869D01*
Y441906D01*
X645337Y439884D01*
X646885Y438337D01*
X648906Y437500D01*
X651094D01*
X653115Y438337D01*
X654663Y439884D01*
X655500Y441906D01*
Y444094D01*
X654663Y446115D01*
X653115Y447663D01*
X651094Y448500D01*
X650131D01*
X645982Y452649D01*
Y475000D01*
X645678Y476524D01*
X644815Y477815D01*
X643097Y479534D01*
X643673Y480532D01*
X644285Y482817D01*
Y485183D01*
X643673Y487468D01*
X642490Y489517D01*
X640817Y491190D01*
X638768Y492373D01*
X636483Y492985D01*
D02*
G37*
G36*
X571183Y441985D02*
X568817D01*
X566532Y441373D01*
X564483Y440190D01*
X562810Y438517D01*
X561627Y436468D01*
X561015Y434183D01*
Y431817D01*
X561627Y429532D01*
X562810Y427483D01*
X564483Y425810D01*
X566532Y424627D01*
X568817Y424015D01*
X571183D01*
X573468Y424627D01*
X575517Y425810D01*
X577190Y427483D01*
X578373Y429532D01*
X578985Y431817D01*
Y434183D01*
X578373Y436468D01*
X577190Y438517D01*
X575517Y440190D01*
X573468Y441373D01*
X571183Y441985D01*
D02*
G37*
G36*
X479270Y417012D02*
Y412270D01*
X484012D01*
X483120Y414421D01*
X481421Y416120D01*
X479270Y417012D01*
D02*
G37*
G36*
X476730D02*
X474579Y416120D01*
X472879Y414421D01*
X471988Y412270D01*
X476730D01*
Y417012D01*
D02*
G37*
G36*
X484012Y409730D02*
X479270D01*
Y404988D01*
X481421Y405880D01*
X483120Y407579D01*
X484012Y409730D01*
D02*
G37*
G36*
X476730D02*
X471988D01*
X472879Y407579D01*
X474579Y405880D01*
X476730Y404988D01*
Y409730D01*
D02*
G37*
G36*
X571183Y416585D02*
X568817D01*
X566532Y415973D01*
X564483Y414790D01*
X562810Y413117D01*
X561627Y411068D01*
X561015Y408783D01*
Y406417D01*
X561627Y404132D01*
X562810Y402083D01*
X564483Y400410D01*
X566532Y399227D01*
X568817Y398615D01*
X571183D01*
X573468Y399227D01*
X575517Y400410D01*
X577190Y402083D01*
X578373Y404132D01*
X578985Y406417D01*
Y408783D01*
X578373Y411068D01*
X577190Y413117D01*
X575517Y414790D01*
X573468Y415973D01*
X571183Y416585D01*
D02*
G37*
G36*
X54088Y398641D02*
X53970D01*
Y389370D01*
X63241D01*
Y389488D01*
X62523Y392169D01*
X61135Y394572D01*
X59172Y396535D01*
X56769Y397923D01*
X54088Y398641D01*
D02*
G37*
G36*
X28688D02*
X28570D01*
Y389370D01*
X37841D01*
Y389488D01*
X37123Y392169D01*
X35735Y394572D01*
X33772Y396535D01*
X31369Y397923D01*
X28688Y398641D01*
D02*
G37*
G36*
X51430D02*
X51312D01*
X48631Y397923D01*
X46228Y396535D01*
X44265Y394572D01*
X42877Y392169D01*
X42159Y389488D01*
Y389370D01*
X51430D01*
Y398641D01*
D02*
G37*
G36*
X26030D02*
X25912D01*
X23231Y397923D01*
X20828Y396535D01*
X18865Y394572D01*
X17477Y392169D01*
X16759Y389488D01*
Y389370D01*
X26030D01*
Y398641D01*
D02*
G37*
G36*
X63241Y386830D02*
X53970D01*
Y377559D01*
X54088D01*
X56769Y378277D01*
X59172Y379665D01*
X61135Y381628D01*
X62523Y384031D01*
X63241Y386712D01*
Y386830D01*
D02*
G37*
G36*
X51430D02*
X42159D01*
Y386712D01*
X42877Y384031D01*
X44265Y381628D01*
X46228Y379665D01*
X48631Y378277D01*
X51312Y377559D01*
X51430D01*
Y386830D01*
D02*
G37*
G36*
X37841D02*
X28570D01*
Y377559D01*
X28688D01*
X31369Y378277D01*
X33772Y379665D01*
X35735Y381628D01*
X37123Y384031D01*
X37841Y386712D01*
Y386830D01*
D02*
G37*
G36*
X26030D02*
X16759D01*
Y386712D01*
X17477Y384031D01*
X18865Y381628D01*
X20828Y379665D01*
X23231Y378277D01*
X25912Y377559D01*
X26030D01*
Y386830D01*
D02*
G37*
G36*
X707094Y420500D02*
X704906D01*
X702885Y419663D01*
X701337Y418116D01*
X700500Y416094D01*
Y413906D01*
X701337Y411884D01*
X702461Y410761D01*
Y383692D01*
X702222Y383453D01*
X701385Y381431D01*
Y379243D01*
X701521Y378914D01*
X700185Y376914D01*
X649717D01*
X625981Y400649D01*
Y404203D01*
X626663Y404884D01*
X627500Y406906D01*
Y409094D01*
X626663Y411115D01*
X625116Y412663D01*
X623094Y413500D01*
X620906D01*
X618885Y412663D01*
X617337Y411115D01*
X616500Y409094D01*
Y406906D01*
X617337Y404884D01*
X618018Y404203D01*
Y399000D01*
X618322Y397476D01*
X619185Y396185D01*
X645252Y370117D01*
X644902Y367946D01*
X644689Y367858D01*
X644008Y367177D01*
X617195D01*
X615671Y366873D01*
X614380Y366010D01*
X607959Y359590D01*
X606850D01*
X604828Y358753D01*
X603281Y357205D01*
X602444Y355184D01*
Y353796D01*
X600464Y352947D01*
X597627Y355784D01*
X596138Y356779D01*
X594383Y357128D01*
X489099D01*
X487762Y359128D01*
X488012Y359730D01*
X475988D01*
X476271Y359048D01*
X474935Y357048D01*
X308460D01*
X306704Y356699D01*
X305216Y355704D01*
X283011Y333500D01*
X282906D01*
X280884Y332663D01*
X279337Y331115D01*
X278500Y329094D01*
Y326906D01*
X279337Y324884D01*
X280884Y323337D01*
X282906Y322500D01*
X285094D01*
X287115Y323337D01*
X288663Y324884D01*
X289500Y326906D01*
Y327011D01*
X310360Y347872D01*
X485537D01*
X485940Y347952D01*
X540561D01*
X541855Y345952D01*
X541500Y345094D01*
Y342906D01*
X542337Y340885D01*
X543885Y339337D01*
X545906Y338500D01*
X545910D01*
X545910Y338500D01*
X544925Y336500D01*
X544906D01*
X542884Y335663D01*
X541337Y334115D01*
X540500Y332094D01*
Y329906D01*
X541337Y327884D01*
X542884Y326337D01*
X544906Y325500D01*
X546093D01*
X573832Y297761D01*
X575072Y296932D01*
X576535Y296641D01*
X577551D01*
X605177Y269016D01*
Y243955D01*
X604337Y243116D01*
X603500Y241094D01*
Y238906D01*
X604337Y236884D01*
X605885Y235337D01*
X607906Y234500D01*
X610094D01*
X612116Y235337D01*
X613663Y236884D01*
X614500Y238906D01*
Y241094D01*
X613663Y243116D01*
X612823Y243955D01*
Y270599D01*
X612805Y270693D01*
X614648Y271678D01*
X618177Y268150D01*
Y243955D01*
X617337Y243116D01*
X616500Y241094D01*
Y238906D01*
X617337Y236884D01*
X618885Y235337D01*
X620906Y234500D01*
X623094D01*
X625116Y235337D01*
X626663Y236884D01*
X627500Y238906D01*
Y241094D01*
X626663Y243116D01*
X625823Y243955D01*
Y269733D01*
X625532Y271196D01*
X624704Y272437D01*
X552500Y344640D01*
Y345094D01*
X552145Y345952D01*
X553439Y347952D01*
X592482D01*
X620217Y320217D01*
X621705Y319223D01*
X623461Y318873D01*
X623638D01*
X649500Y293011D01*
Y292906D01*
X650337Y290884D01*
X651885Y289337D01*
X653906Y288500D01*
X656094D01*
X658115Y289337D01*
X659663Y290884D01*
X660500Y292906D01*
Y295094D01*
X659663Y297115D01*
X658115Y298663D01*
X656094Y299500D01*
X655989D01*
X628783Y326706D01*
X627295Y327700D01*
X625539Y328050D01*
X625362D01*
X614759Y338652D01*
X615258Y340982D01*
X616115Y341337D01*
X616797Y342019D01*
X647000D01*
X648524Y342322D01*
X649815Y343185D01*
X658131Y351500D01*
X659094D01*
X661115Y352337D01*
X662663Y353885D01*
X663500Y355906D01*
Y358094D01*
X662663Y360116D01*
X661115Y361663D01*
X659094Y362500D01*
X656906D01*
X655173Y361782D01*
X654020Y362346D01*
X653305Y362912D01*
Y364289D01*
X652468Y366311D01*
X651827Y366951D01*
X652656Y368951D01*
X724916D01*
X726439Y369254D01*
X727731Y370117D01*
X731882Y374268D01*
X748398D01*
X749080Y373587D01*
X751101Y372750D01*
X753289D01*
X755311Y373587D01*
X756858Y375135D01*
X757695Y377156D01*
Y379344D01*
X756858Y381366D01*
X755311Y382913D01*
X753289Y383750D01*
X751101D01*
X749080Y382913D01*
X748398Y382231D01*
X730233D01*
X728710Y381928D01*
X727418Y381065D01*
X723267Y376914D01*
X713584D01*
X712248Y378914D01*
X712384Y379243D01*
Y381431D01*
X711547Y383453D01*
X710424Y384576D01*
Y411646D01*
X710663Y411884D01*
X711500Y413906D01*
Y416094D01*
X710663Y418116D01*
X709116Y419663D01*
X707094Y420500D01*
D02*
G37*
G36*
X483270Y367012D02*
Y362270D01*
X488012D01*
X487121Y364421D01*
X485421Y366120D01*
X483270Y367012D01*
D02*
G37*
G36*
X480730D02*
X478579Y366120D01*
X476880Y364421D01*
X475988Y362270D01*
X480730D01*
Y367012D01*
D02*
G37*
G36*
X28617Y372701D02*
X25983D01*
X23440Y372020D01*
X21159Y370703D01*
X19297Y368841D01*
X17981Y366560D01*
X17299Y364017D01*
Y361383D01*
X17981Y358840D01*
X19297Y356559D01*
X21159Y354697D01*
X23440Y353381D01*
X25983Y352699D01*
X28617D01*
X31160Y353381D01*
X33441Y354697D01*
X35303Y356559D01*
X36620Y358840D01*
X37301Y361383D01*
Y364017D01*
X36620Y366560D01*
X35303Y368841D01*
X33441Y370703D01*
X31160Y372020D01*
X28617Y372701D01*
D02*
G37*
G36*
X433094Y343500D02*
X430906D01*
X428885Y342663D01*
X428045Y341823D01*
X366955D01*
X366115Y342663D01*
X364094Y343500D01*
X361906D01*
X359884Y342663D01*
X358337Y341115D01*
X357500Y339094D01*
Y336906D01*
X358337Y334884D01*
X359884Y333337D01*
X361906Y332500D01*
X362109D01*
X362635Y331253D01*
X362722Y330500D01*
X361337Y329115D01*
X360500Y327094D01*
Y324906D01*
X361337Y322884D01*
X362884Y321337D01*
X364592Y320630D01*
X364677Y320500D01*
X364004Y318755D01*
X363772Y318444D01*
X361884Y317663D01*
X360337Y316115D01*
X359500Y314094D01*
Y311906D01*
X360337Y309884D01*
X361884Y308337D01*
X363000Y307875D01*
Y305711D01*
X362884Y305663D01*
X361337Y304116D01*
X360500Y302094D01*
Y299906D01*
X361337Y297885D01*
X362884Y296337D01*
X364906Y295500D01*
X366431D01*
Y63450D01*
X366398Y63377D01*
X364555Y61979D01*
X363170Y62350D01*
X360630D01*
X358175Y61692D01*
X355975Y60422D01*
X354178Y58625D01*
X352908Y56425D01*
X352250Y53970D01*
Y51430D01*
X352908Y48975D01*
X354178Y46775D01*
X355975Y44978D01*
X358175Y43708D01*
X360630Y43050D01*
X363170D01*
X365625Y43708D01*
X367825Y44978D01*
X369622Y46775D01*
X370892Y48975D01*
X371550Y51430D01*
Y53970D01*
X370892Y56425D01*
X370812Y56565D01*
X372523Y58277D01*
X373297Y59434D01*
X373569Y60800D01*
Y296556D01*
X374635Y297236D01*
X375522Y297431D01*
X383731Y289222D01*
Y61734D01*
X383575Y61692D01*
X381375Y60422D01*
X379578Y58625D01*
X378308Y56425D01*
X377650Y53970D01*
Y51430D01*
X378308Y48975D01*
X379578Y46775D01*
X381375Y44978D01*
X383575Y43708D01*
X386030Y43050D01*
X388570D01*
X391025Y43708D01*
X393225Y44978D01*
X395022Y46775D01*
X396292Y48975D01*
X396950Y51430D01*
Y53970D01*
X396292Y56425D01*
X395022Y58625D01*
X393225Y60422D01*
X391025Y61692D01*
X390869Y61734D01*
Y290700D01*
X390597Y292066D01*
X389823Y293223D01*
X371183Y311864D01*
X371272Y312853D01*
X373348Y313605D01*
X409131Y277822D01*
Y61734D01*
X408975Y61692D01*
X406775Y60422D01*
X404978Y58625D01*
X403708Y56425D01*
X403050Y53970D01*
Y51430D01*
X403708Y48975D01*
X404978Y46775D01*
X406775Y44978D01*
X408975Y43708D01*
X411429Y43050D01*
X413970D01*
X416425Y43708D01*
X418625Y44978D01*
X420422Y46775D01*
X421692Y48975D01*
X422350Y51430D01*
Y53970D01*
X421692Y56425D01*
X420422Y58625D01*
X418625Y60422D01*
X416425Y61692D01*
X416269Y61734D01*
Y279300D01*
X415997Y280666D01*
X415223Y281823D01*
X371500Y325547D01*
Y327094D01*
X370663Y329115D01*
X369115Y330663D01*
X367972Y331136D01*
X367173Y333130D01*
X367189Y333461D01*
X368016Y334177D01*
X428045D01*
X428885Y333337D01*
X430906Y332500D01*
X433094D01*
X435116Y333337D01*
X436663Y334884D01*
X437500Y336906D01*
Y339094D01*
X436663Y341115D01*
X435116Y342663D01*
X433094Y343500D01*
D02*
G37*
G36*
X743094Y371500D02*
X740906D01*
X738885Y370663D01*
X737337Y369115D01*
X736500Y367094D01*
Y364906D01*
X737337Y362884D01*
X738885Y361337D01*
X740906Y360500D01*
X741869D01*
X747019Y355351D01*
Y338797D01*
X746337Y338116D01*
X745500Y336094D01*
Y333906D01*
X746337Y331884D01*
X747885Y330337D01*
X749906Y329500D01*
X752094D01*
X754116Y330337D01*
X755663Y331884D01*
X756500Y333906D01*
Y336094D01*
X755663Y338116D01*
X754982Y338797D01*
Y357000D01*
X754678Y358524D01*
X753815Y359815D01*
X747500Y366131D01*
Y367094D01*
X746663Y369115D01*
X745116Y370663D01*
X743094Y371500D01*
D02*
G37*
G36*
X54017Y347301D02*
X51383D01*
X48840Y346619D01*
X46559Y345303D01*
X44697Y343441D01*
X43380Y341160D01*
X42699Y338617D01*
Y335983D01*
X43380Y333440D01*
X44697Y331159D01*
X46559Y329297D01*
X48840Y327980D01*
X51383Y327299D01*
X54017D01*
X56560Y327980D01*
X58841Y329297D01*
X60703Y331159D01*
X62020Y333440D01*
X62701Y335983D01*
Y338617D01*
X62020Y341160D01*
X60703Y343441D01*
X58841Y345303D01*
X56560Y346619D01*
X54017Y347301D01*
D02*
G37*
G36*
X28617D02*
X25983D01*
X23440Y346619D01*
X21159Y345303D01*
X19297Y343441D01*
X17981Y341160D01*
X17299Y338617D01*
Y335983D01*
X17981Y333440D01*
X19297Y331159D01*
X21159Y329297D01*
X23440Y327980D01*
X25983Y327299D01*
X28617D01*
X31160Y327980D01*
X33441Y329297D01*
X35303Y331159D01*
X36620Y333440D01*
X37301Y335983D01*
Y338617D01*
X36620Y341160D01*
X35303Y343441D01*
X33441Y345303D01*
X31160Y346619D01*
X28617Y347301D01*
D02*
G37*
G36*
X54017Y321901D02*
X51383D01*
X48840Y321219D01*
X46559Y319903D01*
X44697Y318041D01*
X43380Y315760D01*
X43302Y315469D01*
X37301D01*
Y321901D01*
X17299D01*
Y301899D01*
X37301D01*
Y308331D01*
X43302D01*
X43380Y308040D01*
X44697Y305759D01*
X46559Y303897D01*
X48840Y302581D01*
X51383Y301899D01*
X54017D01*
X56560Y302581D01*
X58841Y303897D01*
X60703Y305759D01*
X62020Y308040D01*
X62701Y310583D01*
Y313217D01*
X62020Y315760D01*
X60703Y318041D01*
X58841Y319903D01*
X56560Y321219D01*
X54017Y321901D01*
D02*
G37*
G36*
X188127Y337553D02*
X187862Y337500D01*
X186906D01*
X184884Y336663D01*
X183337Y335116D01*
X183018Y334344D01*
X169227Y320553D01*
X151127D01*
X150862Y320500D01*
X149906D01*
X147885Y319663D01*
X146337Y318116D01*
X145500Y316094D01*
Y313906D01*
X146337Y311884D01*
X147885Y310337D01*
X149906Y309500D01*
X152094D01*
X154115Y310337D01*
X155154Y311376D01*
X171127D01*
X172883Y311726D01*
X174371Y312720D01*
X188151Y326500D01*
X189094D01*
X191115Y327337D01*
X192663Y328885D01*
X193500Y330906D01*
Y333094D01*
X192663Y335116D01*
X191115Y336663D01*
X190002Y337124D01*
X189883Y337203D01*
X189743Y337231D01*
X189094Y337500D01*
X188392D01*
X188127Y337553D01*
D02*
G37*
G36*
X201094Y320500D02*
X198906D01*
X196884Y319663D01*
X195337Y318116D01*
X194500Y316094D01*
Y315989D01*
X176410Y297899D01*
X155545D01*
X154094Y298500D01*
X151906D01*
X149885Y297663D01*
X148337Y296115D01*
X147500Y294094D01*
Y291906D01*
X148337Y289884D01*
X149885Y288337D01*
X151906Y287500D01*
X154094D01*
X156116Y288337D01*
X156501Y288723D01*
X178311D01*
X180067Y289072D01*
X181555Y290067D01*
X200989Y309500D01*
X201094D01*
X203116Y310337D01*
X204663Y311884D01*
X205500Y313906D01*
Y316094D01*
X204663Y318116D01*
X203116Y319663D01*
X201094Y320500D01*
D02*
G37*
G36*
X206730Y297012D02*
X204579Y296120D01*
X204500Y296042D01*
X204421Y296120D01*
X202270Y297012D01*
Y291000D01*
Y284988D01*
X204421Y285879D01*
X204500Y285958D01*
X204579Y285879D01*
X206730Y284988D01*
Y291000D01*
Y297012D01*
D02*
G37*
G36*
X199730D02*
X197579Y296120D01*
X197500Y296042D01*
X197421Y296120D01*
X195270Y297012D01*
Y291000D01*
Y284988D01*
X197421Y285879D01*
X197500Y285958D01*
X197579Y285879D01*
X199730Y284988D01*
Y291000D01*
Y297012D01*
D02*
G37*
G36*
X209270D02*
Y292270D01*
X214012D01*
X213120Y294421D01*
X211421Y296120D01*
X209270Y297012D01*
D02*
G37*
G36*
X192730D02*
X190579Y296120D01*
X188880Y294421D01*
X187988Y292270D01*
X192730D01*
Y297012D01*
D02*
G37*
G36*
X214012Y289730D02*
X209270D01*
Y284988D01*
X211421Y285879D01*
X213120Y287579D01*
X214012Y289730D01*
D02*
G37*
G36*
X192730D02*
X187988D01*
X188880Y287579D01*
X190579Y285879D01*
X192730Y284988D01*
Y289730D01*
D02*
G37*
G36*
X158270Y270012D02*
Y265270D01*
X163012D01*
X162120Y267421D01*
X160421Y269121D01*
X158270Y270012D01*
D02*
G37*
G36*
X155730D02*
X153579Y269121D01*
X151880Y267421D01*
X150988Y265270D01*
X155730D01*
Y270012D01*
D02*
G37*
G36*
X326094Y281500D02*
X323906D01*
X321884Y280663D01*
X320337Y279116D01*
X319500Y277094D01*
Y275547D01*
X311477Y267523D01*
X310703Y266366D01*
X310453Y265109D01*
X310213Y264849D01*
X308431Y263946D01*
X307094Y264500D01*
X304906D01*
X302885Y263663D01*
X301337Y262115D01*
X300500Y260094D01*
Y257906D01*
X301337Y255884D01*
X302431Y254790D01*
Y241960D01*
X300431Y240946D01*
X299094Y241500D01*
X296906D01*
X294884Y240663D01*
X293337Y239116D01*
X292500Y237094D01*
Y234906D01*
X293337Y232885D01*
X293922Y232300D01*
Y228836D01*
X293207Y228330D01*
X291922Y227806D01*
X290245Y228500D01*
X288057D01*
X286036Y227663D01*
X285452Y227078D01*
X158000D01*
X156439Y226768D01*
X156212Y226616D01*
X154937Y228170D01*
X172689Y245922D01*
X289300D01*
X289884Y245337D01*
X291906Y244500D01*
X294094D01*
X296115Y245337D01*
X297663Y246884D01*
X298500Y248906D01*
Y251094D01*
X297663Y253116D01*
X296115Y254663D01*
X294094Y255500D01*
X291906D01*
X289884Y254663D01*
X289300Y254078D01*
X171000D01*
X171000Y254078D01*
X169439Y253768D01*
X168116Y252884D01*
X168116Y252884D01*
X87732Y172500D01*
X86906D01*
X84885Y171663D01*
X83337Y170116D01*
X82500Y168094D01*
Y165906D01*
X83337Y163885D01*
X84885Y162337D01*
X86378Y161719D01*
X87375Y160073D01*
X87563Y159500D01*
X87296Y158890D01*
X85274Y158052D01*
X83727Y156505D01*
X82890Y154484D01*
Y152296D01*
X83727Y150274D01*
X85274Y148727D01*
X87296Y147890D01*
X89484D01*
X91505Y148727D01*
X93052Y150274D01*
X93890Y152296D01*
Y153122D01*
X159689Y218922D01*
X285002D01*
X285823Y218078D01*
X284979Y216078D01*
X176000D01*
X176000Y216078D01*
X174439Y215768D01*
X173116Y214884D01*
X173116Y214884D01*
X87732Y129500D01*
X86906D01*
X84885Y128663D01*
X83337Y127115D01*
X82500Y125094D01*
Y122906D01*
X83337Y120885D01*
X84885Y119337D01*
X86906Y118500D01*
X89094D01*
X91116Y119337D01*
X92663Y120885D01*
X93500Y122906D01*
Y123732D01*
X177689Y207922D01*
X250767D01*
X251672Y205922D01*
X250988Y204270D01*
X263012D01*
X262327Y205922D01*
X263233Y207922D01*
X294848D01*
X294848Y207922D01*
X296409Y208232D01*
X297732Y209116D01*
X300431Y211816D01*
X302217Y211244D01*
X302431Y211080D01*
Y74478D01*
X289565Y61611D01*
X289425Y61692D01*
X286970Y62350D01*
X284429D01*
X281975Y61692D01*
X279775Y60422D01*
X277978Y58625D01*
X276708Y56425D01*
X276050Y53970D01*
Y51430D01*
X276708Y48975D01*
X277978Y46775D01*
X279775Y44978D01*
X281975Y43708D01*
X284429Y43050D01*
X286970D01*
X289425Y43708D01*
X291625Y44978D01*
X293422Y46775D01*
X294692Y48975D01*
X295350Y51430D01*
Y53970D01*
X294692Y56425D01*
X294611Y56565D01*
X308431Y70385D01*
X308825Y70359D01*
X310431Y69732D01*
Y62350D01*
X309830D01*
X307375Y61692D01*
X305175Y60422D01*
X303378Y58625D01*
X302108Y56425D01*
X301450Y53970D01*
Y51430D01*
X302108Y48975D01*
X303378Y46775D01*
X305175Y44978D01*
X307375Y43708D01*
X309830Y43050D01*
X312370D01*
X314825Y43708D01*
X317025Y44978D01*
X318822Y46775D01*
X320092Y48975D01*
X320750Y51430D01*
Y53970D01*
X320092Y56425D01*
X318822Y58625D01*
X317448Y59999D01*
X317569Y60607D01*
Y263522D01*
X324547Y270500D01*
X326094D01*
X328116Y271337D01*
X329663Y272885D01*
X330500Y274906D01*
Y277094D01*
X329663Y279116D01*
X328116Y280663D01*
X326094Y281500D01*
D02*
G37*
G36*
X163012Y262730D02*
X158270D01*
Y257988D01*
X160421Y258880D01*
X162120Y260579D01*
X163012Y262730D01*
D02*
G37*
G36*
X155730D02*
X150988D01*
X151880Y260579D01*
X153579Y258880D01*
X155730Y257988D01*
Y262730D01*
D02*
G37*
G36*
X100270Y241012D02*
Y236270D01*
X105012D01*
X104121Y238421D01*
X102421Y240121D01*
X100270Y241012D01*
D02*
G37*
G36*
X97730D02*
X95579Y240121D01*
X93879Y238421D01*
X92988Y236270D01*
X97730D01*
Y241012D01*
D02*
G37*
G36*
X105012Y233730D02*
X100270D01*
Y228988D01*
X102421Y229880D01*
X104121Y231579D01*
X105012Y233730D01*
D02*
G37*
G36*
X97730D02*
X92988D01*
X93879Y231579D01*
X95579Y229880D01*
X97730Y228988D01*
Y233730D01*
D02*
G37*
G36*
X54017Y372701D02*
X51383D01*
X48840Y372020D01*
X46559Y370703D01*
X44697Y368841D01*
X43380Y366560D01*
X42699Y364017D01*
Y361383D01*
X43380Y358840D01*
X44697Y356559D01*
X46559Y354697D01*
X48840Y353381D01*
X51383Y352699D01*
X54017D01*
X55748Y353163D01*
X75412Y333499D01*
Y226190D01*
X75337Y226115D01*
X74500Y224094D01*
Y221906D01*
X75337Y219884D01*
X76884Y218337D01*
X78906Y217500D01*
X81094D01*
X83116Y218337D01*
X84663Y219884D01*
X85500Y221906D01*
Y224094D01*
X84663Y226115D01*
X84588Y226190D01*
Y335400D01*
X84239Y337156D01*
X83244Y338644D01*
X62237Y359652D01*
X62701Y361383D01*
Y364017D01*
X62020Y366560D01*
X60703Y368841D01*
X58841Y370703D01*
X56560Y372020D01*
X54017Y372701D01*
D02*
G37*
G36*
X263012Y201730D02*
X258270D01*
Y196988D01*
X260421Y197880D01*
X262120Y199579D01*
X263012Y201730D01*
D02*
G37*
G36*
X255730D02*
X250988D01*
X251880Y199579D01*
X253579Y197880D01*
X255730Y196988D01*
Y201730D01*
D02*
G37*
G36*
X774692Y159756D02*
X766692D01*
X764995Y159533D01*
X763414Y158878D01*
X762056Y157836D01*
X761014Y156478D01*
X760359Y154897D01*
X760136Y153200D01*
X760359Y151503D01*
X761014Y149922D01*
X762056Y148564D01*
X763414Y147522D01*
X764995Y146867D01*
X766692Y146644D01*
X774692D01*
X776389Y146867D01*
X777970Y147522D01*
X779328Y148564D01*
X780370Y149922D01*
X781025Y151503D01*
X781248Y153200D01*
X781025Y154897D01*
X780370Y156478D01*
X779328Y157836D01*
X777970Y158878D01*
X776389Y159533D01*
X774692Y159756D01*
D02*
G37*
G36*
X734392D02*
X723392D01*
X721695Y159533D01*
X720114Y158878D01*
X718756Y157836D01*
X717714Y156478D01*
X717059Y154897D01*
X716836Y153200D01*
X717059Y151503D01*
X717714Y149922D01*
X718756Y148564D01*
X720114Y147522D01*
X721695Y146867D01*
X723392Y146644D01*
X734392D01*
X736089Y146867D01*
X737670Y147522D01*
X739028Y148564D01*
X740070Y149922D01*
X740725Y151503D01*
X740948Y153200D01*
X740725Y154897D01*
X740070Y156478D01*
X739028Y157836D01*
X737670Y158878D01*
X736089Y159533D01*
X734392Y159756D01*
D02*
G37*
G36*
X734847Y143702D02*
X732937D01*
X731172Y142971D01*
X729821Y141620D01*
X729090Y139855D01*
Y137945D01*
X729821Y136180D01*
X731172Y134829D01*
X732937Y134098D01*
X734847D01*
X736612Y134829D01*
X737963Y136180D01*
X738694Y137945D01*
Y139855D01*
X737963Y141620D01*
X736612Y142971D01*
X734847Y143702D01*
D02*
G37*
G36*
X606094Y138500D02*
X603906D01*
X601884Y137663D01*
X600337Y136116D01*
X599500Y134094D01*
Y131906D01*
X600337Y129885D01*
X601884Y128337D01*
X603906Y127500D01*
X606094D01*
X607623Y128133D01*
X608294Y128000D01*
X608294Y128000D01*
X679500D01*
Y126906D01*
X680337Y124885D01*
X681885Y123337D01*
X683906Y122500D01*
X686094D01*
X688115Y123337D01*
X689663Y124885D01*
X690500Y126906D01*
Y129094D01*
X689663Y131116D01*
X688115Y132663D01*
X686094Y133500D01*
X683906D01*
X683393Y133287D01*
X682499Y133885D01*
X681328Y134118D01*
X681328Y134117D01*
X610490D01*
X609663Y136116D01*
X608116Y137663D01*
X606094Y138500D01*
D02*
G37*
G36*
X679270Y117012D02*
Y112270D01*
X684012D01*
X683120Y114421D01*
X681421Y116121D01*
X679270Y117012D01*
D02*
G37*
G36*
X676730D02*
X674579Y116121D01*
X672879Y114421D01*
X671988Y112270D01*
X676730D01*
Y117012D01*
D02*
G37*
G36*
X684012Y109730D02*
X679270D01*
Y104988D01*
X681421Y105879D01*
X683120Y107579D01*
X684012Y109730D01*
D02*
G37*
G36*
X676730D02*
X671988D01*
X672879Y107579D01*
X674579Y105879D01*
X676730Y104988D01*
Y109730D01*
D02*
G37*
G36*
X693355Y122000D02*
X691167D01*
X689146Y121163D01*
X687599Y119615D01*
X686761Y117594D01*
Y115406D01*
X687599Y113385D01*
X689146Y111837D01*
X689202Y111814D01*
Y105779D01*
X689202Y105779D01*
X689435Y104608D01*
X690098Y103616D01*
X692523Y101191D01*
X692500Y101134D01*
Y98946D01*
X693337Y96924D01*
X694884Y95377D01*
X696906Y94540D01*
X699094D01*
X701115Y95377D01*
X702663Y96924D01*
X703500Y98946D01*
Y101134D01*
X702663Y103155D01*
X701115Y104703D01*
X699094Y105540D01*
X696906D01*
X696849Y105517D01*
X695320Y107046D01*
Y111814D01*
X695377Y111837D01*
X696924Y113385D01*
X697761Y115406D01*
Y117594D01*
X696924Y119615D01*
X695377Y121163D01*
X693355Y122000D01*
D02*
G37*
G36*
X605270Y89012D02*
Y84270D01*
X610012D01*
X609120Y86421D01*
X607421Y88120D01*
X605270Y89012D01*
D02*
G37*
G36*
X602730D02*
X600579Y88120D01*
X598880Y86421D01*
X597988Y84270D01*
X602730D01*
Y89012D01*
D02*
G37*
G36*
X610012Y81730D02*
X605270D01*
Y76988D01*
X607421Y77880D01*
X609120Y79579D01*
X610012Y81730D01*
D02*
G37*
G36*
X602730D02*
X597988D01*
X598880Y79579D01*
X600579Y77880D01*
X602730Y76988D01*
Y81730D01*
D02*
G37*
G36*
X734847Y85902D02*
X732937D01*
X731172Y85171D01*
X729821Y83820D01*
X729090Y82055D01*
Y80145D01*
X729821Y78380D01*
X731172Y77029D01*
X732937Y76298D01*
X734847D01*
X736612Y77029D01*
X737963Y78380D01*
X738694Y80145D01*
Y82055D01*
X737963Y83820D01*
X736612Y85171D01*
X734847Y85902D01*
D02*
G37*
G36*
X593602Y184008D02*
X591414D01*
X589393Y183171D01*
X587846Y181624D01*
X587008Y179602D01*
Y178416D01*
X571296Y162704D01*
X570468Y161463D01*
X570177Y160000D01*
Y81955D01*
X569337Y81116D01*
X568500Y79094D01*
Y76906D01*
X569337Y74885D01*
X570885Y73337D01*
X572906Y72500D01*
X575094D01*
X577116Y73337D01*
X578663Y74885D01*
X579500Y76906D01*
Y79094D01*
X578663Y81116D01*
X577823Y81955D01*
Y158416D01*
X592416Y173008D01*
X593602D01*
X595624Y173846D01*
X597171Y175393D01*
X598008Y177414D01*
Y179602D01*
X597171Y181624D01*
X595624Y183171D01*
X593602Y184008D01*
D02*
G37*
G36*
X774692Y73356D02*
X766692D01*
X764995Y73133D01*
X763414Y72478D01*
X762056Y71436D01*
X761014Y70078D01*
X760359Y68497D01*
X760136Y66800D01*
X760359Y65103D01*
X761014Y63522D01*
X762056Y62164D01*
X763414Y61122D01*
X764995Y60467D01*
X766692Y60244D01*
X774692D01*
X776389Y60467D01*
X777970Y61122D01*
X779328Y62164D01*
X780370Y63522D01*
X781025Y65103D01*
X781248Y66800D01*
X781025Y68497D01*
X780370Y70078D01*
X779328Y71436D01*
X777970Y72478D01*
X776389Y73133D01*
X774692Y73356D01*
D02*
G37*
G36*
X734392D02*
X723392D01*
X721695Y73133D01*
X720114Y72478D01*
X718756Y71436D01*
X717714Y70078D01*
X717059Y68497D01*
X716836Y66800D01*
X717059Y65103D01*
X717714Y63522D01*
X718756Y62164D01*
X720114Y61122D01*
X721695Y60467D01*
X723392Y60244D01*
X734392D01*
X736089Y60467D01*
X737670Y61122D01*
X739028Y62164D01*
X740070Y63522D01*
X740725Y65103D01*
X740948Y66800D01*
X740725Y68497D01*
X740070Y70078D01*
X739028Y71436D01*
X737670Y72478D01*
X736089Y73133D01*
X734392Y73356D01*
D02*
G37*
G36*
X510094Y296500D02*
X507906D01*
X505885Y295663D01*
X504337Y294116D01*
X503500Y292094D01*
Y290547D01*
X449287Y236333D01*
X448513Y235176D01*
X448241Y233810D01*
Y58435D01*
X446241Y57899D01*
X445822Y58625D01*
X444025Y60422D01*
X441825Y61692D01*
X439370Y62350D01*
X436829D01*
X434375Y61692D01*
X432175Y60422D01*
X430378Y58625D01*
X429108Y56425D01*
X428450Y53970D01*
Y51430D01*
X429108Y48975D01*
X430378Y46775D01*
X432175Y44978D01*
X434375Y43708D01*
X436829Y43050D01*
X439370D01*
X441825Y43708D01*
X444025Y44978D01*
X445822Y46775D01*
X446241Y47501D01*
X448241Y46965D01*
Y38990D01*
X448513Y37624D01*
X449287Y36467D01*
X454589Y31165D01*
X454508Y31025D01*
X453850Y28570D01*
Y26030D01*
X454508Y23575D01*
X455778Y21375D01*
X457575Y19578D01*
X459775Y18308D01*
X462229Y17650D01*
X464770D01*
X467225Y18308D01*
X469425Y19578D01*
X471222Y21375D01*
X472492Y23575D01*
X473150Y26030D01*
Y28570D01*
X472492Y31025D01*
X471222Y33225D01*
X469425Y35022D01*
X467225Y36292D01*
X464770Y36950D01*
X462229D01*
X459775Y36292D01*
X459635Y36212D01*
X455379Y40468D01*
Y44346D01*
X457379Y45174D01*
X457575Y44978D01*
X459775Y43708D01*
X462229Y43050D01*
X464770D01*
X467225Y43708D01*
X469425Y44978D01*
X471222Y46775D01*
X472492Y48975D01*
X473150Y51430D01*
Y53970D01*
X472492Y56425D01*
X471222Y58625D01*
X469425Y60422D01*
X467225Y61692D01*
X464770Y62350D01*
X462229D01*
X459775Y61692D01*
X457575Y60422D01*
X457379Y60226D01*
X455379Y61054D01*
Y232332D01*
X508547Y285500D01*
X510094D01*
X512116Y286337D01*
X513663Y287885D01*
X514500Y289906D01*
Y292094D01*
X513663Y294116D01*
X512116Y295663D01*
X510094Y296500D01*
D02*
G37*
G36*
X683756Y72040D02*
X681244D01*
X678818Y71390D01*
X676642Y70134D01*
X674866Y68358D01*
X673610Y66182D01*
X672960Y63756D01*
Y61244D01*
X673610Y58818D01*
X674866Y56642D01*
X676642Y54866D01*
X678818Y53610D01*
X681244Y52960D01*
X683756D01*
X686182Y53610D01*
X688358Y54866D01*
X690134Y56642D01*
X691390Y58818D01*
X692040Y61244D01*
Y63756D01*
X691390Y66182D01*
X690134Y68358D01*
X688358Y70134D01*
X686182Y71390D01*
X683756Y72040D01*
D02*
G37*
G36*
X627040D02*
X607960D01*
Y52960D01*
X627040D01*
Y72040D01*
D02*
G37*
G36*
X183756D02*
X181244D01*
X178818Y71390D01*
X176642Y70134D01*
X174866Y68358D01*
X173610Y66182D01*
X172960Y63756D01*
Y61244D01*
X173610Y58818D01*
X174866Y56642D01*
X176642Y54866D01*
X178818Y53610D01*
X181244Y52960D01*
X183756D01*
X186182Y53610D01*
X188358Y54866D01*
X190134Y56642D01*
X191390Y58818D01*
X192040Y61244D01*
Y63756D01*
X191390Y66182D01*
X190134Y68358D01*
X188358Y70134D01*
X186182Y71390D01*
X183756Y72040D01*
D02*
G37*
G36*
X127040D02*
X107960D01*
Y52960D01*
X127040D01*
Y72040D01*
D02*
G37*
G36*
X540970Y62350D02*
X538429D01*
X535975Y61692D01*
X533775Y60422D01*
X531978Y58625D01*
X530708Y56425D01*
X530050Y53970D01*
Y51430D01*
X530708Y48975D01*
X531978Y46775D01*
X533775Y44978D01*
X535975Y43708D01*
X538429Y43050D01*
X540970D01*
X543425Y43708D01*
X545625Y44978D01*
X547422Y46775D01*
X548692Y48975D01*
X549350Y51430D01*
Y53970D01*
X548692Y56425D01*
X547422Y58625D01*
X545625Y60422D01*
X543425Y61692D01*
X540970Y62350D01*
D02*
G37*
G36*
X515570D02*
X513030D01*
X510575Y61692D01*
X508375Y60422D01*
X506578Y58625D01*
X505308Y56425D01*
X504650Y53970D01*
Y51430D01*
X505308Y48975D01*
X506578Y46775D01*
X508375Y44978D01*
X510575Y43708D01*
X513030Y43050D01*
X515570D01*
X518025Y43708D01*
X520225Y44978D01*
X522022Y46775D01*
X523292Y48975D01*
X523950Y51430D01*
Y53970D01*
X523292Y56425D01*
X522022Y58625D01*
X520225Y60422D01*
X518025Y61692D01*
X515570Y62350D01*
D02*
G37*
G36*
X490170D02*
X487630D01*
X485175Y61692D01*
X482975Y60422D01*
X481178Y58625D01*
X479908Y56425D01*
X479250Y53970D01*
Y51430D01*
X479908Y48975D01*
X481178Y46775D01*
X482975Y44978D01*
X485175Y43708D01*
X487630Y43050D01*
X490170D01*
X492625Y43708D01*
X494825Y44978D01*
X496622Y46775D01*
X497892Y48975D01*
X498550Y51430D01*
Y53970D01*
X497892Y56425D01*
X496622Y58625D01*
X494825Y60422D01*
X492625Y61692D01*
X490170Y62350D01*
D02*
G37*
G36*
X337094Y292500D02*
X334906D01*
X332884Y291663D01*
X331337Y290116D01*
X330500Y288094D01*
Y285906D01*
X331337Y283885D01*
X332884Y282337D01*
X332931Y282318D01*
Y61734D01*
X332775Y61692D01*
X330575Y60422D01*
X328778Y58625D01*
X327508Y56425D01*
X326850Y53970D01*
Y51430D01*
X327508Y48975D01*
X328778Y46775D01*
X330575Y44978D01*
X332775Y43708D01*
X335229Y43050D01*
X337770D01*
X340225Y43708D01*
X342425Y44978D01*
X344222Y46775D01*
X345492Y48975D01*
X346150Y51430D01*
Y53970D01*
X345492Y56425D01*
X344222Y58625D01*
X342425Y60422D01*
X340225Y61692D01*
X340069Y61734D01*
Y283290D01*
X340663Y283885D01*
X341500Y285906D01*
Y288094D01*
X340663Y290116D01*
X339115Y291663D01*
X337094Y292500D01*
D02*
G37*
G36*
X269950Y62350D02*
X250650D01*
Y43050D01*
X269950D01*
Y62350D01*
D02*
G37*
G36*
X683827Y27580D02*
X683770D01*
Y18770D01*
X692580D01*
Y18827D01*
X691893Y21391D01*
X690566Y23689D01*
X688689Y25566D01*
X686391Y26893D01*
X683827Y27580D01*
D02*
G37*
G36*
X681230D02*
X681173D01*
X678609Y26893D01*
X676311Y25566D01*
X674434Y23689D01*
X673107Y21391D01*
X672420Y18827D01*
Y18770D01*
X681230D01*
Y27580D01*
D02*
G37*
G36*
X766674Y52000D02*
X763326D01*
X760041Y51347D01*
X756947Y50065D01*
X754163Y48205D01*
X751795Y45837D01*
X749935Y43053D01*
X748653Y39959D01*
X748000Y36674D01*
Y33326D01*
X748653Y30041D01*
X749935Y26948D01*
X751795Y24163D01*
X754163Y21795D01*
X756947Y19935D01*
X760041Y18653D01*
X763326Y18000D01*
X766674D01*
X769959Y18653D01*
X773053Y19935D01*
X775837Y21795D01*
X778205Y24163D01*
X780065Y26948D01*
X781347Y30041D01*
X782000Y33326D01*
Y36674D01*
X781347Y39959D01*
X780065Y43053D01*
X778205Y45837D01*
X775837Y48205D01*
X773053Y50065D01*
X769959Y51347D01*
X766674Y52000D01*
D02*
G37*
G36*
X36674D02*
X33326D01*
X30041Y51347D01*
X26948Y50065D01*
X24163Y48205D01*
X21795Y45837D01*
X19935Y43053D01*
X18653Y39959D01*
X18000Y36674D01*
Y33326D01*
X18653Y30041D01*
X19935Y26948D01*
X21795Y24163D01*
X24163Y21795D01*
X26948Y19935D01*
X30041Y18653D01*
X33326Y18000D01*
X36674D01*
X39959Y18653D01*
X43053Y19935D01*
X45837Y21795D01*
X48205Y24163D01*
X50065Y26948D01*
X51347Y30041D01*
X52000Y33326D01*
Y36674D01*
X51347Y39959D01*
X50065Y43053D01*
X48205Y45837D01*
X45837Y48205D01*
X43053Y50065D01*
X39959Y51347D01*
X36674Y52000D01*
D02*
G37*
G36*
X540970Y36950D02*
X538429D01*
X535975Y36292D01*
X533775Y35022D01*
X531978Y33225D01*
X530708Y31025D01*
X530050Y28570D01*
Y26030D01*
X530708Y23575D01*
X531978Y21375D01*
X533775Y19578D01*
X535975Y18308D01*
X538429Y17650D01*
X540970D01*
X543425Y18308D01*
X545625Y19578D01*
X547422Y21375D01*
X548692Y23575D01*
X549350Y26030D01*
Y28570D01*
X548692Y31025D01*
X547422Y33225D01*
X545625Y35022D01*
X543425Y36292D01*
X540970Y36950D01*
D02*
G37*
G36*
X515570D02*
X513030D01*
X510575Y36292D01*
X508375Y35022D01*
X506578Y33225D01*
X505308Y31025D01*
X504650Y28570D01*
Y26030D01*
X505308Y23575D01*
X506578Y21375D01*
X508375Y19578D01*
X510575Y18308D01*
X513030Y17650D01*
X515570D01*
X518025Y18308D01*
X520225Y19578D01*
X522022Y21375D01*
X523292Y23575D01*
X523950Y26030D01*
Y28570D01*
X523292Y31025D01*
X522022Y33225D01*
X520225Y35022D01*
X518025Y36292D01*
X515570Y36950D01*
D02*
G37*
G36*
X490170D02*
X487630D01*
X485175Y36292D01*
X482975Y35022D01*
X481178Y33225D01*
X479908Y31025D01*
X479250Y28570D01*
Y26030D01*
X479908Y23575D01*
X481178Y21375D01*
X482975Y19578D01*
X485175Y18308D01*
X487630Y17650D01*
X490170D01*
X492625Y18308D01*
X494825Y19578D01*
X496622Y21375D01*
X497892Y23575D01*
X498550Y26030D01*
Y28570D01*
X497892Y31025D01*
X496622Y33225D01*
X494825Y35022D01*
X492625Y36292D01*
X490170Y36950D01*
D02*
G37*
G36*
X439370D02*
X436829D01*
X434375Y36292D01*
X432175Y35022D01*
X430378Y33225D01*
X429108Y31025D01*
X428450Y28570D01*
Y26030D01*
X429108Y23575D01*
X430378Y21375D01*
X432175Y19578D01*
X434375Y18308D01*
X436829Y17650D01*
X439370D01*
X441825Y18308D01*
X444025Y19578D01*
X445822Y21375D01*
X447092Y23575D01*
X447750Y26030D01*
Y28570D01*
X447092Y31025D01*
X445822Y33225D01*
X444025Y35022D01*
X441825Y36292D01*
X439370Y36950D01*
D02*
G37*
G36*
X413970D02*
X411429D01*
X408975Y36292D01*
X406775Y35022D01*
X404978Y33225D01*
X403708Y31025D01*
X403050Y28570D01*
Y26030D01*
X403708Y23575D01*
X404978Y21375D01*
X406775Y19578D01*
X408975Y18308D01*
X411429Y17650D01*
X413970D01*
X416425Y18308D01*
X418625Y19578D01*
X420422Y21375D01*
X421692Y23575D01*
X422350Y26030D01*
Y28570D01*
X421692Y31025D01*
X420422Y33225D01*
X418625Y35022D01*
X416425Y36292D01*
X413970Y36950D01*
D02*
G37*
G36*
X388570D02*
X386030D01*
X383575Y36292D01*
X381375Y35022D01*
X379578Y33225D01*
X378308Y31025D01*
X377650Y28570D01*
Y26030D01*
X378308Y23575D01*
X379578Y21375D01*
X381375Y19578D01*
X383575Y18308D01*
X386030Y17650D01*
X388570D01*
X391025Y18308D01*
X393225Y19578D01*
X395022Y21375D01*
X396292Y23575D01*
X396950Y26030D01*
Y28570D01*
X396292Y31025D01*
X395022Y33225D01*
X393225Y35022D01*
X391025Y36292D01*
X388570Y36950D01*
D02*
G37*
G36*
X363170D02*
X360630D01*
X358175Y36292D01*
X355975Y35022D01*
X354178Y33225D01*
X352908Y31025D01*
X352250Y28570D01*
Y26030D01*
X352908Y23575D01*
X354178Y21375D01*
X355975Y19578D01*
X358175Y18308D01*
X360630Y17650D01*
X363170D01*
X365625Y18308D01*
X367825Y19578D01*
X369622Y21375D01*
X370892Y23575D01*
X371550Y26030D01*
Y28570D01*
X370892Y31025D01*
X369622Y33225D01*
X367825Y35022D01*
X365625Y36292D01*
X363170Y36950D01*
D02*
G37*
G36*
X337770D02*
X335229D01*
X332775Y36292D01*
X330575Y35022D01*
X328778Y33225D01*
X327508Y31025D01*
X326850Y28570D01*
Y26030D01*
X327508Y23575D01*
X328778Y21375D01*
X330575Y19578D01*
X332775Y18308D01*
X335229Y17650D01*
X337770D01*
X340225Y18308D01*
X342425Y19578D01*
X344222Y21375D01*
X345492Y23575D01*
X346150Y26030D01*
Y28570D01*
X345492Y31025D01*
X344222Y33225D01*
X342425Y35022D01*
X340225Y36292D01*
X337770Y36950D01*
D02*
G37*
G36*
X312370D02*
X309830D01*
X307375Y36292D01*
X305175Y35022D01*
X303378Y33225D01*
X302108Y31025D01*
X301450Y28570D01*
Y26030D01*
X302108Y23575D01*
X303378Y21375D01*
X305175Y19578D01*
X307375Y18308D01*
X309830Y17650D01*
X312370D01*
X314825Y18308D01*
X317025Y19578D01*
X318822Y21375D01*
X320092Y23575D01*
X320750Y26030D01*
Y28570D01*
X320092Y31025D01*
X318822Y33225D01*
X317025Y35022D01*
X314825Y36292D01*
X312370Y36950D01*
D02*
G37*
G36*
X286970D02*
X284429D01*
X281975Y36292D01*
X279775Y35022D01*
X277978Y33225D01*
X276708Y31025D01*
X276050Y28570D01*
Y26030D01*
X276708Y23575D01*
X277978Y21375D01*
X279775Y19578D01*
X281975Y18308D01*
X284429Y17650D01*
X286970D01*
X289425Y18308D01*
X291625Y19578D01*
X293422Y21375D01*
X294692Y23575D01*
X295350Y26030D01*
Y28570D01*
X294692Y31025D01*
X293422Y33225D01*
X291625Y35022D01*
X289425Y36292D01*
X286970Y36950D01*
D02*
G37*
G36*
X261570D02*
X259030D01*
X256575Y36292D01*
X254375Y35022D01*
X252578Y33225D01*
X251308Y31025D01*
X250650Y28570D01*
Y26030D01*
X251308Y23575D01*
X252578Y21375D01*
X254375Y19578D01*
X256575Y18308D01*
X259030Y17650D01*
X261570D01*
X264025Y18308D01*
X266225Y19578D01*
X268022Y21375D01*
X269292Y23575D01*
X269950Y26030D01*
Y28570D01*
X269292Y31025D01*
X268022Y33225D01*
X266225Y35022D01*
X264025Y36292D01*
X261570Y36950D01*
D02*
G37*
%LPD*%
D10*
X681328Y131059D02*
X684387Y128000D01*
X608294Y131059D02*
X681328D01*
X605000Y133000D02*
X606353D01*
X608294Y131059D01*
X684387Y128000D02*
X685000D01*
X692261Y105779D02*
Y116500D01*
Y105779D02*
X698000Y100040D01*
D14*
X151127Y315965D02*
X171127D01*
X188127Y332965D01*
X625539Y323461D02*
X655000Y294000D01*
X485617Y352540D02*
X594383D01*
X623461Y323461D02*
X625539D01*
X594383Y352540D02*
X623461Y323461D01*
X284000Y328000D02*
X308460Y352460D01*
X485537D02*
X485617Y352540D01*
X308460Y352460D02*
X485537D01*
X52700Y362700D02*
X80000Y335400D01*
Y223000D02*
Y335400D01*
X153311Y293311D02*
X178311D01*
X200311Y315311D01*
D48*
X733892Y138900D02*
D03*
Y81100D02*
D03*
D49*
X728892Y153200D02*
D03*
Y66800D02*
D03*
D50*
X770692Y153200D02*
D03*
Y66800D02*
D03*
D53*
X461900Y492700D02*
D03*
D54*
Y467300D02*
D03*
X487300Y492700D02*
D03*
Y467300D02*
D03*
X512700Y492700D02*
D03*
Y467300D02*
D03*
X538100Y492700D02*
D03*
Y467300D02*
D03*
X52700Y337300D02*
D03*
X27300D02*
D03*
X52700Y311900D02*
D03*
X27300Y388100D02*
D03*
X52700D02*
D03*
Y362700D02*
D03*
X27300D02*
D03*
D55*
X570000Y433000D02*
D03*
Y407600D02*
D03*
X635300Y484000D02*
D03*
X660700D02*
D03*
D56*
X644450Y585000D02*
D03*
X444450D02*
D03*
D57*
X631750Y559600D02*
D03*
X619050Y585000D02*
D03*
X606350Y559600D02*
D03*
X593650Y585000D02*
D03*
X580950Y559600D02*
D03*
X568250Y585000D02*
D03*
X555550Y559600D02*
D03*
X431750D02*
D03*
X419050Y585000D02*
D03*
X406350Y559600D02*
D03*
X393650Y585000D02*
D03*
X380950Y559600D02*
D03*
X368250Y585000D02*
D03*
X355550Y559600D02*
D03*
D58*
X644000Y670000D02*
D03*
X556000D02*
D03*
X444000D02*
D03*
X356000D02*
D03*
D59*
X539700Y27300D02*
D03*
Y52700D02*
D03*
X514300Y27300D02*
D03*
Y52700D02*
D03*
X488900Y27300D02*
D03*
Y52700D02*
D03*
X463500Y27300D02*
D03*
Y52700D02*
D03*
X438100Y27300D02*
D03*
Y52700D02*
D03*
X412700Y27300D02*
D03*
Y52700D02*
D03*
X387300Y27300D02*
D03*
Y52700D02*
D03*
X361900Y27300D02*
D03*
Y52700D02*
D03*
X336500Y27300D02*
D03*
Y52700D02*
D03*
X311100Y27300D02*
D03*
Y52700D02*
D03*
X285700Y27300D02*
D03*
Y52700D02*
D03*
X260300Y27300D02*
D03*
D60*
Y52700D02*
D03*
D61*
X27300Y311900D02*
D03*
D62*
X208000Y291000D02*
D03*
X201000D02*
D03*
X194000D02*
D03*
X99000Y235000D02*
D03*
X157000Y264000D02*
D03*
X482000Y361000D02*
D03*
X478000Y411000D02*
D03*
X257000Y203000D02*
D03*
X678000Y111000D02*
D03*
X604000Y83000D02*
D03*
X151000Y315000D02*
D03*
X188000Y332000D02*
D03*
X605000Y133000D02*
D03*
X706885Y380337D02*
D03*
X584000Y618000D02*
D03*
X306000Y259000D02*
D03*
X298000Y236000D02*
D03*
X289151Y223000D02*
D03*
X509000Y291000D02*
D03*
X607944Y354090D02*
D03*
X613000Y346000D02*
D03*
X706000Y415000D02*
D03*
X742000Y366000D02*
D03*
X752195Y378250D02*
D03*
X751000Y335000D02*
D03*
X698000Y100040D02*
D03*
X685000Y128000D02*
D03*
X592508Y178508D02*
D03*
X432000Y338000D02*
D03*
X547000Y344000D02*
D03*
X546000Y331000D02*
D03*
X88000Y167000D02*
D03*
X293000Y250000D02*
D03*
X647805Y363195D02*
D03*
X604876Y607882D02*
D03*
X622000Y408000D02*
D03*
X658000Y357000D02*
D03*
X284000Y328000D02*
D03*
X655000Y294000D02*
D03*
X363000Y338000D02*
D03*
X366000Y326000D02*
D03*
X365000Y313000D02*
D03*
X650000Y443000D02*
D03*
X609000Y240000D02*
D03*
X622000D02*
D03*
X366000Y301000D02*
D03*
X88000Y124000D02*
D03*
X88390Y153390D02*
D03*
X325000Y276000D02*
D03*
X336000Y287000D02*
D03*
X80000Y223000D02*
D03*
X200000Y315000D02*
D03*
X153000Y293000D02*
D03*
X593708Y492516D02*
D03*
X574000Y78000D02*
D03*
X692261Y116500D02*
D03*
D63*
X306000Y73000D02*
Y259000D01*
X451810Y233810D02*
X509000Y291000D01*
X451810Y38990D02*
Y233810D01*
X311100Y52700D02*
X313454Y55054D01*
X314000Y60607D02*
Y265000D01*
X325000Y276000D01*
X313454Y60061D02*
X314000Y60607D01*
X313454Y55054D02*
Y60061D01*
X285700Y52700D02*
X306000Y73000D01*
X27300Y311900D02*
X52700D01*
X361900Y52700D02*
X370000Y60800D01*
X366000Y301000D02*
X370000Y297000D01*
Y60800D02*
Y297000D01*
X366000Y326000D02*
X412700Y279300D01*
X365000Y313000D02*
X387300Y290700D01*
X451810Y38990D02*
X463500Y27300D01*
X336500Y52700D02*
Y286365D01*
X336000Y286865D02*
Y287000D01*
Y286865D02*
X336500Y286365D01*
X387300Y52700D02*
Y290700D01*
X412700Y52700D02*
Y279300D01*
D64*
X426650Y618000D02*
X584000D01*
X393650Y585000D02*
X426650Y618000D01*
X574000Y160000D02*
X592508Y178508D01*
X363000Y338000D02*
X432000D01*
X547733Y344000D02*
X622000Y269733D01*
X547000Y344000D02*
X547733D01*
X622000Y240000D02*
Y269733D01*
X579134Y300465D02*
X609000Y270599D01*
X576535Y300465D02*
X579134D01*
X546000Y331000D02*
X576535Y300465D01*
X609000Y240000D02*
Y270599D01*
X593409Y480409D02*
X631750Y518750D01*
Y559600D01*
X524991Y480409D02*
X593409D01*
X512700Y492700D02*
X524991Y480409D01*
X593650Y492574D02*
X593708Y492516D01*
X593650Y492574D02*
Y585000D01*
X574000Y78000D02*
Y160000D01*
D65*
X724916Y372932D02*
X730233Y378250D01*
X706000Y415000D02*
X706442Y414558D01*
X622000Y399000D02*
X648068Y372932D01*
X706442Y380780D02*
X706885Y380337D01*
X648068Y372932D02*
X724916D01*
X706442Y380780D02*
Y414558D01*
X730233Y378250D02*
X752195D01*
X419050Y585000D02*
X441932Y607882D01*
X604876D01*
X608090Y354090D02*
X617195Y363195D01*
X647000Y346000D02*
X658000Y357000D01*
X613000Y346000D02*
X647000D01*
X607944Y354090D02*
X608090D01*
X742000Y366000D02*
X751000Y357000D01*
Y335000D02*
Y357000D01*
X617195Y363195D02*
X647805D01*
X456450Y597000D02*
X632450D01*
X644450Y585000D01*
X444450D02*
X456450Y597000D01*
X622000Y399000D02*
Y408000D01*
X635300Y481700D02*
X642000Y475000D01*
Y451000D02*
X650000Y443000D01*
X642000Y451000D02*
Y475000D01*
X635300Y481700D02*
Y484000D01*
D66*
X298000Y215152D02*
Y236000D01*
X294848Y212000D02*
X298000Y215152D01*
X158000Y223000D02*
X289151D01*
X88000Y124000D02*
X176000Y212000D01*
X294848D01*
X88000Y167000D02*
X171000Y250000D01*
X293000D01*
X88390Y153390D02*
X158000Y223000D01*
D68*
X182500Y17500D02*
D03*
X117500D02*
D03*
X182500Y62500D02*
D03*
X617500Y17500D02*
D03*
X682500Y62500D02*
D03*
Y17500D02*
D03*
D69*
X117500Y62500D02*
D03*
X617500D02*
D03*
M02*
